<svg width="270" height="74" viewBox="0 0 270 74" fill="none" xmlns="http://www.w3.org/2000/svg">
<g clip-path="url(#clip0_809_6722)">
<path d="M87.5378 0.15625L86.375 7.56185L87.1851 7.37665C91.267 6.44821 95.4584 5.92672 99.6474 5.82681H105.846V40.2742C105.841 42.8402 105.491 45.3063 104.834 47.4044L104.605 48.1355H116.712L116.481 47.4044C115.824 45.3087 115.474 42.8426 115.469 40.2766V5.82681H121.67C125.857 5.92672 130.05 6.44821 134.132 7.37665L134.942 7.56185L133.78 0.15625H87.5402H87.5378Z" fill="white"/>
<path d="M154.669 46.2786L154.64 46.1836C154.496 45.7474 154.382 45.299 154.299 44.8482L154.065 41.885V6.69921L154.299 3.73599C154.382 3.28517 154.496 2.83435 154.64 2.39816L154.644 2.38597C154.79 1.90348 154.941 1.40148 155.092 0.875122L155.299 0.15625H143.143L143.35 0.875122C143.503 1.40392 143.656 1.91322 143.797 2.38597L143.802 2.39816C143.946 2.83435 144.058 3.28274 144.14 3.73599L144.374 6.69677V41.885L144.14 44.8482C144.058 45.3014 143.943 45.7523 143.802 46.186L143.792 46.2153C143.678 46.593 143.522 47.1071 143.423 47.2607L142.844 48.1355H155.598L155.021 47.2607C154.927 47.1145 154.783 46.6539 154.669 46.2762" fill="white"/>
<path d="M88.6737 42.3794C87.6812 40.6176 86.7033 38.7046 85.7643 36.6918L80.3298 24.0616L78.2304 19.0368L69.9741 0.0292969L69.0205 0.0463549H60.2776L62.9438 6.66242L62.9487 6.67704C63.7514 8.51686 63.8001 10.654 63.0825 12.5401L55.5705 34.311L41.7629 0.0634129L31.3439 0.0463549L34.4407 7.01333C35.2507 8.83609 35.3164 10.9635 34.6231 12.8472C34.5939 12.9251 34.5672 13.0031 34.5404 13.0738C34.5112 13.1566 34.482 13.2346 34.4553 13.3077C32.4629 18.7127 30.096 24.7902 27.4177 31.3648L24.8439 37.5276L24.8318 37.5642C24.6493 38.1003 24.4328 38.6267 24.1944 39.1287L23.8368 39.9328C23.5717 40.5298 23.3625 41.0026 23.2019 41.3462L23.1946 41.3632C22.6643 42.6231 22.0513 43.8513 21.3799 45.0063C20.7742 46.0201 20.3557 46.7292 20.0517 47.314L19.6211 48.1377H30.9377L29.5778 45.8592C29.4927 45.2939 29.4878 44.7188 29.5608 44.151C29.9573 42.0066 30.585 39.9255 31.4266 37.9687L31.4388 37.9395C34.139 30.5339 36.4184 24.3174 38.7659 18.062C38.7805 18.0352 38.7926 18.006 38.8024 17.9767C38.997 17.4552 39.194 16.9338 39.3911 16.4147C39.4519 16.249 39.5151 16.0857 39.576 15.9225L51.4034 48.1401H56.9498L67.4515 16.6462C67.848 17.5722 68.2396 18.4787 68.624 19.356C69.3854 21.1178 70.1419 22.8797 70.8985 24.644C71.6794 26.4643 72.4894 28.3456 73.2873 30.1951L73.8395 31.472C74.7688 33.6262 75.7297 35.8535 76.6833 38.0345L76.8536 38.4512L76.9922 38.9386L77.0166 38.9849C77.1139 39.1774 77.2087 39.3821 77.3085 39.6111L77.3133 39.6233C77.6344 40.3178 77.9653 41.1147 78.3277 42.0626L78.335 42.0797C78.7024 42.9594 79.0356 43.8756 79.3251 44.7943C79.4492 45.2062 79.3251 45.7959 79.1524 46.6122C79.0989 46.8705 79.0381 47.163 78.9773 47.4773L78.8508 48.145H92.3956L91.7729 47.2556C90.576 45.5522 89.5641 43.9585 88.6786 42.3867" fill="white"/>
<path d="M11.1025 3.69111C11.1852 3.24272 11.2971 2.79434 11.4407 2.36302L11.4455 2.35084C11.5939 1.85615 11.7399 1.36878 11.8907 0.849732L12.0999 0.130859H0.00243263L0.209206 0.849732C0.360029 1.37366 0.513285 1.88052 0.654377 2.35084V2.36302C0.800335 2.79678 0.912236 3.24516 0.994945 3.69354L1.22848 6.63726V41.6183L0.994945 44.5669C0.912236 45.0153 0.797902 45.4637 0.65681 45.895L0.651945 45.9072C0.510852 46.3775 0.357597 46.8844 0.206773 47.4083L0 48.1272H12.0926L11.8858 47.4083C11.7739 47.0184 11.662 46.6431 11.538 46.2289L11.5477 46.2191L11.4382 45.8901C11.2971 45.4564 11.1828 45.0104 11.1001 44.5621L10.8666 41.6159V6.63483L11.1001 3.68867L11.1025 3.69111Z" fill="white"/>
<path d="M210.839 42.0796C208.351 38.0661 206.412 33.67 204.539 29.4177C204.147 28.5283 203.746 27.6266 203.359 26.7567C202.668 25.2117 201.98 23.6667 201.291 22.1193C200.946 21.3444 200.6 20.5695 200.255 19.7946C199.851 18.8881 199.445 17.9791 199.041 17.0726C198.411 15.6592 197.781 14.2459 197.148 12.8276C196.686 11.8114 196.224 10.7685 195.774 9.75961L195.511 9.16989C195.013 8.04406 194.494 6.87924 193.979 5.73392L191.612 0H180.113L181.67 1.64731C182.188 2.19073 182.222 2.30527 182.278 2.49778L182.29 2.54164C182.358 2.85112 182.39 3.15085 182.382 3.42866C182.36 4.00619 182.263 4.58129 182.093 5.1442L182.042 5.30991C182 5.45125 181.957 5.59746 181.913 5.72174C176.189 18.9222 167.006 40.0643 166.704 40.6662C166.081 41.9359 165.369 43.1592 164.585 44.302C164.011 45.1354 163.544 45.8007 163.162 46.3441L161.953 48.0767H175.211L173.133 45.2402C173.058 44.7699 173.058 44.285 173.133 43.8025C173.189 43.6002 173.676 42.2137 177.444 33.0243C178.782 32.6709 180.132 32.4614 181.46 32.4053L191.692 32.4004C193.047 32.4614 194.414 32.6734 195.757 33.034C196.482 34.54 199.681 41.2194 201.162 45.0087C201.196 45.5326 201.009 46.0493 200.642 46.4367L199.073 48.0865L215.24 48.0572L213.963 46.4757C212.819 45.0599 211.766 43.5807 210.832 42.0772M193.062 26.6129H180.108C181.536 23.1501 184.781 15.2888 186.328 11.5653L193.062 26.6129Z" fill="white"/>
<path d="M37.125 73.6951V61.5693H39.6379C41.3578 61.5693 42.6179 61.6961 43.4231 61.9495C44.2258 62.2029 44.9216 62.6026 45.5054 63.1484C46.0892 63.6943 46.5393 64.362 46.8531 65.1491C47.1669 65.9362 47.325 66.8573 47.325 67.91C47.325 68.9628 47.0793 69.9521 46.5904 70.883C46.1014 71.8114 45.4373 72.5133 44.6005 72.986C43.7636 73.4588 42.5571 73.6951 40.9856 73.6951H37.125ZM38.2878 72.5474H39.6866C41.1486 72.5474 42.2068 72.4743 42.8636 72.3281C43.5204 72.1818 44.0969 71.8919 44.5907 71.4581C45.0846 71.0243 45.4616 70.498 45.7195 69.879C45.9773 69.2601 46.1063 68.5509 46.1063 67.7516C46.1063 66.9523 45.9554 66.214 45.6587 65.539C45.3595 64.864 44.9362 64.3059 44.3864 63.8673C43.8366 63.4287 43.1871 63.1314 42.4403 62.9803C41.6935 62.8292 40.5939 62.7536 39.1441 62.7536H38.2854V72.5498L38.2878 72.5474Z" fill="white"/>
<path d="M56.0938 61.5693H63.0389V62.7683H57.3076V66.5527H62.9878V67.7346H57.3076V72.4962H62.9878V73.6951H56.0938V61.5693Z" fill="white"/>
<path d="M70.6055 61.5693H71.9215L75.9329 71.2461L80.0125 61.5693H81.3285L76.0521 73.9997H75.7991L70.6055 61.5693Z" fill="white"/>
<path d="M89.7734 61.5693H96.7186V62.7683H90.9873V66.5527H96.6699V67.7346H90.9873V72.4962H96.6699V73.6951H89.7734V61.5693Z" fill="white"/>
<path d="M105.195 61.5693H106.426V72.5303H111.077V73.6951H105.195V61.5693Z" fill="white"/>
<path d="M118.867 67.6833C118.867 66.5136 119.149 65.4317 119.711 64.4399C120.273 63.4505 121.042 62.6732 122.02 62.1102C122.998 61.5473 124.063 61.2646 125.214 61.2646C126.365 61.2646 127.44 61.5449 128.435 62.1005C129.43 62.6585 130.211 63.4286 130.777 64.4155C131.344 65.4 131.629 66.4698 131.629 67.6248C131.629 68.7799 131.349 69.8473 130.787 70.8342C130.225 71.8187 129.454 72.5936 128.469 73.1565C127.486 73.7194 126.418 73.9997 125.265 73.9997C124.112 73.9997 123.042 73.7219 122.054 73.1638C121.064 72.6058 120.285 71.8382 119.719 70.8585C119.152 69.8789 118.867 68.8213 118.867 67.6833ZM130.364 67.6322C130.364 66.1798 129.86 64.954 128.856 63.9501C127.848 62.9485 126.639 62.4465 125.224 62.4465C123.808 62.4465 122.562 62.9509 121.592 63.9574C120.619 64.9662 120.135 66.192 120.135 67.6395C120.135 69.087 120.633 70.3103 121.636 71.3118C122.635 72.3134 123.844 72.8153 125.26 72.8153C126.676 72.8153 127.883 72.3255 128.875 71.3459C129.87 70.3663 130.366 69.1284 130.366 67.6297" fill="white"/>
<path d="M140.445 61.5693H142.856C144.284 61.5693 145.216 61.6254 145.654 61.7375C146.091 61.8496 146.493 62.047 146.86 62.3296C147.225 62.6099 147.51 62.9632 147.712 63.3848C147.913 63.8064 148.016 64.2767 148.016 64.7957C148.016 65.6291 147.789 66.309 147.342 66.8403C146.892 67.3691 146.327 67.7053 145.646 67.8442C144.965 67.9856 143.924 68.0562 142.518 68.0562H141.659V73.6951H140.445V61.5693ZM141.659 62.7536V66.8914H143.7C144.924 66.9134 145.739 66.7135 146.145 66.292C146.551 65.8704 146.751 65.3708 146.751 64.7982C146.751 63.436 145.768 62.7536 143.8 62.7536H141.659Z" fill="white"/>
<path d="M156.289 73.6951L158.009 61.5693H158.194L163.115 71.5166L168.005 61.5693H168.189L169.926 73.6951H168.73L167.55 65.015L163.268 73.6951H162.964L158.632 64.9493L157.452 73.6951H156.289Z" fill="white"/>
<path d="M178.742 61.5693H185.687V62.7683H179.956V66.5527H185.636V67.7346H179.956V72.4962H185.636V73.6951H178.742V61.5693Z" fill="white"/>
<path d="M194.188 73.6951V61.5693H194.458L202.497 70.8586V61.5693H203.694V73.6951H203.424L195.433 64.5252V73.6951H194.188Z" fill="white"/>
<path d="M211.852 62.7536V61.5693H218.493V62.7536H215.797V73.6951H214.566V62.7536H211.852Z" fill="white"/>
<path d="M225.391 71.4341L226.42 70.8274C227.14 72.1554 227.977 72.8207 228.933 72.8207C229.55 72.8207 230.078 72.6233 230.516 72.2286C230.954 71.8338 231.173 71.344 231.173 70.7591C231.173 70.2986 230.988 69.8307 230.616 69.3579C230.244 68.8852 229.631 68.3247 228.77 67.6765C227.908 67.0307 227.332 66.5458 227.033 66.2241C226.736 65.9025 226.517 65.5613 226.376 65.1934C226.235 64.8278 226.164 64.4599 226.164 64.087C226.164 63.2999 226.442 62.6322 226.999 62.0864C227.556 61.5405 228.254 61.2676 229.098 61.2676C229.762 61.2676 230.341 61.4333 230.835 61.7647C231.329 62.0961 231.808 62.5884 232.268 63.2414L231.29 64.0017C230.976 63.5728 230.65 63.2195 230.312 62.9368C229.974 62.6541 229.563 62.5153 229.074 62.5153C228.585 62.5153 228.186 62.6615 227.877 62.9539C227.568 63.2463 227.412 63.6191 227.412 64.0675C227.412 64.5159 227.548 64.9107 227.826 65.2421C228.101 65.5735 228.723 66.0999 229.696 66.8212C230.669 67.5425 231.377 68.2053 231.82 68.8145C232.265 69.4237 232.487 70.0646 232.487 70.7396C232.487 71.6193 232.146 72.3821 231.467 73.0278C230.786 73.676 229.998 73.9977 229.1 73.9977C227.517 73.9977 226.279 73.1424 225.393 71.4317" fill="white"/>
<path d="M254.674 42.4713L241.452 42.654L237.696 42.6881L238.711 41.3698L269.999 0.150391H224.806L223.023 7.60473L223.898 7.41222C228.511 6.39605 233.247 5.85751 237.969 5.81608H254.158L230.712 36.0648L221.312 48.1394H253.511H254.793H267.834L269.617 40.6851L268.741 40.8776C264.129 41.8937 259.393 42.4323 254.671 42.4737" fill="white"/>
</g>
<defs>
<clipPath id="clip0_809_6722">
<rect width="270" height="74" fill="white"/>
</clipPath>
</defs>
</svg>
