<svg width="292" height="80" viewBox="0 0 292 80" fill="none" xmlns="http://www.w3.org/2000/svg">
<g clip-path="url(#clip0_1287_17903)">
<g clip-path="url(#clip1_1287_17903)">
<path d="M94.635 0.168945L93.3779 8.175L94.2537 7.97478C98.6666 6.97106 103.198 6.40729 107.726 6.29928H114.428V43.5397C114.422 46.3138 114.044 48.9798 113.334 51.248L113.086 52.0384H126.175L125.925 51.248C125.215 48.9824 124.836 46.3163 124.831 43.5423V6.29928H131.535C136.061 6.40729 140.594 6.97106 145.007 7.97478L145.883 8.175L144.627 0.168945H94.6376H94.635Z" fill="white"/>
<path d="M167.209 50.0309L167.178 49.9282C167.022 49.4567 166.899 48.9719 166.809 48.4846L166.556 45.2811V7.24242L166.809 4.03893C166.899 3.55156 167.022 3.06419 167.178 2.59263L167.182 2.57945C167.34 2.05784 167.503 1.51514 167.666 0.946104L167.89 0.168945H154.749L154.972 0.946104C155.138 1.51778 155.303 2.06837 155.456 2.57945L155.461 2.59263C155.617 3.06419 155.738 3.54893 155.826 4.03893L156.079 7.23978V45.2811L155.826 48.4846C155.738 48.9745 155.613 49.462 155.461 49.9308L155.45 49.9625C155.327 50.3708 155.158 50.9266 155.051 51.0927L154.425 52.0384H168.213L167.59 51.0927C167.488 50.9346 167.332 50.4367 167.209 50.0283" fill="white"/>
<path d="M95.8629 45.8156C94.7899 43.911 93.7327 41.8429 92.7176 39.6669L86.8425 26.0126L84.5728 20.5804L75.6471 0.0317383L74.6162 0.0501794H65.1644L68.0468 7.20268L68.0521 7.21849C68.9199 9.20748 68.9725 11.5179 68.1967 13.5569L60.0756 37.093L45.1485 0.0686204L33.8847 0.0501794L37.2326 7.58204C38.1083 9.5526 38.1793 11.8525 37.4298 13.8889C37.3982 13.9731 37.3694 14.0575 37.3404 14.1339C37.3088 14.2234 37.2773 14.3077 37.2484 14.3868C35.0945 20.23 32.5356 26.8003 29.6402 33.908L26.8577 40.5704L26.8446 40.61C26.6473 41.1896 26.4133 41.7587 26.1555 42.3014L25.7689 43.1707C25.4823 43.8161 25.2562 44.3272 25.0826 44.6987L25.0747 44.717C24.5014 46.0791 23.8387 47.4069 23.1128 48.6555C22.458 49.7515 22.0056 50.5181 21.6769 51.1503L21.2114 52.0408H33.4456L31.9754 49.5776C31.8834 48.9664 31.8781 48.3447 31.957 47.7309C32.3857 45.4126 33.0643 43.1628 33.9741 41.0473L33.9873 41.0157C36.9065 33.0097 39.3707 26.2891 41.9085 19.5266C41.9243 19.4976 41.9374 19.466 41.948 19.4343C42.1583 18.8706 42.3713 18.3069 42.5844 17.7457C42.6501 17.5666 42.7185 17.39 42.7843 17.2136L55.5707 52.0434H61.5668L72.92 17.996C73.3486 18.997 73.772 19.977 74.1875 20.9255C75.0107 22.8301 75.8285 24.7349 76.6464 26.6422C77.4907 28.6101 78.3663 30.644 79.2289 32.6434L79.8259 34.0238C80.8306 36.3527 81.8694 38.7606 82.9003 41.1184L83.0844 41.5689L83.2342 42.0958L83.2606 42.1459C83.3658 42.354 83.4683 42.5753 83.5762 42.8229L83.5814 42.8361C83.9285 43.5869 84.2862 44.4484 84.678 45.4731L84.6859 45.4916C85.0831 46.4427 85.4433 47.4331 85.7563 48.4263C85.8904 48.8716 85.7563 49.5091 85.5696 50.3916C85.5117 50.6709 85.446 50.9871 85.3803 51.3269L85.2435 52.0487H99.8866L99.2134 51.0872C97.9194 49.2457 96.8255 47.5228 95.8682 45.8235" fill="white"/>
<path d="M227.934 45.4915C225.244 41.1525 223.148 36.4 221.123 31.8029C220.699 30.8414 220.266 29.8666 219.847 28.9262C219.1 27.2559 218.356 25.5856 217.612 23.9128C217.239 23.075 216.865 22.2373 216.492 21.3996C216.055 20.4196 215.616 19.4369 215.179 18.4569C214.498 16.9289 213.817 15.401 213.133 13.8677C212.633 12.7691 212.134 11.6416 211.647 10.5509L211.363 9.9134C210.825 8.69628 210.263 7.43702 209.707 6.19883L207.148 0H194.716L196.4 1.78088C196.96 2.36836 196.996 2.49218 197.057 2.7003L197.07 2.74772C197.143 3.08229 197.178 3.40632 197.169 3.70666C197.146 4.33102 197.041 4.95275 196.857 5.5613L196.802 5.74044C196.756 5.89324 196.71 6.05131 196.662 6.18567C190.474 20.4564 180.547 43.3128 180.22 43.9635C179.547 45.3361 178.777 46.6586 177.929 47.8941C177.309 48.795 176.804 49.5143 176.391 50.1017L175.084 51.9748H189.417L187.17 48.9083C187.089 48.3999 187.089 47.8757 187.17 47.3541C187.231 47.1354 187.757 45.6364 191.831 35.7019C193.277 35.3199 194.737 35.0934 196.173 35.0328L207.234 35.0275C208.699 35.0934 210.177 35.3226 211.629 35.7124C212.413 37.3405 215.871 44.5615 217.472 48.6581C217.509 49.2244 217.307 49.783 216.91 50.2018L215.214 51.9854L232.692 51.9537L231.311 50.244C230.074 48.7134 228.936 47.1143 227.926 45.4889M208.715 28.7707H194.711C196.255 25.0271 199.763 16.5284 201.435 12.503L208.715 28.7707Z" fill="white"/>
<path d="M40.1348 79.6705V66.5615H42.8514C44.7108 66.5615 46.073 66.6986 46.9435 66.9725C47.8113 67.2465 48.5635 67.6786 49.1947 68.2687C49.8258 68.8588 50.3124 69.5807 50.6516 70.4316C50.9909 71.2825 51.1618 72.2783 51.1618 73.4163C51.1618 74.5545 50.8962 75.624 50.3676 76.6304C49.839 77.6341 49.121 78.3929 48.2164 78.9039C47.3116 79.415 46.0073 79.6705 44.3084 79.6705H40.1348ZM41.3918 78.4297H42.9041C44.4846 78.4297 45.6286 78.3507 46.3387 78.1927C47.0487 78.0345 47.672 77.7211 48.2058 77.2521C48.7397 76.7831 49.1473 76.2142 49.4261 75.545C49.7048 74.8759 49.8443 74.1092 49.8443 73.2451C49.8443 72.381 49.6811 71.5828 49.3604 70.8531C49.0369 70.1234 48.5793 69.52 47.9849 69.0458C47.3905 68.5717 46.6884 68.2503 45.881 68.0869C45.0737 67.9236 43.8849 67.8418 42.3176 67.8418H41.3893V78.4323L41.3918 78.4297Z" fill="white"/>
<path d="M60.6416 66.5615H68.1498V67.8577H61.9538V71.949H68.0946V73.2267H61.9538V78.3744H68.0946V79.6705H60.6416V66.5615Z" fill="white"/>
<path d="M76.3296 66.5615H77.7523L82.0889 77.0229L86.4993 66.5615H87.922L82.2178 79.9998H81.9443L76.3296 66.5615Z" fill="white"/>
<path d="M97.0518 66.5615H104.56V67.8577H98.3641V71.949H104.507V73.2267H98.3641V78.3744H104.507V79.6705H97.0518V66.5615Z" fill="white"/>
<path d="M113.724 66.5615H115.054V78.4112H120.083V79.6705H113.724V66.5615Z" fill="white"/>
<path d="M128.504 73.1711C128.504 71.9065 128.809 70.7369 129.417 69.6647C130.024 68.5951 130.856 67.7547 131.913 67.1461C132.97 66.5376 134.122 66.2319 135.366 66.2319C136.61 66.2319 137.773 66.535 138.848 67.1356C139.924 67.7389 140.768 68.5714 141.38 69.6383C141.993 70.7026 142.301 71.8592 142.301 73.1078C142.301 74.3566 141.998 75.5105 141.391 76.5774C140.783 77.6418 139.95 78.4795 138.885 79.088C137.822 79.6966 136.668 79.9996 135.421 79.9996C134.175 79.9996 133.018 79.6993 131.95 79.0959C130.88 78.4927 130.037 77.6629 129.425 76.6037C128.813 75.5447 128.504 74.4013 128.504 73.1711ZM140.934 73.1158C140.934 71.5457 140.389 70.2205 139.303 69.1352C138.214 68.0524 136.907 67.5097 135.377 67.5097C133.846 67.5097 132.499 68.055 131.45 69.1431C130.398 70.2337 129.875 71.5589 129.875 73.1237C129.875 74.6886 130.414 76.0111 131.498 77.0938C132.578 78.1766 133.885 78.7192 135.416 78.7192C136.947 78.7192 138.251 78.1897 139.324 77.1306C140.4 76.0716 140.936 74.7333 140.936 73.1131" fill="white"/>
<path d="M151.832 66.5615H154.439C155.982 66.5615 156.99 66.6222 157.463 66.7434C157.936 66.8645 158.37 67.078 158.767 67.3835C159.162 67.6865 159.47 68.0684 159.688 68.5242C159.906 68.98 160.017 69.4884 160.017 70.0495C160.017 70.9505 159.771 71.6855 159.288 72.2599C158.802 72.8316 158.191 73.195 157.455 73.3452C156.719 73.4981 155.593 73.5744 154.073 73.5744H153.144V79.6705H151.832V66.5615ZM153.144 67.8418V72.3151H155.351C156.674 72.3389 157.555 72.1228 157.994 71.6671C158.433 71.2114 158.649 70.6713 158.649 70.0522C158.649 68.5796 157.587 67.8418 155.459 67.8418H153.144Z" fill="white"/>
<path d="M168.96 79.6705L170.82 66.5615H171.02L176.34 77.3154L181.626 66.5615H181.825L183.703 79.6705H182.41L181.135 70.2866L176.505 79.6705H176.177L171.493 70.2156L170.218 79.6705H168.96Z" fill="white"/>
<path d="M193.234 66.5615H200.742V67.8577H194.546V71.949H200.687V73.2267H194.546V78.3744H200.687V79.6705H193.234V66.5615Z" fill="white"/>
<path d="M209.933 79.6705V66.5615H210.224L218.915 76.604V66.5615H220.209V79.6705H219.917L211.279 69.7571V79.6705H209.933Z" fill="white"/>
<path d="M229.029 67.8418V66.5615H236.208V67.8418H233.294V79.6705H231.963V67.8418H229.029Z" fill="white"/>
<path d="M243.666 77.2262L244.778 76.5703C245.556 78.0059 246.461 78.7252 247.495 78.7252C248.162 78.7252 248.733 78.5118 249.206 78.0851C249.68 77.6583 249.916 77.1288 249.916 76.4964C249.916 75.9986 249.716 75.4928 249.314 74.9816C248.912 74.4706 248.249 73.8646 247.318 73.1639C246.387 72.4657 245.764 71.9415 245.441 71.5937C245.12 71.2461 244.883 70.8772 244.73 70.4795C244.578 70.0842 244.501 69.6865 244.501 69.2833C244.501 68.4324 244.802 67.7106 245.404 67.1205C246.006 66.5304 246.761 66.2354 247.673 66.2354C248.391 66.2354 249.017 66.4145 249.551 66.7728C250.085 67.131 250.603 67.6632 251.1 68.3692L250.043 69.1911C249.703 68.7275 249.351 68.3455 248.986 68.0399C248.62 67.7343 248.176 67.5842 247.647 67.5842C247.118 67.5842 246.687 67.7423 246.353 68.0584C246.019 68.3745 245.85 68.7775 245.85 69.2623C245.85 69.747 245.997 70.1738 246.298 70.5321C246.595 70.8904 247.268 71.4595 248.32 72.2392C249.371 73.019 250.137 73.7356 250.616 74.3942C251.097 75.0528 251.337 75.7456 251.337 76.4754C251.337 77.4264 250.968 78.251 250.234 78.9491C249.498 79.6498 248.646 79.9976 247.675 79.9976C245.964 79.9976 244.626 79.073 243.668 77.2236" fill="white"/>
</g>
</g>
<path d="M275.323 45.9164L261.029 46.1139L256.968 46.1508L258.066 44.7256L291.89 0.164062H243.033L241.106 8.22281L242.052 8.01469C247.039 6.91613 252.159 6.33392 257.263 6.28913H274.765L249.418 38.9905L239.256 52.0441H274.066H275.452H289.55L291.477 43.9854L290.53 44.1935C285.545 45.292 280.425 45.8742 275.32 45.919" fill="white"/>
<path d="M11.9284 3.85723C12.0173 3.37144 12.1375 2.88566 12.2918 2.41836L12.2969 2.40516C12.4564 1.86921 12.6132 1.34118 12.7752 0.778838L13 0H0.00261359L0.224769 0.778838C0.386811 1.34647 0.551468 1.89561 0.703055 2.40516V2.41836C0.859871 2.8883 0.980096 3.37408 1.06896 3.85987L1.31987 7.04914V44.9482L1.06896 48.1427C0.980096 48.6285 0.857257 49.1143 0.705669 49.5816L0.700442 49.5948C0.548854 50.1043 0.384198 50.6535 0.222155 51.2211L0 52H12.9922L12.77 51.2211C12.6497 50.7987 12.5295 50.3921 12.3963 49.9433L12.4067 49.9327L12.2891 49.5763C12.1375 49.1064 12.0147 48.6232 11.9258 48.1375L11.675 44.9455V7.04651L11.9258 3.85459L11.9284 3.85723Z" fill="white"/>
<defs>
<clipPath id="clip0_1287_17903">
<rect width="270" height="80" fill="white" transform="translate(10.9453)"/>
</clipPath>
<clipPath id="clip1_1287_17903">
<rect width="291.892" height="80" fill="white" transform="translate(-0.000488281)"/>
</clipPath>
</defs>
</svg>
