<svg width="12" height="22" viewBox="0 0 12 22" fill="none" xmlns="http://www.w3.org/2000/svg">
<g clip-path="url(#clip0_809_6770)">
<path d="M11.5516 0H8.67481C5.44284 0 3.35183 2.1208 3.35183 5.412V7.9068H0.45283C0.204218 7.9068 0 8.1048 0 8.3556V11.9724C0 12.2188 0.204218 12.4212 0.45283 12.4212H3.34739V21.5468C3.34739 21.7932 3.55161 21.9956 3.80022 21.9956H7.57381C7.82242 21.9956 8.02664 21.7932 8.02664 21.5468V12.4212H11.4095C11.6582 12.4212 11.8624 12.2188 11.8624 11.9724V8.3556C11.8624 8.2368 11.818 8.1224 11.7292 8.0388C11.6448 7.9552 11.5294 7.9068 11.4095 7.9068H8.0222V5.7904C8.0222 4.774 8.26637 4.2548 9.60266 4.2548H11.5427C11.7913 4.2548 11.9956 4.0524 11.9956 3.806V0.4532C11.9956 0.2068 11.7958 0.0044 11.5427 0.0044L11.5516 0Z" fill="white"/>
</g>
<defs>
<clipPath id="clip0_809_6770">
<rect width="12" height="22" fill="white"/>
</clipPath>
</defs>
</svg>
