<svg width="22" height="22" viewBox="0 0 22 22" fill="none" xmlns="http://www.w3.org/2000/svg">
<g clip-path="url(#clip0_809_6764)">
<path d="M15.1272 0H6.8728C3.08 0 0 3.08 0 6.8728V15.1228C0 18.92 3.08 21.9956 6.8728 21.9956H15.1228C18.92 21.9956 21.9956 18.9156 21.9956 15.1228V6.8728C21.9956 3.0756 18.9156 0 15.1228 0H15.1272ZM19.9364 15.1272C19.9364 17.7804 17.776 19.9408 15.1228 19.9408H6.8728C4.2196 19.9408 2.0592 17.7804 2.0592 15.1272V6.8728C2.0592 4.2196 4.2196 2.0592 6.8728 2.0592H15.1228C17.776 2.0592 19.9364 4.2196 19.9364 6.8728V15.1228V15.1272Z" fill="white"/>
<path d="M11 5.5C7.964 5.5 5.5 7.964 5.5 11C5.5 14.036 7.964 16.5 11 16.5C14.036 16.5 16.5 14.036 16.5 11C16.5 7.964 14.036 5.5 11 5.5ZM11 14.4364C9.1036 14.4364 7.5636 12.892 7.5636 11C7.5636 9.108 9.108 7.5636 11 7.5636C12.892 7.5636 14.4364 9.1036 14.4364 11C14.4364 12.8964 12.892 14.4364 11 14.4364Z" fill="white"/>
<path d="M16.9145 5.82116C17.3203 5.82116 17.6493 5.49218 17.6493 5.08636C17.6493 4.68054 17.3203 4.35156 16.9145 4.35156C16.5087 4.35156 16.1797 4.68054 16.1797 5.08636C16.1797 5.49218 16.5087 5.82116 16.9145 5.82116Z" fill="white"/>
</g>
<defs>
<clipPath id="clip0_809_6764">
<rect width="22" height="22" fill="white"/>
</clipPath>
</defs>
</svg>
