<svg width="20" height="19" viewBox="0 0 20 19" fill="none" xmlns="http://www.w3.org/2000/svg">
<g clip-path="url(#clip0_809_6774)">
<path d="M20 11.647V19H15.711V12.141C15.711 10.4196 15.0917 9.2416 13.5398 9.2416C12.3547 9.2416 11.6514 10.032 11.3417 10.7996C11.2271 11.0732 11.2003 11.4532 11.2003 11.837V18.9962H6.91131C6.91131 18.9962 6.96865 7.3796 6.91131 6.175H11.2003V7.9914C11.2003 7.9914 11.1812 8.018 11.1735 8.0332H11.2003V7.9914C11.7699 7.1212 12.7867 5.8748 15.065 5.8748C17.8861 5.8748 20 7.7064 20 11.6432V11.647ZM2.42737 0C0.95948 0 0 0.9576 0 2.2154C0 3.4732 0.932722 4.4308 2.37003 4.4308H2.39679C3.89144 4.4308 4.82034 3.4466 4.82034 2.2154C4.79358 0.9576 3.89144 0 2.42355 0H2.42737ZM0.256116 19H4.54128V6.1788H0.256116V19Z" fill="white"/>
</g>
<defs>
<clipPath id="clip0_809_6774">
<rect width="20" height="19" fill="white"/>
</clipPath>
</defs>
</svg>
