<svg width="23" height="16" viewBox="0 0 23 16" fill="none" xmlns="http://www.w3.org/2000/svg">
<g clip-path="url(#clip0_809_6778)">
<path d="M22.5291 2.50272C22.2654 1.52494 21.4883 0.753012 20.5041 0.486345C18.7052 -0.00488281 11.5047 -0.00488281 11.5047 -0.00488281C11.5047 -0.00488281 4.30426 -0.00488281 2.50532 0.467632C1.53522 0.734298 0.739353 1.52494 0.475635 2.50272C0 4.28985 0 7.9998 0 7.9998C0 7.9998 0 11.7285 0.475635 13.4969C0.739353 14.4746 1.51638 15.2466 2.50532 15.5132C4.3231 16.0045 11.5047 16.0045 11.5047 16.0045C11.5047 16.0045 18.7052 16.0045 20.5041 15.532C21.4883 15.27 22.2654 14.498 22.5338 13.5203C23.0094 11.7331 23.0094 8.02319 23.0094 8.02319C23.0094 8.02319 23.0283 4.29453 22.5338 2.5074L22.5291 2.50272ZM9.20659 11.4244V4.57056L15.1921 7.99512L9.20659 11.4197V11.4244Z" fill="white"/>
</g>
<defs>
<clipPath id="clip0_809_6778">
<rect width="23" height="16" fill="white"/>
</clipPath>
</defs>
</svg>
