<svg width="597" height="704" viewBox="0 0 597 704" fill="none" xmlns="http://www.w3.org/2000/svg">
<path d="M1066.39 703.392H868.412C870.412 693.323 872.054 683.505 874.339 673.829C876.66 664.046 876.089 654.728 872.233 645.409C861.879 620.274 851.846 595.032 841.421 569.897C830.245 542.941 818.963 516.056 807.431 489.243C772.727 408.66 737.917 328.149 703.142 247.638C702.642 246.496 702.07 245.389 701.107 243.39C700.285 245.532 699.714 246.889 699.25 248.281C660.369 364.674 621.488 481.067 582.643 597.424C571.289 631.449 559.828 665.475 548.582 699.571C547.582 702.642 546.225 703.713 542.905 703.677C518.662 703.534 494.384 703.499 470.142 703.677C466.678 703.677 465.214 702.642 464.072 699.428C418.764 576.073 373.385 452.754 328.042 329.435C316.724 298.694 305.478 267.954 294.16 237.213C293.696 235.892 293.053 234.642 292.196 232.643C290.875 236.071 289.804 238.82 288.769 241.569C250.637 344.502 212.685 447.506 174.304 550.331C165.271 574.503 155.595 598.388 150.097 623.666C147.633 635.02 145.919 646.623 144.634 658.191C143.849 665.189 145.848 671.794 149.954 677.935C155.345 685.933 159.951 694.466 165.199 703.249H0C2.39212 698.679 4.53422 694.251 6.92635 689.931C18.2086 669.652 30.8119 649.979 40.6303 628.986C57.5537 592.747 73.049 555.83 88.6514 518.984C134.851 409.732 178.374 299.372 219.433 188.085C230.251 158.773 229.358 129.71 216.719 101.112C202.545 69.086 188.228 37.0958 173.982 5.10558C173.304 3.57033 172.733 2.03509 171.947 0C178.267 0 184.086 0 189.906 0C233.143 0 276.38 0.10711 319.616 0.0357033C323.044 0.0357033 324.829 0.892584 326.221 4.35581C392.308 168.234 458.538 332.041 524.768 495.884C525.339 497.312 525.982 498.74 526.91 500.882C527.767 498.847 528.517 497.419 529.016 495.919C564.827 392.308 600.387 288.626 636.555 185.158C646.73 156.024 647.623 127.532 636.091 98.8626C623.416 67.4436 610.67 36.0247 597.959 4.60573C597.424 3.32041 597.031 1.96368 596.317 0H601.673C644.481 0 687.289 0 730.098 0C738.381 0 738.345 0 741.63 7.4977C780.511 96.8275 819.606 186.014 858.201 275.451C891.334 352.178 924.109 429.083 956.742 506.059C985.769 574.538 1020.69 639.697 1064.35 700C1064.99 700.892 1065.53 701.892 1066.46 703.32L1066.39 703.392Z" fill="white" fill-opacity="0.05"/>
</svg>
