<svg width="27" height="24" viewBox="0 0 27 24" fill="none" xmlns="http://www.w3.org/2000/svg">
<g clip-path="url(#clip0_574_3087)">
<path d="M18.5188 1.84721C19.5702 1.28839 20.8436 1.33174 21.8613 1.94356L22.3967 2.26151L24.437 3.48514C25.363 3.92353 25.7923 5.00263 25.4209 5.95649C25.1219 6.72246 24.3887 7.19939 23.6025 7.19939C23.4096 7.19939 23.2167 7.17048 23.0237 7.11267L20.805 6.42378C18.9722 7.08377 19.985 11.063 20.0188 11.2075L21.4658 16.7813L22.2375 19.7536L18.948 20.3076C18.5815 16.7138 15.538 13.9053 11.8385 13.9053C8.13902 13.9053 5.10034 16.709 4.72894 20.3076L1.43945 19.7536L2.21118 16.7813L3.65817 10.2103C4.09709 8.51936 5.7756 7.44989 7.4927 7.77748C8.93004 8.04725 10.3819 8.18214 11.8385 8.18214C11.935 8.18214 12.0314 8.18214 12.1327 8.18214C12.1617 8.18214 12.1954 8.18214 12.2244 8.18214C13.2421 8.16769 14.2646 8.08098 15.2727 7.93164C15.2727 4.64614 17.0091 2.65172 18.5188 1.84721Z" stroke="white" stroke-width="1.5" stroke-linecap="round" stroke-linejoin="round"/>
<path d="M1.43945 7.23323V6.30828C1.43945 5.47968 2.10989 4.81006 2.9395 4.81006C3.3543 4.81006 3.73052 4.97867 4.00063 5.24845C4.27073 5.51822 4.43955 5.89398 4.43955 6.30828V8.78445" stroke="white" stroke-width="1.5" stroke-linecap="round" stroke-linejoin="round"/>
<path d="M15.9475 22.5481H7.73828V21.5557C7.73828 20.4429 8.64024 19.542 9.75442 19.542H13.9314C15.0456 19.542 15.9475 20.4429 15.9475 21.5557V22.5481Z" stroke="white" stroke-width="1.5" stroke-linecap="round" stroke-linejoin="round"/>
<path d="M11.8398 19.5369V13.9102" stroke="white" stroke-width="1.5" stroke-linecap="round" stroke-linejoin="round"/>
</g>
<defs>
<clipPath id="clip0_574_3087">
<rect width="27" height="24" fill="white"/>
</clipPath>
</defs>
</svg>
