<svg width="31" height="24" viewBox="0 0 31 24" fill="none" xmlns="http://www.w3.org/2000/svg">
<g clip-path="url(#clip0_574_3101)">
<path d="M9.22326 5.22133C9.22326 3.11553 7.47905 1.40845 5.32745 1.40845C3.17585 1.40845 1.43164 3.11553 1.43164 5.22133V18.7783C1.43164 20.8841 3.17585 22.5912 5.32745 22.5912C7.47905 22.5912 9.22326 20.8841 9.22326 18.7783V5.22133Z" stroke="white" stroke-width="1.5" stroke-linecap="round" stroke-linejoin="round"/>
<path d="M29.5709 5.22133C29.5709 3.11553 27.8267 1.40845 25.6751 1.40845C23.5235 1.40845 21.7793 3.11553 21.7793 5.22133V18.7783C21.7793 20.8841 23.5235 22.5912 25.6751 22.5912C27.8267 22.5912 29.5709 20.8841 29.5709 18.7783V5.22133Z" stroke="white" stroke-width="1.5" stroke-linecap="round" stroke-linejoin="round"/>
<path d="M21.7793 13.8767V10.1189H9.22613V13.8767H21.7793Z" stroke="white" stroke-width="1.5" stroke-linecap="round" stroke-linejoin="round"/>
</g>
<defs>
<clipPath id="clip0_574_3101">
<rect width="31" height="24" fill="white"/>
</clipPath>
</defs>
</svg>
