<svg width="27" height="24" viewBox="0 0 27 24" fill="none" xmlns="http://www.w3.org/2000/svg">
<g clip-path="url(#clip0_574_3107)">
<path d="M1.38867 14.7411C1.38867 14.7411 2.49579 15.6138 3.9995 14.9826C5.5032 14.3514 6.09807 13.2371 8.58909 14.7411C10.4481 15.7748 11.675 14.6394 12.5879 14.1734C14.1908 13.2414 15.616 15.1182 17.256 15.2114C18.8961 15.3046 19.2761 13.9362 20.503 13.9108C21.73 13.8853 22.4405 15.2453 23.9855 15.2156C25.1711 15.2156 25.609 14.9021 25.609 14.9021" stroke="white" stroke-width="1.5" stroke-linecap="round" stroke-linejoin="round"/>
<path d="M1.38867 18.4269C1.38867 18.4269 2.49579 19.2996 3.9995 18.6684C5.5032 18.0414 6.09807 16.9229 8.58909 18.4269C10.4481 19.4606 11.675 18.3252 12.5879 17.8592C14.1908 16.9272 15.616 18.804 17.256 18.8972C18.8961 18.9904 19.2761 17.622 20.503 17.5965C21.73 17.5711 22.4405 18.9311 23.9855 18.9014C25.1711 18.9014 25.609 18.5879 25.609 18.5879" stroke="white" stroke-width="1.5" stroke-linecap="round" stroke-linejoin="round"/>
<path d="M1.38867 22.1125C1.38867 22.1125 2.49579 22.9852 3.9995 22.3539C5.5032 21.7269 6.09807 20.6085 8.58909 22.1125C10.4481 23.1462 11.675 22.0108 12.5879 21.5448C14.1908 20.6127 15.616 22.4895 17.256 22.5827C18.8961 22.6759 19.2761 21.3075 20.503 21.2821C21.73 21.2567 22.4405 22.6166 23.9855 22.5869C25.1711 22.5869 25.609 22.2734 25.609 22.2734" stroke="white" stroke-width="1.5" stroke-linecap="round" stroke-linejoin="round"/>
<path d="M9.92188 15.1563V4.83182C9.92188 2.94232 11.4173 1.40869 13.2598 1.40869H14.2843" stroke="white" stroke-width="1.5" stroke-linecap="round" stroke-linejoin="round"/>
<path d="M17.3984 15.1563V4.83182C17.3984 2.94232 18.8939 1.40869 20.7363 1.40869H21.7608" stroke="white" stroke-width="1.5" stroke-linecap="round" stroke-linejoin="round"/>
</g>
<defs>
<clipPath id="clip0_574_3107">
<rect width="27" height="24" fill="white"/>
</clipPath>
</defs>
</svg>
