<svg width="21" height="21" viewBox="0 0 21 21" fill="none" xmlns="http://www.w3.org/2000/svg">
<path d="M14 4.55H17.2C17.4122 4.55 17.6157 4.63955 17.7657 4.79896C17.9157 4.95837 18 5.17457 18 5.4V18.15C18 18.3754 17.9157 18.5916 17.7657 18.751C17.6157 18.9104 17.4122 19 17.2 19H2.8C2.58783 19 2.38434 18.9104 2.23431 18.751C2.08429 18.5916 2 18.3754 2 18.15V5.4C2 5.17457 2.08429 4.95837 2.23431 4.79896C2.38434 4.63955 2.58783 4.55 2.8 4.55L6 4.55M14 4.55V2M14 4.55L6 4.55M6 4.55V2M18 8.8H2" stroke="#490905" stroke-width="1.44" stroke-linecap="round"/>
</svg>
