<svg width="18" height="19" viewBox="0 0 18 19" fill="none" xmlns="http://www.w3.org/2000/svg">
<path d="M12.72 3.26997H15.92C16.1321 3.26997 16.3356 3.35952 16.4857 3.51893C16.6357 3.67834 16.72 3.89454 16.72 4.11997V16.87C16.72 17.0954 16.6357 17.3116 16.4857 17.471C16.3356 17.6304 16.1321 17.72 15.92 17.72H1.51997C1.3078 17.72 1.10431 17.6304 0.954285 17.471C0.804256 17.3116 0.719971 17.0954 0.719971 16.87V4.11997C0.719971 3.89454 0.804256 3.67834 0.954285 3.51893C1.10431 3.35952 1.3078 3.26997 1.51997 3.26997L4.71997 3.26997M12.72 3.26997V0.719971M12.72 3.26997L4.71997 3.26997M4.71997 3.26997V0.719971M16.72 7.51997H0.719971" stroke="#404040" stroke-width="1.44" stroke-linecap="round"/>
</svg>
