<svg width="18" height="17" viewBox="0 0 18 17" fill="none" xmlns="http://www.w3.org/2000/svg">
<path d="M16.3699 10.3026V10.3467C16.3699 11.4443 16.3699 12.3289 16.2764 13.0248C16.1792 13.7472 15.9715 14.3554 15.4884 14.8384C15.0052 15.3216 14.3971 15.5294 13.6747 15.6265C12.9788 15.72 12.0942 15.72 10.9966 15.72H6.09304C4.99546 15.72 4.11077 15.72 3.41496 15.6265C2.69256 15.5294 2.08431 15.3216 1.60123 14.8385C1.11815 14.3554 0.91037 13.7472 0.813242 13.0248C0.719695 12.3289 0.719711 11.4443 0.719727 10.3467C0.719727 10.332 0.719727 10.3173 0.719727 10.3026" stroke="white" stroke-width="1.44" stroke-linecap="round"/>
<path d="M12.1957 7.99652L8.98546 11.5078C8.87142 11.6325 8.71026 11.7035 8.54124 11.7035C8.37222 11.7035 8.21106 11.6325 8.09702 11.5078L4.88672 7.99652M8.54453 0.719971L8.54124 11.1525" stroke="white" stroke-width="1.44" stroke-linecap="round"/>
</svg>
