<svg width="22" height="22" viewBox="0 0 22 22" fill="none" xmlns="http://www.w3.org/2000/svg">
<path d="M15.7196 7.71997C17.8946 7.73208 19.0724 7.82853 19.8408 8.59691C20.7195 9.4756 20.7195 10.8898 20.7195 13.7181V14.7181C20.7195 17.5465 20.7195 18.9608 19.8408 19.8394C18.9621 20.718 17.548 20.718 14.7196 20.718H6.71967C3.89126 20.718 2.47707 20.718 1.5984 19.8394C0.719727 18.9608 0.719727 17.5465 0.719727 14.7181V13.7181C0.719727 10.8898 0.719727 9.4756 1.5984 8.5969C2.36677 7.82853 3.54467 7.73208 5.71968 7.71997" stroke="#404040" stroke-width="1.44" stroke-linecap="round"/>
<path d="M10.7197 13.7198V0.719971M10.7197 0.719971L13.7197 4.21992M10.7197 0.719971L7.71973 4.21992" stroke="#404040" stroke-width="1.44" stroke-linecap="round" stroke-linejoin="round"/>
</svg>
