<svg width="183" height="50" viewBox="0 0 183 50" fill="none" xmlns="http://www.w3.org/2000/svg">
<g clip-path="url(#clip0_574_2978)">
<path d="M59.3311 0.105377L58.543 5.10916L59.092 4.98403C61.8587 4.3567 64.6995 4.00435 67.5387 3.93684H71.7398V27.2121C71.7365 28.9459 71.4991 30.6122 71.0539 32.0298L70.8989 32.5238H79.1049L78.9483 32.0298C78.5031 30.6138 78.2657 28.9475 78.2624 27.2138V3.93684H82.4651C85.3027 4.00435 88.1452 4.3567 90.9119 4.98403L91.4609 5.10916L90.6728 0.105377H59.3327H59.3311Z" fill="white"/>
<path d="M104.833 31.2691L104.813 31.2049C104.716 30.9102 104.639 30.6072 104.582 30.3026L104.424 28.3005V4.52629L104.582 2.52412C104.639 2.21951 104.716 1.91491 104.813 1.62018L104.817 1.61195C104.916 1.28594 105.018 0.946751 105.12 0.591102L105.26 0.105377H97.0212L97.1613 0.591102C97.2652 0.948398 97.369 1.29252 97.4647 1.61195L97.468 1.62018C97.5653 1.91491 97.6411 2.21787 97.6972 2.52412L97.8554 4.52465V28.3005L97.6972 30.3026C97.6411 30.6089 97.5636 30.9135 97.468 31.2066L97.4614 31.2263C97.3839 31.4815 97.2784 31.829 97.2108 31.9327L96.8184 32.5238H105.463L105.072 31.9327C105.008 31.8339 104.911 31.5227 104.833 31.2675" fill="white"/>
<path d="M60.1012 28.6347C59.4285 27.4443 58.7656 26.1517 58.1292 24.7917L54.4458 16.2578L53.0229 12.8626L47.427 0.0197563L46.7807 0.031282H40.8549L42.662 4.5016L42.6653 4.51147C43.2094 5.7546 43.2424 7.1986 42.756 8.47301L37.6645 23.1831L28.306 0.0428077L21.2443 0.031282L23.3432 4.73869C23.8923 5.97029 23.9368 7.40771 23.4669 8.68047C23.4471 8.73316 23.4289 8.78585 23.4108 8.8336C23.391 8.88958 23.3712 8.94227 23.3531 8.99167C22.0027 12.6437 20.3985 16.7501 18.5832 21.1924L16.8388 25.3565L16.8305 25.3812C16.7069 25.7434 16.5601 26.0991 16.3985 26.4382L16.1562 26.9816C15.9764 27.385 15.8347 27.7044 15.7258 27.9366L15.7209 27.9481C15.3615 28.7994 14.946 29.6292 14.4909 30.4097C14.0804 31.0946 13.7968 31.5737 13.5907 31.9689L13.2988 32.5254H20.969L20.0473 30.9859C19.9896 30.6039 19.9863 30.2154 20.0358 29.8317C20.3045 28.3828 20.7299 26.9767 21.3004 25.6545L21.3086 25.6347C23.1388 20.6309 24.6837 16.4307 26.2747 12.204C26.2846 12.1859 26.2929 12.1662 26.2995 12.1464C26.4314 11.7941 26.5649 11.4417 26.6985 11.091C26.7397 10.979 26.7826 10.8687 26.8238 10.7584L34.8402 32.5271H38.5994L45.7172 11.2474C45.9859 11.8731 46.2514 12.4856 46.5119 13.0783C47.028 14.2688 47.5407 15.4592 48.0535 16.6513C48.5828 17.8813 49.1318 19.1524 49.6726 20.4021L50.0469 21.2649C50.6767 22.7204 51.328 24.2253 51.9743 25.6989L52.0897 25.9805L52.1837 26.3098L52.2002 26.3411C52.2661 26.4712 52.3304 26.6095 52.398 26.7642L52.4013 26.7725C52.619 27.2417 52.8432 27.7802 53.0889 28.4207L53.0938 28.4322C53.3428 29.0266 53.5687 29.6457 53.7649 30.2664C53.849 30.5447 53.7649 30.9431 53.6478 31.4947C53.6116 31.6692 53.5703 31.8668 53.5291 32.0792L53.4434 32.5304H62.6238L62.2017 31.9294C61.3905 30.7785 60.7046 29.7016 60.1045 28.6396" fill="white"/>
<path d="M7.52309 2.49448C7.57915 2.19152 7.65499 1.88856 7.75227 1.59713L7.75557 1.5889C7.85614 1.25465 7.95507 0.925347 8.05729 0.574638L8.19909 0.088913H-0.000304343L0.139842 0.574638C0.242067 0.92864 0.34594 1.27112 0.441569 1.5889V1.59713C0.540496 1.89021 0.61634 2.19317 0.672399 2.49613L0.830682 4.48513V28.121L0.672399 30.1133C0.61634 30.4162 0.538847 30.7192 0.443218 31.0106L0.43992 31.0189C0.344291 31.3367 0.240418 31.6791 0.138193 32.0331L-0.00195312 32.5189H8.19414L8.054 32.0331C7.97815 31.7697 7.90231 31.5161 7.81822 31.2362L7.82481 31.2296L7.75062 31.0073C7.65499 30.7143 7.5775 30.413 7.52144 30.11L7.36316 28.1193V4.48349L7.52144 2.49284L7.52309 2.49448Z" fill="white"/>
<path d="M142.903 28.4322C141.217 25.7204 139.903 22.75 138.633 19.8768C138.368 19.2759 138.096 18.6666 137.833 18.0788C137.365 17.0349 136.899 15.991 136.432 14.9455C136.198 14.4219 135.964 13.8983 135.73 13.3747C135.456 12.7622 135.181 12.1481 134.907 11.5355C134.48 10.5806 134.053 9.62558 133.624 8.6673C133.311 7.9807 132.998 7.27599 132.693 6.59433L132.514 6.19587C132.176 5.43518 131.825 4.64814 131.476 3.87427L129.871 0H122.078L123.133 1.11305C123.484 1.48023 123.507 1.55761 123.545 1.68769L123.553 1.71732C123.6 1.92643 123.621 2.12896 123.616 2.31666C123.601 2.70689 123.535 3.09547 123.42 3.47581L123.385 3.58778C123.357 3.68327 123.327 3.78207 123.298 3.86604C119.418 12.7853 113.194 27.0705 112.99 27.4772C112.568 28.335 112.084 29.1616 111.554 29.9338C111.164 30.4969 110.848 30.9464 110.589 31.3136L109.77 32.4843H118.755L117.347 30.5677C117.296 30.2499 117.296 29.9223 117.347 29.5963C117.385 29.4596 117.715 28.5227 120.269 22.3137C121.176 22.075 122.091 21.9333 122.991 21.8955L129.926 21.8922C130.844 21.9333 131.771 22.0766 132.681 22.3203C133.172 23.3378 135.34 27.851 136.345 30.4113C136.368 30.7653 136.241 31.1144 135.992 31.3762L134.928 32.4909L145.886 32.4711L145.02 31.4025C144.246 30.4459 143.532 29.4464 142.899 28.4305M130.854 17.9817H122.074C123.042 15.642 125.242 10.3303 126.29 7.8144L130.854 17.9817Z" fill="white"/>
<path d="M25.1641 49.7942V41.6011H26.8673C28.0329 41.6011 28.887 41.6867 29.4328 41.8579C29.9769 42.0292 30.4484 42.2992 30.8441 42.668C31.2398 43.0368 31.5449 43.488 31.7575 44.0198C31.9702 44.5516 32.0774 45.174 32.0774 45.8853C32.0774 46.5966 31.9109 47.2651 31.5795 47.8941C31.2481 48.5214 30.798 48.9956 30.2308 49.315C29.6636 49.6345 28.8458 49.7942 27.7807 49.7942H25.1641ZM25.9522 49.0187H26.9002C27.8911 49.0187 28.6084 48.9693 29.0535 48.8705C29.4987 48.7717 29.8895 48.5757 30.2242 48.2827C30.5589 47.9896 30.8144 47.6339 30.9892 47.2157C31.164 46.7975 31.2514 46.3184 31.2514 45.7783C31.2514 45.2382 31.1491 44.7394 30.948 44.2833C30.7452 43.8272 30.4583 43.4501 30.0857 43.1537C29.7131 42.8574 29.2728 42.6565 28.7667 42.5544C28.2605 42.4523 27.5152 42.4013 26.5326 42.4013H25.9505V49.0203L25.9522 49.0187Z" fill="white"/>
<path d="M38.0176 41.6011H42.7249V42.4112H38.8403V44.9682H42.6902V45.7668H38.8403V48.9841H42.6902V49.7942H38.0176V41.6011Z" fill="white"/>
<path d="M47.8535 41.6011H48.7455L51.4644 48.1394L54.2294 41.6011H55.1214L51.5451 50H51.3737L47.8535 41.6011Z" fill="white"/>
<path d="M60.8457 41.6011H65.553V42.4112H61.6684V44.9682H65.52V45.7668H61.6684V48.9841H65.52V49.7942H60.8457V41.6011Z" fill="white"/>
<path d="M71.3008 41.6011H72.1351V49.0071H75.2875V49.7942H71.3008V41.6011Z" fill="white"/>
<path d="M80.5664 45.7322C80.5664 44.9419 80.7577 44.2108 81.1385 43.5407C81.5194 42.8722 82.0404 42.347 82.7032 41.9666C83.366 41.5863 84.0882 41.3953 84.8681 41.3953C85.6479 41.3953 86.3767 41.5846 87.0511 41.96C87.7254 42.3371 88.2547 42.8574 88.6388 43.5242C89.023 44.1894 89.2159 44.9122 89.2159 45.6927C89.2159 46.4731 89.0263 47.1943 88.6454 47.8612C88.2646 48.5264 87.7419 49.05 87.0741 49.4303C86.408 49.8106 85.6842 50 84.9027 50C84.1212 50 83.3957 49.8123 82.7263 49.4352C82.0553 49.0582 81.5276 48.5395 81.1435 47.8776C80.7593 47.2157 80.5664 46.5011 80.5664 45.7322ZM88.3586 45.6976C88.3586 44.7163 88.0173 43.8881 87.3363 43.2097C86.6537 42.533 85.8343 42.1938 84.8747 42.1938C83.9151 42.1938 83.0709 42.5347 82.413 43.2147C81.7535 43.8963 81.4254 44.7245 81.4254 45.7026C81.4254 46.6806 81.7634 47.5072 82.4427 48.1839C83.1204 48.8606 83.9398 49.1998 84.8994 49.1998C85.859 49.1998 86.6768 48.8688 87.3495 48.2069C88.0239 47.545 88.3602 46.7086 88.3602 45.696" fill="white"/>
<path d="M95.1895 41.6011H96.8234C97.7912 41.6011 98.4227 41.6389 98.7195 41.7147C99.0163 41.7904 99.2883 41.9238 99.5373 42.1148C99.7846 42.3041 99.9775 42.5429 100.114 42.8277C100.251 43.1126 100.32 43.4304 100.32 43.7811C100.32 44.3442 100.167 44.8036 99.8637 45.1625C99.5587 45.5198 99.1762 45.747 98.7145 45.8409C98.2529 45.9364 97.5472 45.9841 96.5942 45.9841H96.0122V49.7942H95.1895V41.6011ZM96.0122 42.4013V45.1971H97.3955C98.2249 45.2119 98.7772 45.0769 99.0525 44.792C99.3279 44.5072 99.4631 44.1697 99.4631 43.7827C99.4631 42.8623 98.797 42.4013 97.4631 42.4013H96.0122Z" fill="white"/>
<path d="M105.932 49.7942L107.097 41.6011H107.223L110.558 48.3222L113.872 41.6011H113.997L115.175 49.7942H114.364L113.564 43.9293L110.662 49.7942H110.456L107.519 43.8848L106.72 49.7942H105.932Z" fill="white"/>
<path d="M121.15 41.6011H125.858V42.4112H121.973V44.9682H125.823V45.7668H121.973V48.9841H125.823V49.7942H121.15V41.6011Z" fill="white"/>
<path d="M131.615 49.7942V41.6011H131.798L137.247 47.8776V41.6011H138.059V49.7942H137.876L132.459 43.5983V49.7942H131.615Z" fill="white"/>
<path d="M143.59 42.4013V41.6011H148.091V42.4013H146.264V49.7942H145.43V42.4013H143.59Z" fill="white"/>
<path d="M152.764 48.2662L153.461 47.8562C153.949 48.7536 154.516 49.2031 155.164 49.2031C155.583 49.2031 155.941 49.0697 156.238 48.803C156.534 48.5362 156.683 48.2053 156.683 47.8101C156.683 47.4989 156.558 47.1828 156.305 46.8634C156.053 46.5439 155.637 46.1652 155.054 45.7273C154.47 45.2909 154.079 44.9633 153.877 44.7459C153.675 44.5286 153.527 44.2981 153.431 44.0495C153.336 43.8025 153.288 43.5539 153.288 43.3019C153.288 42.7701 153.476 42.319 153.854 41.9501C154.231 41.5813 154.704 41.3969 155.276 41.3969C155.727 41.3969 156.119 41.5089 156.454 41.7328C156.788 41.9567 157.113 42.2893 157.425 42.7306L156.762 43.2443C156.549 42.9545 156.328 42.7158 156.099 42.5248C155.87 42.3338 155.591 42.2399 155.26 42.2399C154.929 42.2399 154.658 42.3387 154.449 42.5363C154.239 42.7339 154.134 42.9858 154.134 43.2888C154.134 43.5917 154.226 43.8585 154.414 44.0824C154.6 44.3063 155.022 44.662 155.682 45.1493C156.342 45.6367 156.821 46.0846 157.121 46.4962C157.423 46.9078 157.573 47.3409 157.573 47.797C157.573 48.3913 157.342 48.9067 156.882 49.343C156.421 49.781 155.886 49.9984 155.278 49.9984C154.205 49.9984 153.365 49.4204 152.765 48.2646" fill="white"/>
<path d="M172.613 28.6973L163.652 28.8208L161.106 28.8438L161.794 27.953L183.001 0.102085H152.37L151.161 5.1388L151.755 5.00873C154.881 4.32213 158.091 3.95824 161.291 3.93025H172.264L156.373 24.3686L150.002 32.5271H171.825H172.694H181.533L182.742 27.4904L182.148 27.6204C179.022 28.307 175.812 28.6709 172.612 28.6989" fill="white"/>
</g>
<defs>
<clipPath id="clip0_574_2978">
<rect width="183" height="50" fill="white"/>
</clipPath>
</defs>
</svg>
