<svg width="20" height="20" viewBox="0 0 20 20" fill="none" xmlns="http://www.w3.org/2000/svg">
<g clip-path="url(#clip0_1422_10244)">
<path d="M18.3337 18.3333L16.667 16.6666M9.58366 17.5C10.6233 17.5 11.6527 17.2952 12.6132 16.8973C13.5737 16.4995 14.4465 15.9164 15.1816 15.1812C15.9167 14.4461 16.4999 13.5734 16.8977 12.6129C17.2956 11.6524 17.5003 10.6229 17.5003 9.58329C17.5003 8.54366 17.2956 7.51421 16.8977 6.55372C16.4999 5.59322 15.9167 4.72049 15.1816 3.98536C14.4465 3.25023 13.5737 2.6671 12.6132 2.26925C11.6527 1.8714 10.6233 1.66663 9.58366 1.66663C7.48403 1.66663 5.47039 2.5007 3.98573 3.98536C2.50107 5.47003 1.66699 7.48366 1.66699 9.58329C1.66699 11.6829 2.50107 13.6966 3.98573 15.1812C5.47039 16.6659 7.48403 17.5 9.58366 17.5Z" stroke="#490905" stroke-width="1.44" stroke-linecap="round" stroke-linejoin="round"/>
</g>
<defs>
<clipPath id="clip0_1422_10244">
<rect width="20" height="20" fill="white"/>
</clipPath>
</defs>
</svg>
