<svg width="22" height="19" viewBox="0 0 22 19" fill="none" xmlns="http://www.w3.org/2000/svg">
<path d="M17.7053 8.91754V2.33519C17.7053 1.44454 17.5738 0.719971 16.8598 0.719971H4.27782C3.56386 0.719971 2.98303 1.44459 2.98303 2.33519L2.85898 8.91754M19.0468 14.7979H20.0085C20.3921 14.7979 20.7042 14.4086 20.7042 13.9301V11.0995C20.7043 10.2042 21.0272 8.91754 18.7246 8.91754H3.05151H1.38214C0.719164 8.91754 0.719727 10.4742 0.719727 11.3227V13.93C0.719727 14.1869 0.88716 14.3958 1.09305 14.3958H20.0086M2.85898 17.72V14.8338M18.1546 17.72L18.1546 14.8338H18.7246" stroke="white" stroke-width="1.44" stroke-linecap="round"/>
</svg>
