<svg width="60" height="60" viewBox="0 0 60 60" fill="none" xmlns="http://www.w3.org/2000/svg">
<g clip-path="url(#clip0_1539_2720)">
<path d="M34.9606 41.9669C33.5201 49.8353 26.6794 55.5459 18.6946 55.5453C17.6946 55.5453 16.6848 55.4531 15.6932 55.2716C11.343 54.4752 7.56336 52.0325 5.05045 48.3935C2.53754 44.7544 1.59217 40.3544 2.38843 36.0042C3.82882 28.1363 10.6697 22.4258 18.6546 22.4258C19.654 22.4258 20.6638 22.5178 21.6559 22.6994C30.636 24.3434 36.6044 32.9867 34.9606 41.9669Z" stroke="#490905" stroke-width="1.27696"/>
<path d="M35.2106 38.3556C37.1187 39.8429 39.5329 40.5501 41.9883 40.9405C45.8149 41.5491 49.6494 40.631 52.7856 38.3555C53.5004 37.8368 54.1697 37.2525 54.7746 36.6187C59.6049 31.5581 60.1234 23.7681 56.0076 18.0954C51.3101 11.6215 42.2215 10.1761 35.7475 14.8734C35.0323 15.3924 34.3631 15.9767 33.7586 16.6102C32.7017 17.7176 31.8513 18.9556 31.2107 20.2735" stroke="#490905" stroke-width="1.27696"/>
<path d="M13.521 28.8687C8.51991 28.8687 4.45117 33.4068 4.45117 38.985C4.45117 44.5632 8.51991 49.1014 13.521 49.1014C18.5221 49.1014 22.5909 44.5632 22.5909 38.985C22.5909 33.4068 18.5221 28.8687 13.521 28.8687Z" stroke="#490905" stroke-width="1.27696"/>
<path d="M34.609 34.4446C34.889 34.7981 35.3289 35.307 35.6659 35.6286C39.2014 39.0029 44.539 39.1692 47.5642 35.9993C50.5893 32.8295 50.1741 27.5056 46.6385 24.1313C43.103 20.7571 37.7654 20.5908 34.7402 23.7606C33.0857 25.4943 32.4485 28.0232 32.7999 30.3742" stroke="#490905" stroke-width="1.27696"/>
<path d="M11.7248 35.3361C11.7248 34.3454 12.5309 33.5396 13.5214 33.5396C14.512 33.5396 15.3181 34.3456 15.3181 35.3361C15.3181 36.3267 14.512 37.1328 13.5214 37.1328C12.5307 37.1328 11.7248 36.3267 11.7248 35.3361ZM13.5214 44.0925C11.7422 44.0925 10.2949 42.645 10.2949 40.8661C10.2949 39.0869 11.7424 37.6394 13.5214 37.6394C15.3005 37.6394 16.748 39.0869 16.748 40.8661C16.748 42.645 15.3005 44.0925 13.5214 44.0925Z" stroke="#490905" stroke-width="1.27696"/>
<path d="M29.2368 25.9957C32.8716 20.0183 31.7102 12.2978 26.4752 7.63798C20.5006 2.31993 11.3133 2.85399 5.99513 8.82856C5.40762 9.48858 4.87909 10.2027 4.42419 10.9509C0.789755 16.9287 0.579237 24.3583 5.81379 29.0178" stroke="#490905" stroke-width="1.27696"/>
<path d="M7.44662 26.6237C4.44226 22.7689 4.80975 17.4414 8.26577 14.7479C11.7218 12.0543 16.9777 12.9991 19.9821 16.8539C21.324 18.5756 21.9932 20.8927 22.015 22.8361" stroke="#490905" stroke-width="1.27696"/>
<path d="M9.96065 21.0381C9.98898 20.5057 10.2247 20.0305 10.6677 19.6126C11.1195 19.1864 11.595 18.9742 12.094 18.9759C12.5975 18.9736 13.0561 19.1917 13.4699 19.6304C13.8133 19.9945 14.0388 20.4532 14.1464 21.0066C14.2542 21.5516 14.1744 22.4636 14.1464 22.9874" stroke="#490905" stroke-width="1.27696"/>
<path d="M36.7188 28.2402L38.1922 26.6061L44.2618 32.0788" stroke="#490905" stroke-width="1.27696" stroke-linecap="round"/>
</g>
<defs>
<clipPath id="clip0_1539_2720">
<rect width="60" height="60" fill="white"/>
</clipPath>
</defs>
</svg>
