<svg width="60" height="60" viewBox="0 0 60 60" fill="none" xmlns="http://www.w3.org/2000/svg">
<g clip-path="url(#clip0_1539_2745)">
<path d="M47.2316 11.9076C46.8248 11.4974 46.3842 11.1192 45.9335 10.7023C45.9504 10.6669 45.979 10.6095 46.0061 10.5521C46.504 9.51562 46.791 8.42684 46.7893 7.27222C46.7876 6.19188 45.7258 5.58757 44.7907 6.11592C43.8859 6.6274 42.9035 6.90086 41.8839 7.06291C41.6206 7.10511 41.4686 7.04603 41.3572 6.7962C41.2694 6.60039 41.1327 6.42314 41.0061 6.2459C39.0598 3.54843 36.4569 2.03257 33.0994 2.0005C30.2466 1.97349 27.8091 3.04202 25.878 5.13855C23.7088 7.49336 22.853 10.2989 23.4033 13.4622C23.9283 16.4737 25.6399 18.6867 28.2463 20.2296C28.4049 20.3224 28.4556 20.4068 28.437 20.5908C28.3003 21.899 27.2368 22.9034 25.9134 22.9152C24.1325 22.9304 22.3533 22.9304 20.5725 22.9152C19.2879 22.9034 18.2497 21.9851 18.0506 20.7123C17.9999 20.3916 18.0067 20.0608 17.9611 19.7383C17.6741 17.7228 15.8578 16.2559 13.8237 16.3859C11.8065 16.5142 10.1708 18.2326 10.1641 20.2599C10.1539 22.9659 10.1523 25.6735 10.1674 28.3811C10.1776 30.0894 10.5 31.7521 11.2275 33.2949C13.6431 38.4181 17.6944 41.097 23.3712 41.2287C25.6872 41.2827 28.0049 41.2439 30.3209 41.2354C32.3836 41.227 34.4464 41.2439 36.5058 41.1747C38.5331 41.1071 40.4997 40.6767 42.3684 39.8681C44.8194 38.808 46.8383 37.2128 48.0503 34.8074C50.2515 30.4371 49.843 26.2525 46.9041 22.3345C45.9819 21.1055 44.8132 20.123 43.6446 19.1404L43.6209 19.1205C43.0233 18.6192 42.4291 18.1077 41.8923 17.5456C41.3589 16.9868 41.4433 16.4095 42.1084 16.0078C42.5439 15.7461 43.0351 15.547 43.5263 15.4119C44.5729 15.1249 45.6549 15.0777 46.7387 15.0692C47.6924 15.0608 48.2933 14.2607 48.0351 13.3424C47.8831 12.8022 47.6266 12.3076 47.2316 11.9076Z" stroke="#490905" stroke-width="1.44" stroke-linecap="round"/>
<path d="M1 49.1537C1.33592 49.1419 1.67184 49.1335 2.00607 49.1014C3.9625 48.9107 5.7248 48.2422 7.23897 46.966C7.91587 46.3955 8.51681 46.3972 9.18527 46.9644C10.6353 48.1949 12.3284 48.8651 14.2004 49.0812C16.4708 49.3428 18.6129 48.9225 20.5761 47.7273C21.0386 47.4454 21.4505 47.0808 21.8995 46.7736C22.3924 46.4343 22.9917 46.4613 23.4373 46.8496C24.7793 48.0228 26.3407 48.7334 28.0912 49.0035C31.0352 49.4576 33.7191 48.8583 36.0537 46.9357C36.6884 46.4124 37.3163 46.4124 37.9426 46.9407C39.4922 48.2506 41.295 48.9343 43.3021 49.1065C45.456 49.2922 47.4749 48.8617 49.3301 47.7409C49.8095 47.4505 50.2365 47.0775 50.699 46.7584C51.1734 46.4326 51.7794 46.4613 52.2132 46.8428C53.5552 48.016 55.1183 48.7115 56.8654 49.0001C57.3837 49.0845 57.912 49.147 58.4353 49.1385" stroke="#490905" stroke-width="1.44" stroke-linecap="round"/>
<path d="M1.26172 56.9999C3.34137 56.9307 5.23703 56.3297 6.91831 55.0823C7.22891 54.8527 7.53951 54.6046 7.88724 54.451C8.29068 54.272 8.70087 54.3986 9.03004 54.6822C10.9679 56.3567 13.2417 57.0674 15.767 56.9881C17.9732 56.9189 19.9651 56.2234 21.6683 54.7801C22.2862 54.2568 22.9276 54.2602 23.5353 54.7767C25.0967 56.1018 26.9181 56.7923 28.9454 56.9577C31.2479 57.1467 33.3799 56.6353 35.3127 55.354C35.6604 55.1245 35.971 54.8409 36.3137 54.6046C36.7745 54.2872 37.3856 54.3092 37.8059 54.6788C39.1614 55.8672 40.7397 56.5863 42.5071 56.8547C45.4291 57.2987 48.1012 56.7011 50.4206 54.7987C51.0806 54.2568 51.695 54.2551 52.3517 54.8071C53.8642 56.0816 55.6265 56.7534 57.5829 56.9459C57.9171 56.9779 58.2531 56.9881 58.589 56.9999" stroke="#490905" stroke-width="1.44" stroke-linecap="round"/>
</g>
<defs>
<clipPath id="clip0_1539_2745">
<rect width="60" height="60" fill="white"/>
</clipPath>
</defs>
</svg>
