<svg width="59" height="59" viewBox="0 0 59 59" fill="none" xmlns="http://www.w3.org/2000/svg">
<g clip-path="url(#clip0_1539_2689)">
<path d="M8.13166 21.9522C7.17357 20.9235 6.56643 19.6265 6.39505 18.2422C4.85818 17.9774 3.46888 17.18 2.47932 15.9947C1.48975 14.8094 0.965519 13.3148 1.00176 11.7821C0.976393 10.4975 1.33995 9.23445 2.04631 8.15316C2.75267 7.07188 3.77 6.22109 4.96925 5.70875C5.38348 4.50412 6.1651 3.45398 7.20792 2.701C8.25074 1.94801 9.50421 1.52869 10.798 1.5C11.7534 1.50577 12.694 1.73294 13.5432 2.16306C14.3925 2.59318 15.1264 3.21411 15.6855 3.97537C16.7841 2.99072 18.2167 2.44355 19.7037 2.44062C20.5679 2.4443 21.4212 2.62989 22.2062 2.98489C22.9912 3.33989 23.6897 3.85606 24.2545 4.49862C24.7824 3.58803 25.5461 2.83095 26.4682 2.30432C27.3903 1.77769 28.4379 1.50028 29.5044 1.50028C30.571 1.50028 31.6186 1.77769 32.5407 2.30432C33.4628 2.83095 34.2265 3.58803 34.7544 4.49862C35.3182 3.85717 36.0152 3.34166 36.7986 2.9867C37.582 2.63174 38.4336 2.44555 39.2963 2.44062C40.7833 2.44355 42.2159 2.99072 43.3145 3.97537C43.8735 3.21411 44.6075 2.59318 45.4567 2.16306C46.306 1.73294 47.2465 1.50577 48.202 1.5C49.4958 1.52869 50.7492 1.94801 51.7921 2.701C52.8349 3.45398 53.6165 4.50412 54.0307 5.70875C55.23 6.22109 56.2473 7.07188 56.9537 8.15316C57.66 9.23445 58.0236 10.4975 57.9982 11.7821C58.0346 13.3141 57.511 14.8082 56.5224 15.9934C55.5337 17.1786 54.1454 17.9765 52.6094 18.2422C52.438 19.6265 51.8309 20.9235 50.8728 21.9522M8.13166 21.9522C8.13166 21.9899 8.12632 22.0257 8.12632 22.0625C8.12632 22.1237 8.12632 22.1544 11.693 56.7125C11.7151 56.9283 11.818 57.1284 11.9817 57.2739C12.1455 57.4194 12.3584 57.5 12.5792 57.5H46.4208C46.6424 57.5011 46.8564 57.421 47.021 57.2754C47.1857 57.1298 47.2892 56.9291 47.3114 56.7125L50.8737 22.15C50.8737 22.1202 50.8781 22.0905 50.8781 22.0625C50.8781 22.0345 50.8737 21.9899 50.8728 21.9522M8.13166 21.9522C8.14413 21.9225 8.35291 20.2253 8.666 19.5066C8.76885 19.2705 8.88572 19.0406 9.016 18.818C9.04093 18.776 9.0632 18.7314 9.08991 18.6885C9.23724 18.4506 9.39965 18.2221 9.57617 18.0042C9.61535 17.9561 9.65543 17.9097 9.6955 17.8625C9.87864 17.6463 10.0756 17.4417 10.2851 17.25L10.2931 17.2447C10.5078 17.0528 10.7351 16.8748 10.9735 16.7119C11.0242 16.6769 11.0741 16.6419 11.1258 16.6077C11.3621 16.4516 11.6084 16.3104 11.8631 16.1851C11.905 16.1641 11.9478 16.1475 11.9896 16.1282C12.2283 16.0178 12.4733 15.9211 12.7234 15.8386C12.7715 15.8237 12.8143 15.8062 12.8606 15.7922C13.1379 15.7085 13.4205 15.6431 13.7066 15.5962C13.7699 15.5857 13.8322 15.5779 13.8963 15.5691C14.1974 15.5253 14.5012 15.5022 14.8056 15.5C15.0472 15.5004 15.2885 15.5133 15.5287 15.5385C15.6107 15.5472 15.6899 15.5647 15.7719 15.5761C15.9259 15.598 16.08 15.619 16.2314 15.6514C16.3276 15.6715 16.4202 15.7004 16.5155 15.7257C16.6482 15.7599 16.7818 15.7922 16.9109 15.8351C17.0106 15.8675 17.1077 15.9077 17.2057 15.9445C17.3241 15.99 17.4443 16.0346 17.5619 16.0862C17.6608 16.1309 17.756 16.1816 17.8522 16.2297C17.9636 16.2866 18.0873 16.3505 18.1826 16.4047C18.2779 16.459 18.3581 16.5132 18.4614 16.5797C18.5647 16.6462 18.6769 16.7197 18.7668 16.7854C18.8568 16.851 18.9343 16.9131 19.0296 16.9901C19.1249 17.0671 19.2273 17.152 19.3101 17.2272C19.3929 17.3025 19.4722 17.3804 19.5514 17.46C19.6013 17.5099 19.6556 17.5545 19.7037 17.6061M50.8728 21.9522C50.8603 21.9207 50.6187 20.1667 50.3331 19.5136C50.2299 19.2777 50.113 19.0478 49.9831 18.825C49.9582 18.783 49.9359 18.7375 49.9101 18.6972C49.7621 18.4588 49.5991 18.2297 49.422 18.0112C49.3837 17.9631 49.3437 17.9176 49.3036 17.8712C49.1206 17.6519 48.9234 17.4444 48.7131 17.25L48.7078 17.2447C48.4926 17.0529 48.265 16.8749 48.0265 16.7119C47.9757 16.6769 47.9259 16.6419 47.8742 16.6077C47.638 16.4511 47.3917 16.3097 47.1368 16.1842C47.095 16.1641 47.0522 16.1475 47.0104 16.1282C46.7716 16.0173 46.5262 15.9206 46.2757 15.8386C46.2302 15.8237 46.1866 15.8062 46.1394 15.7922C45.8621 15.7085 45.5795 15.6431 45.2934 15.5962C45.2301 15.5857 45.1678 15.5779 45.1037 15.5691C44.8026 15.5253 44.4988 15.5022 44.1944 15.5C43.9534 15.5005 43.7126 15.5133 43.473 15.5385C43.3911 15.5472 43.3109 15.5647 43.2299 15.5761C43.0758 15.598 42.9218 15.619 42.7704 15.6514C42.6742 15.6715 42.5807 15.7012 42.4854 15.7257C42.3536 15.7599 42.2182 15.7922 42.0909 15.8351C41.9911 15.8675 41.894 15.9077 41.7961 15.9445C41.6759 15.99 41.5556 16.032 41.4399 16.0862C41.341 16.1309 41.2457 16.1816 41.1495 16.2297C41.0382 16.2857 40.9269 16.3417 40.8191 16.4047C40.7114 16.4677 40.6321 16.5211 40.5395 16.5797C40.4469 16.6384 40.3347 16.7127 40.2349 16.7854C40.1352 16.858 40.0568 16.9201 39.9677 16.9901C39.8787 17.0601 39.7781 17.145 39.6872 17.2272C39.5964 17.3095 39.5251 17.3804 39.4459 17.46C39.396 17.5099 39.3417 17.5545 39.2936 17.6061M19.7037 17.6061L21.5098 57.5M19.7037 17.6061C20.0602 17.2295 20.4604 16.8953 20.8962 16.6104C20.9283 16.592 20.9568 16.5754 20.9853 16.5579C21.1568 16.4488 21.3317 16.3479 21.5098 16.2551C21.573 16.2219 21.638 16.1904 21.7031 16.1589C21.8518 16.0889 22.0023 16.0232 22.1564 15.9637C22.241 15.9305 22.322 15.8981 22.4111 15.8684C22.5544 15.8194 22.7005 15.7782 22.8474 15.7389C22.9409 15.7135 23.0327 15.6864 23.1271 15.6654C23.2847 15.6304 23.4441 15.6059 23.6044 15.5822C23.689 15.57 23.7683 15.5525 23.8573 15.5429C24.3675 15.4837 24.8831 15.4858 25.3927 15.549C25.4764 15.5586 25.5574 15.5744 25.6403 15.5866C25.8157 15.6137 25.9903 15.6452 26.1621 15.6855C26.2583 15.7074 26.3474 15.7319 26.4364 15.7572C26.5994 15.8027 26.7588 15.8544 26.9164 15.9121C27.0028 15.9427 27.0857 15.9734 27.1747 16.0075C27.3484 16.0792 27.5176 16.158 27.6841 16.2455C27.7411 16.2735 27.8035 16.2997 27.8622 16.333C28.0833 16.4547 28.2971 16.5888 28.5026 16.7346C28.556 16.7687 28.6059 16.8169 28.6584 16.8562C28.8089 16.97 28.9567 17.089 29.0975 17.2159C29.1669 17.278 29.2301 17.3427 29.2978 17.4084C29.3655 17.474 29.4368 17.5352 29.5009 17.6035M29.5009 17.6035L29.9043 57.2739M29.5009 17.6035C29.565 17.5352 29.638 17.4731 29.7039 17.4084C29.7698 17.3436 29.8348 17.278 29.9043 17.2159C30.045 17.089 30.192 16.9709 30.3425 16.8571C30.3959 16.8169 30.4458 16.7722 30.5001 16.7337C30.7053 16.5883 30.9188 16.4545 31.1395 16.333C31.1947 16.3024 31.2571 16.2761 31.3176 16.2455C31.4842 16.1597 31.6489 16.0792 31.827 16.0075C31.9125 15.9734 31.9963 15.9427 32.0853 15.9121C32.2429 15.8544 32.4024 15.8027 32.5653 15.7572C32.6562 15.7319 32.7506 15.7074 32.8396 15.6855C33.0115 15.6452 33.1834 15.6137 33.3615 15.5875C33.4443 15.5744 33.5254 15.5586 33.6091 15.549C34.1187 15.4858 34.6343 15.4837 35.1444 15.5429C35.229 15.5525 35.3127 15.57 35.3973 15.5822C35.5576 15.6059 35.7171 15.6312 35.8747 15.6654C35.9691 15.6864 36.0644 15.7135 36.1534 15.7389C36.3013 15.7809 36.4464 15.8194 36.5907 15.8684C36.6762 15.8981 36.7608 15.9305 36.8454 15.9637C36.9995 16.0232 37.15 16.0889 37.2987 16.1589C37.3637 16.1904 37.4287 16.2219 37.492 16.2551C37.6719 16.3479 37.8464 16.4485 38.0174 16.5579C38.045 16.5754 38.0735 16.592 38.1011 16.6104C38.5369 16.8953 38.9371 17.2295 39.2936 17.6061M38.0174 57.5L39.2936 17.6061" stroke="#490905" stroke-width="1.44" stroke-linecap="round"/>
<path d="M12.578 8.5H10.7969" stroke="#490905" stroke-width="1.44" stroke-linecap="round"/>
<path d="M28.6094 10.25H30.3905" stroke="#490905" stroke-width="1.44" stroke-linecap="round"/>
<path d="M21.4843 12H19.7031" stroke="#490905" stroke-width="1.44" stroke-linecap="round"/>
<path d="M48.203 8.5H46.4219" stroke="#490905" stroke-width="1.44" stroke-linecap="round"/>
<path d="M37.5156 13.75H39.2968" stroke="#490905" stroke-width="1.44" stroke-linecap="round"/>
</g>
<defs>
<clipPath id="clip0_1539_2689">
<rect width="59" height="59" fill="white"/>
</clipPath>
</defs>
</svg>
