<svg width="60" height="60" viewBox="0 0 60 60" fill="none" xmlns="http://www.w3.org/2000/svg">
<path d="M18.1875 59H46.875C51.1875 59 54.5625 55.4 54.5625 50.8C54.5625 47.4 52.5 44.2 49.3125 43L22.3125 33C14.0625 30.2 5.625 36.6 5.625 45.6C5.625 53 11.25 59 18.1875 59Z" stroke="#490905" stroke-width="1.44" stroke-miterlimit="10" stroke-linecap="round" stroke-linejoin="round"/>
<path d="M26.25 53C29.3566 53 31.875 50.3137 31.875 47C31.875 43.6863 29.3566 41 26.25 41C23.1434 41 20.625 43.6863 20.625 47C20.625 50.3137 23.1434 53 26.25 53Z" stroke="#490905" stroke-width="1.44" stroke-miterlimit="10" stroke-linecap="round" stroke-linejoin="round"/>
<path d="M22.5 17H16.5C13.125 17 9.9375 15.6 7.5 13" stroke="#490905" stroke-width="1.44" stroke-miterlimit="10" stroke-linecap="round" stroke-linejoin="round"/>
<path d="M16.875 17L25 34.2" stroke="#490905" stroke-width="1.44" stroke-miterlimit="10" stroke-linecap="round" stroke-linejoin="round"/>
<path d="M48.5 6.4668L41.5 39.5335" stroke="#490905" stroke-width="1.44" stroke-miterlimit="10" stroke-linecap="round" stroke-linejoin="round"/>
<path d="M39.375 9.00001C45.1875 9.00001 50.8125 6 54.375 1" stroke="#490905" stroke-width="1.44" stroke-miterlimit="10" stroke-linecap="round" stroke-linejoin="round"/>
<path d="M26.25 47H37.5" stroke="#490905" stroke-width="1.44" stroke-miterlimit="10" stroke-linecap="round" stroke-linejoin="round"/>
</svg>
