<svg width="60" height="60" viewBox="0 0 60 60" fill="none" xmlns="http://www.w3.org/2000/svg">
<g clip-path="url(#clip0_1539_2736)">
<path d="M1.52344 42.9839C2.0759 42.5134 2.60237 42.0114 3.18733 41.5785C8.77048 37.4689 14.3276 33.3154 19.9888 29.2999C21.4512 28.2646 22.0427 27.0976 22.1531 25.4224C22.3871 22.003 22.5236 18.5459 23.2061 15.2017C23.5441 13.5453 24.6425 11.6191 26.0269 10.6655C30.0891 7.8609 34.4439 5.43905 38.7336 2.95446C41.6649 1.25415 44.9017 1.88785 46.6826 4.35989C48.457 6.8131 47.9435 10.0004 45.2527 12.0521C42.4644 14.1728 39.4746 16.0487 36.7187 18.2071C36.0038 18.7655 35.4838 19.9638 35.4708 20.8673C35.4188 25.78 37.0047 30.1406 40.2805 34.0055C42.7114 36.8728 44.7717 40.035 47.0076 43.0843" stroke="#490905" stroke-width="1.44" stroke-linecap="round"/>
<path d="M1 56.4046C5.12 52.4862 10.4414 52.5423 14.4651 56.3422C16.902 58.6446 19.6165 58.445 22.2461 56.3859C27.3918 52.3551 30.3954 52.3427 35.4505 56.3298C38.1707 58.4762 40.7095 58.4699 43.4354 56.2986C48.6265 52.1742 53.1772 52.4425 57.8299 57.3593" stroke="#490905" stroke-width="1.44" stroke-linecap="round"/>
<path d="M1 49.0663C6.56678 44.9487 9.16877 44.8546 14.5882 49.0223C17.1675 50.9995 19.6788 51.0058 22.2297 49.0286C27.6265 44.8546 30.2171 44.8671 35.7839 49.1039C38.2442 50.9744 40.9085 51.1376 43.2271 49.0474C48.4764 44.3148 53.0341 45.3755 57.8299 49.876" stroke="#490905" stroke-width="1.44" stroke-linecap="round"/>
<path d="M59.0006 28.3664C59.0006 33.1604 55.0421 37.0048 50.0819 37.0106C45.1158 37.0164 41.1152 33.1835 41.1152 28.4127C41.1152 23.6188 45.0678 19.7801 50.0339 19.7628C54.9941 19.7454 58.9946 23.584 59.0006 28.3664Z" stroke="#490905" stroke-width="1.32882" stroke-linecap="round"/>
</g>
<defs>
<clipPath id="clip0_1539_2736">
<rect width="60" height="60" fill="white"/>
</clipPath>
</defs>
</svg>
