<svg width="60" height="60" viewBox="0 0 60 60" fill="none" xmlns="http://www.w3.org/2000/svg">
<path d="M12.4473 58.6828C15.0665 51.2041 17.6872 43.7254 20.3079 36.2467C20.3335 36.1713 20.3561 36.0945 20.3998 35.9543M20.3998 35.9543C20.1589 35.8352 19.9211 35.7041 19.6727 35.5971C15.7499 33.9 12.5406 31.3317 10.1984 27.7371C8.36196 24.9156 7.4618 21.7912 7.41815 18.4256C7.4046 17.4113 8.16327 16.6486 9.18084 16.5748C9.37954 16.5612 9.58125 16.5673 9.78145 16.5673C22.9377 16.5673 36.0954 16.5673 49.2516 16.5673C51.0354 16.5673 51.6631 17.3088 51.5728 19.1024C51.3952 22.6051 50.2782 25.7611 48.228 28.5901C46.1146 31.5081 43.3825 33.6784 40.1507 35.2369C39.7367 35.4358 39.3137 35.6197 38.8967 35.8126C38.8621 35.8292 38.8365 35.8608 38.7673 35.9181M20.3998 35.9543C21.5919 36.1125 28.472 35.9543 29.499 35.9543C30.6709 35.9543 37.5766 36.0884 38.7673 35.9181M38.7673 35.9181C39.3724 37.6544 39.9821 39.4088 40.5962 41.1601C42.6479 47.0141 44.7026 52.868 46.7559 58.722M44.4374 52.1129C41.7745 52.1355 34.6488 52.122 31.9845 52.122L28.9855 52.125M28.9855 52.125C28.9855 52.3526 28.9855 52.6223 28.9855 52.8378C28.9855 54.9434 28.9855 56.9459 28.9855 59M28.9855 52.125C28.8019 52.0994 27.3948 52.125 27.2789 52.125C24.5363 52.122 17.4912 52.131 14.7486 52.1129" stroke="#490905" stroke-width="1.44" stroke-linecap="round"/>
<path d="M22.332 13.5466C23.3541 12.4283 23.9096 11.1065 23.9397 9.61886L23.9412 9.61736C23.908 8.33624 23.5904 7.16214 22.7941 6.22617C21.5914 4.81242 21.3927 3.49514 22.6617 2" stroke="#490905" stroke-width="1.44" stroke-linecap="round"/>
<path d="M28.5742 13.5466C29.5963 12.4283 30.1517 11.1065 30.1818 9.61886L30.1834 9.61736C30.1502 8.33624 29.8326 7.16214 29.0363 6.22617C27.8336 4.81242 27.6349 3.49514 28.9039 2" stroke="#490905" stroke-width="1.44" stroke-linecap="round"/>
<path d="M35.7636 13.5466C36.7857 12.4283 37.3412 11.1065 37.3713 9.61886L37.3728 9.61736C37.3397 8.33624 37.0221 7.16214 36.2258 6.22617C35.023 4.81242 34.8243 3.49514 36.0933 2" stroke="#490905" stroke-width="1.44" stroke-linecap="round"/>
</svg>
