<svg width="60" height="60" viewBox="0 0 60 60" fill="none" xmlns="http://www.w3.org/2000/svg">
<path d="M28.952 37.8285H28.948C24.5933 37.8285 20.4935 37.8112 16.3957 37.8372C14.6794 37.848 13.4886 39.0896 13.5125 40.727C13.5364 42.3191 14.6614 43.4915 16.3181 43.5261C18.4944 43.5715 20.6727 43.5412 22.8491 43.5412C24.2508 43.5412 25.6526 43.5412 27.1639 43.5412C27.1639 45.6913 27.1679 47.61 27.1599 49.5287C27.1579 49.7428 27.1301 49.9786 27.0464 50.1668C26.3117 51.8215 25.4993 53.4417 24.8343 55.1289C24.3046 56.4743 24.6391 56.9654 25.9772 56.9805C28.4582 57.0108 30.9391 57 33.4201 56.987C35.1365 56.9783 35.4212 56.5609 34.7283 54.8131C34.0991 53.2275 32.992 51.7739 32.7152 50.1386C32.3628 48.0448 32.6296 45.8276 32.6296 43.5412C33.3245 43.5412 33.8741 43.5412 34.4237 43.5412C37.3088 43.5412 40.196 43.5585 43.0812 43.5347C44.9688 43.5196 46.1615 42.3991 46.1715 40.7054C46.1814 39.0096 44.9648 37.8501 43.1171 37.8307C41.3449 37.8112 39.5728 37.8263 37.8007 37.8263C35.4889 37.8263 31.8626 37.8372 29.4912 37.8372V20.2506M29.4912 20.2506C24.7462 18.5331 18.4446 15.8731 13.6997 14.1513C13.0446 13.9134 12.3119 13.855 11.615 13.8442C8.98266 13.8096 4.63032 13.9112 2 13.8442M29.4912 20.2506C34.6482 18.293 41.0283 15.5097 46.289 14.0388C49.1403 13.2407 54.9655 13.8182 58 13.7923M2 13.8442C10.1454 10.2957 20.3272 5.31829 29.4912 2C41.1998 6.42438 54.9452 12.5079 58 13.7923M2 13.8442L27.2864 13.9869L41.7089 13.7923L52.3998 13.6328L58 13.7923M29.4908 16.9323V13.9572M29.4908 16.9323C28.4395 15.9611 26.8705 15.0531 25.7097 13.978M29.4908 16.9323C30.5939 15.8897 31.8737 15.0252 33.0544 13.9091" stroke="#490905" stroke-width="1.44" stroke-linecap="round"/>
<path d="M21.9766 53.7033C21.5633 52.6949 20.9883 51.7449 20.4152 50.6559L19.5347 49.1149M3.97656 54C4.37724 51.0452 5.99972 49.7058 9.08117 49.7058C12.0512 49.7058 15.0213 49.7041 17.9913 49.7058C18.8664 49.7058 19.7612 49.6166 19.7773 48.5568C19.7935 47.4849 18.9185 47.3975 18.0273 47.4026C15.1489 47.4163 12.2686 47.3803 9.39202 47.4232C8.47746 47.4369 7.99233 47.1694 7.70126 46.2982C6.55133 42.8563 5.30258 39.4453 4.16343 36" stroke="#490905" stroke-width="1.44" stroke-linecap="round"/>
<path d="M36.9766 53.7033C37.3898 52.6949 37.9648 51.7449 38.538 50.6559L39.4184 49.1149M54.9766 54C54.5759 51.0452 52.9534 49.7058 49.872 49.7058C46.9019 49.7058 43.9318 49.7041 40.9618 49.7058C40.0868 49.7058 39.192 49.6166 39.1758 48.5568C39.1596 47.4849 40.0347 47.3975 40.9259 47.4026C43.8043 47.4163 46.6845 47.3803 49.5611 47.4232C50.4757 47.4369 50.9608 47.1694 51.2519 46.2982C52.4018 42.8563 53.6505 39.4453 54.7897 36" stroke="#490905" stroke-width="1.44" stroke-linecap="round"/>
</svg>
