<svg width="60" height="60" viewBox="0 0 60 60" fill="none" xmlns="http://www.w3.org/2000/svg">
<path d="M37.7142 39.0107L40.2858 44.5457C40.2858 44.5457 51.8571 47.0033 51.8571 52.8485C51.8571 56.9999 46.7142 56.9999 46.7142 56.9999H33L26.25 53.2499" stroke="#490905" stroke-width="1.44" stroke-linecap="round" stroke-linejoin="round"/>
<path d="M22.2874 39.0107L19.7159 44.5457C19.7159 44.5457 8.14453 47.0033 8.14453 52.8485C8.14453 56.9999 13.2874 56.9999 13.2874 56.9999H19.5017L26.2517 53.2499L34.5017 47.9999" stroke="#490905" stroke-width="1.44" stroke-linecap="round" stroke-linejoin="round"/>
<path d="M3 41.7783C3 41.7783 9.42858 40.3947 13.2857 39.0108C17.1429 19.6378 28.7142 21.0216 30 21.0216C31.2858 21.0216 42.8571 19.6378 46.7142 39.0108C50.5713 40.3947 57 41.7783 57 41.7783" stroke="#490905" stroke-width="1.44" stroke-linecap="round" stroke-linejoin="round"/>
<path d="M30 15C33.3138 15 36 12.3137 36 9C36 5.68629 33.3138 3 30 3C26.6862 3 24 5.68629 24 9C24 12.3137 26.6862 15 30 15Z" stroke="#490905" stroke-width="1.44" stroke-linecap="round" stroke-linejoin="round"/>
</svg>
