<svg width="24" height="24" viewBox="0 0 24 24" fill="none" xmlns="http://www.w3.org/2000/svg">
<path d="M20.0922 10.1818C20.0922 16.5455 11.9103 22 11.9103 22C11.9103 22 3.72852 16.5455 3.72852 10.1818C3.72852 8.01187 4.59053 5.93079 6.12491 4.3964C7.6593 2.86201 9.74038 2 11.9103 2C14.0803 2 16.1614 2.86201 17.6958 4.3964C19.2301 5.93079 20.0922 8.01187 20.0922 10.1818Z" stroke="white" stroke-width="1.44" stroke-linecap="round" stroke-linejoin="round"/>
<path d="M11.907 12.9086C13.4132 12.9086 14.6342 11.6876 14.6342 10.1814C14.6342 8.67514 13.4132 7.4541 11.907 7.4541C10.4007 7.4541 9.17969 8.67514 9.17969 10.1814C9.17969 11.6876 10.4007 12.9086 11.907 12.9086Z" stroke="white" stroke-width="1.44" stroke-linecap="round" stroke-linejoin="round"/>
</svg>
