<svg width="20" height="20" viewBox="0 0 20 20" fill="none" xmlns="http://www.w3.org/2000/svg">
<path d="M14.1487 18.72C13.864 18.72 13.579 18.6492 13.3251 18.5164L9.71959 16.6389L6.11661 18.5152C5.86145 18.6492 5.57651 18.7187 5.29043 18.7187C4.91929 18.7187 4.56075 18.6041 4.25534 18.3876C3.67157 17.974 3.37386 17.2677 3.47824 16.5461L4.08041 12.3712L1.24258 9.36637C0.755464 8.85094 0.594189 8.10743 0.820995 7.42707C1.03878 6.76861 1.58695 6.28917 2.25061 6.17578L6.22861 5.48635L8.08925 1.74821C8.40626 1.11424 9.03141 0.719971 9.72085 0.719971C10.4103 0.719971 11.0355 1.11427 11.3512 1.74696L13.2118 5.48383L17.1911 6.17326C17.8419 6.28537 18.382 6.75047 18.6075 7.39089L18.6188 7.42707C18.8456 8.10743 18.685 8.85091 18.1979 9.36763L15.36 12.3712L15.9616 16.5461C16.0659 17.269 15.7695 17.974 15.1857 18.3876C14.8777 18.6054 14.5199 18.72 14.1487 18.72Z" stroke="white" stroke-width="1.44"/>
</svg>
