<svg width="16" height="20" viewBox="0 0 16 20" fill="none" xmlns="http://www.w3.org/2000/svg">
<path d="M11.0057 4.71997H14.0914C14.3642 4.71997 14.6258 4.82533 14.8187 5.01286C15.0116 5.2004 15.12 5.45475 15.12 5.71997V17.72C15.12 17.9852 15.0116 18.2395 14.8187 18.4271C14.6258 18.6146 14.3642 18.72 14.0914 18.72H1.74857C1.47578 18.72 1.21416 18.6146 1.02126 18.4271C0.828368 18.2395 0.720001 17.9852 0.720001 17.72V5.71997C0.720001 5.45475 0.828368 5.2004 1.02126 5.01286C1.21416 4.82533 1.47578 4.71997 1.74857 4.71997H4.83429M11.0057 4.71997V3.71997C11.0057 2.92432 10.6806 2.16126 10.1019 1.59865C9.52325 1.03604 8.73838 0.719971 7.92 0.719971C7.10162 0.719971 6.31675 1.03604 5.73807 1.59865C5.15939 2.16126 4.83429 2.92432 4.83429 3.71997V4.71997M11.0057 4.71997H4.83429M11.0057 4.71997V6.56997M4.83429 4.71997V6.56997" stroke="white" stroke-width="1.44"/>
</svg>
