<svg width="14" height="20" viewBox="0 0 14 20" fill="none" xmlns="http://www.w3.org/2000/svg">
<path d="M6.72 14.7201C5.7948 14.6179 3.99004 14.4024 2.99714 13.7131C1.71436 12.8225 0.720001 11.3438 0.720001 9.07712C0.720001 6.83226 1.69147 4.97873 2.87107 3.59102C4.04613 2.20864 5.4556 1.25369 6.42187 0.787847C6.6096 0.697345 6.8304 0.697345 7.01813 0.787847C7.9844 1.25369 9.39387 2.20864 10.5689 3.59102C11.7485 4.97873 12.72 6.83226 12.72 9.07712C12.72 11.3438 11.7256 12.8225 10.4429 13.7131C9.45 14.4024 7.6452 14.6179 6.72 14.7201ZM6.72 14.7201V18.3201M6.72 14.1201V9.92007" stroke="white" stroke-width="1.44" stroke-linecap="round"/>
</svg>
