<svg width="20" height="20" viewBox="0 0 20 20" fill="none" xmlns="http://www.w3.org/2000/svg">
<path d="M11.7207 4.71996C12.8254 4.71996 13.7209 3.82453 13.7209 2.71997C13.7209 1.6154 12.8254 0.719971 11.7207 0.719971C10.6161 0.719971 9.72061 1.6154 9.72061 2.71997C9.72061 3.82453 10.6161 4.71996 11.7207 4.71996Z" stroke="white" stroke-width="1.44" stroke-linecap="round" stroke-linejoin="round"/>
<path d="M15.7198 18.72C17.3768 18.72 18.72 17.3769 18.72 15.72C18.72 14.0631 17.3768 12.72 15.7198 12.72C14.0628 12.72 12.7196 14.0631 12.7196 15.72C12.7196 17.3769 14.0628 18.72 15.7198 18.72Z" stroke="white" stroke-width="1.44" stroke-linecap="round" stroke-linejoin="round"/>
<path d="M3.7202 18.72C5.37715 18.72 6.72039 17.3769 6.72039 15.72C6.72039 14.0631 5.37715 12.72 3.7202 12.72C2.06324 12.72 0.720001 14.0631 0.720001 15.72C0.720001 17.3769 2.06324 18.72 3.7202 18.72Z" stroke="white" stroke-width="1.44" stroke-linecap="round" stroke-linejoin="round"/>
<path d="M9.21988 15.7199L10.72 11.7199L5.83734 9.7199L8.83776 6.21997L11.838 8.72001H15.3382" stroke="white" stroke-width="1.44" stroke-linecap="round" stroke-linejoin="round"/>
</svg>
