<svg width="20" height="20" viewBox="0 0 20 20" fill="none" xmlns="http://www.w3.org/2000/svg">
<path d="M8.4796 18.3821L13.9197 8.83712M8.4796 11.9894L9.70627 15.9913M8.22107 4.21997C6.37522 1.82268 3.56102 0.973823 2.52309 0.912046M2.51865 0.910913C2.31034 0.898464 2.1111 0.99706 1.99064 1.17219M1.9913 1.173C1.20334 2.31834 -0.0480587 5.3458 1.35492 8.33812M1.35694 8.33851C2.01947 9.75155 2.92443 10.5548 3.86798 10.9175M3.86518 10.9173C4.60691 11.2024 4.67574 11.0698 5.27395 10.9174M17.2884 1.14886C17.1454 0.877946 16.8673 0.712401 16.5682 0.720237C14.1967 0.782302 9.24116 2.10679 6.22107 7.21997C5.29246 9.39668 4.52477 14.296 5.67586 15.9913C5.81005 16.4018 5.91943 16.4691 6.11051 16.8176C6.54655 17.2913 7.00762 17.6544 7.42453 17.9025C8.39463 18.4798 10.0068 18.9593 11.7837 18.5908C13.5962 18.2149 15.4812 16.9772 16.983 14.296C19.9715 8.96038 18.4417 3.33449 17.2884 1.14886Z" stroke="white" stroke-width="1.44"/>
</svg>
