<svg width="20" height="20" viewBox="0 0 20 20" fill="none" xmlns="http://www.w3.org/2000/svg">
<path d="M16.7432 11.9721C16.4994 11.8328 16.2207 11.8328 15.9769 12.007C14.688 12.9474 13.1554 13.4699 11.6924 13.4699C10.2294 13.4699 8.90575 12.9474 7.96526 12.007C6.01461 10.0216 6.01461 6.67771 7.96526 3.99567C8.13941 3.78668 8.13941 3.4732 8.0001 3.22936C7.86079 2.98553 7.5821 2.84623 7.30345 2.91588C5.70111 3.26421 4.27296 4.03048 3.12346 5.17993C1.59081 6.74736 0.719971 8.83727 0.719971 11.0317C0.719971 13.2261 1.59081 15.316 3.12346 16.8834C4.69096 18.416 6.78095 19.2868 8.97544 19.2868C11.2048 19.2868 13.2599 18.416 14.7926 16.8486C15.9421 15.6991 16.7432 14.271 17.0567 12.6688C17.0915 12.3901 16.987 12.1114 16.7432 11.9721Z" stroke="white" stroke-width="1.44"/>
<path d="M18.6957 3.77806C18.626 3.53423 18.417 3.32524 18.1383 3.29043L16.1528 2.9421L15.3168 1.09603C15.2123 0.887039 14.9685 0.712891 14.7247 0.712891C14.6898 0.712891 14.6898 0.712891 14.6898 0.712891C14.446 0.712891 14.2022 0.852229 14.0977 1.06122L13.1572 2.83764L11.1368 3.08147C10.893 3.11632 10.684 3.29046 10.5795 3.5343C10.475 3.77813 10.5447 4.05677 10.7188 4.23092L12.1122 5.69386L11.729 7.67927C11.6594 7.9231 11.7639 8.1669 11.9729 8.34108C12.1819 8.48042 12.4605 8.51523 12.7044 8.41073L14.5157 7.53993L16.2922 8.51523C16.3967 8.58488 16.536 8.61973 16.6405 8.61973C17.0237 8.61973 17.3024 8.30624 17.3024 7.9231C17.3024 7.88826 17.3024 7.81861 17.2675 7.74895L16.9889 5.83319L18.4867 4.47475C18.6957 4.30054 18.7653 4.0219 18.6957 3.77806Z" stroke="white" stroke-width="1.44"/>
</svg>
