<svg width="15" height="20" viewBox="0 0 15 20" fill="none" xmlns="http://www.w3.org/2000/svg">
<path d="M7.50211 0C3.35907 0 0 3.35907 0 7.50211C0 9.1335 0.534838 10.6305 1.42384 11.8565C1.43978 11.8858 1.44228 11.9187 1.46041 11.9468L6.46182 19.4489C6.69376 19.7968 7.08449 20.0056 7.50211 20.0056C7.91973 20.0056 8.31046 19.7968 8.5424 19.4489L13.5438 11.9468C13.5622 11.9187 13.5644 11.8858 13.5804 11.8565C14.4694 10.6305 15.0042 9.1335 15.0042 7.50211C15.0042 3.35907 11.6451 0 7.50211 0ZM7.50211 10.0028C6.12109 10.0028 5.00141 8.88312 5.00141 7.50211C5.00141 6.12109 6.12109 5.00141 7.50211 5.00141C8.88312 5.00141 10.0028 6.12109 10.0028 7.50211C10.0028 8.88312 8.88312 10.0028 7.50211 10.0028Z" fill="#490905"/>
</svg>
