<svg width="30" height="32" viewBox="0 0 30 32" fill="none" xmlns="http://www.w3.org/2000/svg">
<g clip-path="url(#clip0_809_6834)">
<path d="M21.1309 16.2578C21.1309 19.6906 18.3841 22.4743 14.9969 22.4743C11.6097 22.4743 8.86296 19.6906 8.86296 16.2578H1.36719V18.2286C1.37873 18.6555 1.71341 18.9947 2.12311 19.0064H4.84675C5.05448 19.7199 5.33146 20.41 5.67769 21.0708L3.75614 23.0474C3.46185 23.3515 3.46185 23.8428 3.75614 24.1469L6.97026 27.4452C7.26455 27.7493 7.7435 27.7493 8.04356 27.4452L9.9651 25.4685C10.6056 25.8253 11.275 26.106 11.9732 26.3224V29.9306C11.9732 30.3108 12.2733 30.6207 12.6426 30.6207H17.357C17.7263 30.6207 18.0264 30.3108 18.0264 29.9306V26.3224C18.7246 26.1118 19.394 25.8253 20.0345 25.4685L21.956 27.4452C22.2503 27.7493 22.7293 27.7493 23.0293 27.4452L26.2434 24.1469C26.5377 23.8428 26.5377 23.3515 26.2434 23.0474L24.3219 21.0708C24.6681 20.4158 24.9451 19.7257 25.1528 19.0064H27.8765C28.2919 19.0064 28.6324 18.6555 28.6324 18.2286V16.2578H21.1366H21.1309Z" stroke="#7A253A" stroke-width="1.5" stroke-linecap="round" stroke-linejoin="round"/>
<path d="M20.1687 1.37891H9.82812V16.2564H20.1687V1.37891Z" stroke="#7A253A" stroke-width="1.5" stroke-linecap="round" stroke-linejoin="round"/>
<path d="M9.82859 16.2573H4.91797V8.04654L9.82859 5.34473V16.2573Z" stroke="#7A253A" stroke-width="1.5" stroke-linecap="round" stroke-linejoin="round"/>
<path d="M20.1484 16.2573H25.0533V8.04654L20.1484 5.34473V16.2573Z" stroke="#7A253A" stroke-width="1.5" stroke-linecap="round" stroke-linejoin="round"/>
</g>
<defs>
<clipPath id="clip0_809_6834">
<rect width="30" height="32" fill="white"/>
</clipPath>
</defs>
</svg>
