<svg width="35" height="34" viewBox="0 0 35 34" fill="none" xmlns="http://www.w3.org/2000/svg">
<g clip-path="url(#clip0_809_6843)">
<path d="M0.5 16.7822H4.23644C5.77498 16.7822 7.02046 18.0168 7.02046 19.5418V30.7519C7.02046 32.277 5.77498 33.5115 4.23644 33.5115H0.5V16.7888V16.7822Z" stroke="#7A253A" stroke-width="1.5" stroke-linecap="round" stroke-linejoin="round"/>
<path d="M7.01953 20.6572C7.01953 20.6572 9.10421 18.2607 12.4011 18.2607C15.6979 18.2607 17.8292 20.8751 17.8292 20.8751H23.6504C24.8426 20.8751 25.8016 21.8324 25.8016 23.0075C25.8016 24.1893 24.8359 25.14 23.6504 25.14H15.3316H24.8226C25.4486 25.14 26.0481 24.8825 26.4677 24.427L31.01 19.5547C31.7826 18.7229 33.0947 18.7031 33.9006 19.5019C34.6266 20.2215 34.6865 21.3637 34.0471 22.1559L28.0528 29.5699C27.0405 30.8176 25.5152 31.5438 23.9035 31.5438H7.01953" stroke="#7A253A" stroke-width="1.5" stroke-linecap="round" stroke-linejoin="round"/>
<path d="M7.42188 11.5466L18.6645 2.81223C19.1174 2.46233 19.7568 2.46233 20.2097 2.81223L31.3791 11.573" stroke="#7A253A" stroke-width="1.5" stroke-linecap="round" stroke-linejoin="round"/>
<path d="M11.0078 8.81348V18.3533" stroke="#7A253A" stroke-width="1.5" stroke-linecap="round" stroke-linejoin="round"/>
<path d="M17.4883 20.5119V15.3294C17.4883 14.9663 17.7813 14.6758 18.1477 14.6758H21.1515C21.5178 14.6758 21.8108 14.9663 21.8108 15.3294V20.8684" stroke="#7A253A" stroke-width="1.5" stroke-linecap="round" stroke-linejoin="round"/>
<path d="M23.5469 5.43997V1.23453C23.5469 0.825214 23.8799 0.495117 24.2928 0.495117H27.4432C27.8561 0.495117 28.1891 0.825214 28.1891 1.23453V22.5456" stroke="#7A253A" stroke-width="1.5" stroke-linecap="round" stroke-linejoin="round"/>
</g>
<defs>
<clipPath id="clip0_809_6843">
<rect width="35" height="34" fill="white"/>
</clipPath>
</defs>
</svg>
