<svg width="33" height="34" viewBox="0 0 33 34" fill="none" xmlns="http://www.w3.org/2000/svg">
<g clip-path="url(#clip0_809_6853)">
<path d="M27.324 10.5195H5.67235C3.35077 10.5195 1.46875 12.3834 1.46875 14.6826V28.3712C1.46875 30.6704 3.35077 32.5343 5.67235 32.5343H27.324C29.6456 32.5343 31.5276 30.6704 31.5276 28.3712V14.6826C31.5276 12.3834 29.6456 10.5195 27.324 10.5195Z" stroke="#7A253A" stroke-width="1.5" stroke-linecap="round" stroke-linejoin="round"/>
<path d="M1.46875 16.9941H31.5276" stroke="#7A253A" stroke-width="1.5" stroke-linecap="round" stroke-linejoin="round"/>
<path d="M20.7086 26.9735C22.1743 26.9735 23.3625 25.7967 23.3625 24.3451C23.3625 22.8935 22.1743 21.7168 20.7086 21.7168C19.2429 21.7168 18.0547 22.8935 18.0547 24.3451C18.0547 25.7967 19.2429 26.9735 20.7086 26.9735Z" stroke="#7A253A" stroke-width="1.5" stroke-linecap="round" stroke-linejoin="round"/>
<path d="M18.0556 24.3447H9.64844V26.824" stroke="#7A253A" stroke-width="1.5" stroke-linecap="round" stroke-linejoin="round"/>
<path d="M10.7891 3.44174C12.3827 2.20524 14.3904 1.46582 16.5737 1.46582C18.7571 1.46582 20.6456 2.16174 22.2204 3.33611" stroke="#7A253A" stroke-width="1.5" stroke-linecap="round" stroke-linejoin="round"/>
<path d="M13.0312 6.56055C13.9975 5.80871 15.2146 5.36133 16.5384 5.36133C17.8623 5.36133 19.0104 5.78385 19.9641 6.4922" stroke="#7A253A" stroke-width="1.5" stroke-linecap="round" stroke-linejoin="round"/>
</g>
<defs>
<clipPath id="clip0_809_6853">
<rect width="33" height="34" fill="white"/>
</clipPath>
</defs>
</svg>
