<svg width="31" height="34" viewBox="0 0 31 34" fill="none" xmlns="http://www.w3.org/2000/svg">
<g clip-path="url(#clip0_1179_296)">
<path d="M7.15502 32.5344L1.41406 26.5508C1.41406 26.5508 3.38137 23.7546 3.73906 21.6047C4.00137 20.0389 5.16387 15.7764 5.77791 13.5706C5.99252 12.8063 6.74368 12.3527 7.48291 12.5391C8.2281 12.7255 8.70502 13.496 8.55002 14.2789L7.70945 18.6657L15.0004 11.0665C15.4952 10.5508 16.2941 10.5508 16.7889 11.0665C17.2837 11.5822 17.2837 12.4148 16.7889 12.9306L11.3877 18.5601L18.2673 11.3896C18.786 10.849 19.6325 10.849 20.1571 11.3896C20.6758 11.9302 20.6758 12.8125 20.1571 13.3593L13.1166 20.6976L18.2912 15.3042C18.7919 14.7822 19.5968 14.7822 20.0975 15.3042C20.5983 15.8261 20.5983 16.6649 20.0975 17.1869L14.9169 22.5865L18.7264 18.616C19.2152 18.1065 20.0021 18.1065 20.491 18.616C20.9739 19.1193 20.9798 19.9271 20.5089 20.4366L14.4758 26.9981C13.516 28.042 12.4489 28.9616 11.2864 29.7508L7.15502 32.5407V32.5344Z" stroke="#7A253A" stroke-width="1.5" stroke-linecap="round" stroke-linejoin="round"/>
<path d="M4.21177 19.4485L2.58427 17.7522C1.61254 16.7394 1.61254 15.099 2.58427 14.0862L13.9708 2.22446C14.9425 1.21164 16.5164 1.21164 17.4881 2.22446L28.8568 14.0738C29.8285 15.0866 29.8285 16.727 28.8568 17.7398L17.4583 29.6202C16.4866 30.633 14.9127 30.633 13.941 29.6202L12.8858 28.5204" stroke="#7A253A" stroke-width="1.5" stroke-linecap="round" stroke-linejoin="round"/>
</g>
<defs>
<clipPath id="clip0_1179_296">
<rect width="31" height="34" fill="white"/>
</clipPath>
</defs>
</svg>
