<svg width="31" height="31" viewBox="0 0 31 31" fill="none" xmlns="http://www.w3.org/2000/svg">
<g clip-path="url(#clip0_809_6885)">
<path d="M12.2363 1.33594H3.68359C2.39133 1.33594 1.34375 2.37335 1.34375 3.65306V12.1227C1.34375 13.4024 2.39133 14.4399 3.68359 14.4399H12.2363C13.5286 14.4399 14.5761 13.4024 14.5761 12.1227V3.65306C14.5761 2.37335 13.5286 1.33594 12.2363 1.33594Z" stroke="#7A253A" stroke-width="1.5" stroke-linecap="round" stroke-linejoin="round"/>
<path d="M27.3261 16.5596H18.7734C17.4812 16.5596 16.4336 17.597 16.4336 18.8767V27.3464C16.4336 28.6261 17.4812 29.6635 18.7734 29.6635H27.3261C28.6184 29.6635 29.666 28.6261 29.666 27.3464V18.8767C29.666 17.597 28.6184 16.5596 27.3261 16.5596Z" stroke="#7A253A" stroke-width="1.5" stroke-linecap="round" stroke-linejoin="round"/>
<path d="M19.5898 3.77832H27.8222C28.8405 3.77832 29.6643 4.59413 29.6643 5.60256V11.4718" stroke="#7A253A" stroke-width="1.5" stroke-linecap="round" stroke-linejoin="round"/>
<path d="M21.9526 1.43848L19.5898 3.77826L21.9526 6.12371" stroke="#7A253A" stroke-width="1.5" stroke-linecap="round" stroke-linejoin="round"/>
<path d="M11.5177 27.3185H3.27962C2.26131 27.3185 1.4375 26.5027 1.4375 25.4943V19.625" stroke="#7A253A" stroke-width="1.5" stroke-linecap="round" stroke-linejoin="round"/>
<path d="M9.14844 29.6637L11.5169 27.3183L9.14844 24.9785" stroke="#7A253A" stroke-width="1.5" stroke-linecap="round" stroke-linejoin="round"/>
</g>
<defs>
<clipPath id="clip0_809_6885">
<rect width="31" height="31" fill="white"/>
</clipPath>
</defs>
</svg>
