<svg width="60" height="60" viewBox="0 0 60 60" fill="none" xmlns="http://www.w3.org/2000/svg">
<path d="M42.571 17.3824H50.2119C51.9211 17.3824 53.4292 18.6894 53.6302 20.4991L57.2496 54.079C57.3502 55.0844 57.0486 56.0898 56.4453 56.7935C55.7416 57.5978 54.8367 58 53.8313 58L23.3681 57.8995H20.4525C20.352 57.8995 20.352 57.8995 20.352 57.8995H6.47764C5.47226 57.8995 4.56741 57.3968 3.86364 56.693C3.15987 55.9892 2.85825 54.9838 2.95879 53.9785L6.98034 20.4991C7.18141 18.6894 8.58895 17.3824 10.3986 17.3824H17.8385M42.571 17.3824V14.3662C42.571 7.52962 37.0414 2 30.2047 2C23.3681 2 17.8385 7.52962 17.8385 14.3662V17.3824M42.571 17.3824H17.8385M38.5997 57.9497L38.4489 35.4794L29.2999 35.3788M30.2047 57.922V43.623V35.3888L21.86 35.3788V57.2962" stroke="#490905" stroke-width="1.44"/>
</svg>
