<svg width="60" height="60" viewBox="0 0 60 60" fill="none" xmlns="http://www.w3.org/2000/svg">
<path d="M44.712 52.1359V34.5425M44.712 34.5425C51.8306 34.5425 57.051 28.3079 57.051 21.2884C57.051 13.9498 51.1015 8.00024 43.7628 8.00024C36.4241 8.00024 30.4746 13.9498 30.4746 21.2884C30.4746 28.3078 36.1695 35.1456 44.712 34.5425ZM44.712 34.5425V27.3766M33.7624 45.5471V42.2014M27.6272 45.5471L27.6508 42.2014M14.3392 41.4579C21.9322 40.746 26.6781 36.3257 26.6781 29.8308C26.6781 23.0166 21.1534 17.4919 14.3392 17.4919C7.52496 17.4919 2 23.0165 2 29.8308C2 36.3257 7.96832 40.9732 14.3392 41.4579ZM14.3392 41.4579V52.1359M14.3392 41.4579V32.2851M2.94912 52.6104H58M44.712 27.3766L48.9831 23.4647M44.712 27.3766L40.4407 23.4647M14.3392 32.2851L18.3729 28.6443M14.3392 32.2851L10.5424 28.6443M37.3206 45.9665H30.4746H23.6712M27.6272 46.2906L27.6508 52.2386M33.7624 46.2906V52.1359" stroke="#490905" stroke-width="1.44" stroke-linecap="round"/>
</svg>
