<svg width="60" height="60" viewBox="0 0 60 60" fill="none" xmlns="http://www.w3.org/2000/svg">
<g clip-path="url(#clip0_1539_1976)">
<path d="M20.2954 1.01898L20.2384 9.62418L20.1808 18.2186M20.1808 18.2186L16.5 18.1838M20.1808 18.2186L20.2384 38.8424L20.1808 59.4092M20.1808 18.2186L39.943 18.2762H45.1366M8.625 59.4092H30.004H51.625" stroke="#490905" stroke-width="1.44" stroke-linecap="round"/>
<path d="M20.625 53.8418H27.9935H36" stroke="#490905" stroke-width="1.44" stroke-linecap="round"/>
<path d="M20.373 48.8418H27.5001H35.0001" stroke="#490905" stroke-width="1.44" stroke-linecap="round"/>
<path d="M34 43.8418H27.0053H20.625" stroke="#490905" stroke-width="1.44" stroke-linecap="round"/>
<path d="M20.625 38.8418H26.4998H33" stroke="#490905" stroke-width="1.44" stroke-linecap="round"/>
<path d="M32 33.8418H20.625" stroke="#490905" stroke-width="1.44" stroke-linecap="round"/>
<path d="M20.625 28.8418H31" stroke="#490905" stroke-width="1.44" stroke-linecap="round"/>
<path d="M30 23.8418H26.4932H20.625" stroke="#490905" stroke-width="1.44" stroke-linecap="round"/>
<path d="M38.2085 54.1458C39.2195 50.538 39.7709 45.7926 39.7709 40.4958C39.7709 37.761 39.6677 36.3018 39.3113 34.3026C38.5529 30.006 36.9671 25.8924 34.3937 21.5148L32.1875 18.1836C32.1875 18.0804 30.6131 16.0463 29.4989 14.7137C28.3847 13.3811 24.9029 9.85375 23.5703 8.69335C21 6.45522 20.2559 6.99977 20.2559 6.99977" stroke="#490905" stroke-width="1.44" stroke-linecap="round"/>
<path d="M36.6914 18.2667L38.5003 21.515C41.0857 26.0078 43.0568 30.7538 43.574 36.3494C43.7462 38.2796 43.643 44.7254 43.3904 47.0576C43.0688 50.1596 42.494 53.1704 41.9312 54.8018" stroke="#490905" stroke-width="1.44" stroke-linecap="round"/>
</g>
<defs>
<clipPath id="clip0_1539_1976">
<rect width="60" height="60" fill="white"/>
</clipPath>
</defs>
</svg>
