<svg width="60" height="60" viewBox="0 0 60 60" fill="none" xmlns="http://www.w3.org/2000/svg">
<g clip-path="url(#clip0_1539_2018)">
<path d="M58.8168 45.9974C58.8168 43.9266 59.045 41.7694 58.7727 39.6802C58.101 34.5516 55.2562 30.91 50.5286 28.9675C45.884 27.059 41.4727 27.7894 37.4116 30.7451" stroke="#490905" stroke-width="1.44" stroke-linecap="round"/>
<path d="M39.4302 50.0004C38.8181 44.8849 34.5522 40.2826 29.6923 40.5129C24.5731 40.7538 20.6572 44.7645 20.4575 50.0004" stroke="#490905" stroke-width="1.44" stroke-linecap="round"/>
<path d="M22.6863 30.8813C18.69 27.8366 14.2866 27.0616 9.61081 28.9073C4.8495 30.787 1.99945 34.4024 1.21109 39.5075C0.920636 41.3872 1.02178 43.3349 1.00103 45.2513" stroke="#490905" stroke-width="1.44" stroke-linecap="round"/>
<path d="M22.4116 18.1254C22.4608 13.7979 18.8821 10.0987 14.5512 10.0019C10.223 9.90501 6.49642 13.578 6.43677 17.9998C6.37712 22.322 9.95848 26.0212 14.2971 26.1207C18.6227 26.2202 22.3623 22.5393 22.4116 18.128V18.1254Z" stroke="#490905" stroke-width="1.44" stroke-linecap="round"/>
<path d="M53.5314 18.1414C53.4822 22.4977 49.8386 26.134 45.5337 26.1236V26.1209C41.2184 26.1079 37.5878 22.4663 37.5592 18.1152C37.5307 13.7196 41.2236 9.97332 45.557 10.0021C49.9371 10.0309 53.5807 13.751 53.5314 18.1414Z" stroke="#490905" stroke-width="1.44" stroke-linecap="round"/>
<path d="M30.0062 27.2806C33.0351 27.2989 35.6284 29.9221 35.6336 32.9773C35.6414 36.0298 33.0585 38.6609 30.0269 38.6897C26.9564 38.7185 24.2879 36.0194 24.3346 32.9302C24.3787 29.8541 26.9824 27.2649 30.0062 27.2806Z" stroke="#490905" stroke-width="1.44" stroke-linecap="round"/>
</g>
<defs>
<clipPath id="clip0_1539_2018">
<rect width="60" height="60" fill="white"/>
</clipPath>
</defs>
</svg>
