<svg width="60" height="60" viewBox="0 0 60 60" fill="none" xmlns="http://www.w3.org/2000/svg">
<path d="M50.8002 52.3264C52.7664 50.6455 54.2672 48.4206 55.1405 45.8917C56.0139 43.3629 56.2267 40.6263 55.7559 37.9773L51.59 14.1475C50.9927 10.7341 49.3021 7.65186 46.8105 5.43373C44.3189 3.21559 41.1829 2.00101 37.9449 2H23.055C19.8169 2.00104 16.681 3.21566 14.1894 5.43381C11.6978 7.65197 10.0073 10.7342 9.41004 14.1476L5.24414 37.9774C4.77334 40.6264 4.98611 43.363 5.85947 45.8919C6.73283 48.4207 8.23361 50.6456 10.1998 52.3265M50.8002 52.3264L55.7559 58M50.8002 52.3264L32.7217 52.3265H20.7068C19.5415 52.3213 11.3273 52.642 10.1998 52.3265M10.1998 52.3265L5.24414 58M7.57607 24.6383C12.5629 29.1494 22.8653 32.383 29.389 32.383C35.9127 32.383 48.4371 29.1494 53.424 24.6383M21.3627 38.6085C20.9719 38.1958 20.476 37.9163 19.9375 37.805C19.399 37.6937 18.8418 37.7556 18.3359 37.983C17.9914 38.1169 17.6785 38.3304 17.4193 38.6084C17.1601 38.8863 16.9611 39.2219 16.8362 39.5915C16.6561 40.0445 16.5835 40.5384 16.6249 41.0289C16.6664 41.5194 16.8206 41.9912 17.0737 42.4022C17.3268 42.8131 17.671 43.1503 18.0754 43.3836C18.4798 43.6169 18.9319 43.739 19.3911 43.739C19.8503 43.739 20.3023 43.6169 20.7068 43.3836C21.1112 43.1503 21.4554 42.8131 21.7085 42.4022C21.9616 41.9912 22.1158 41.5194 22.1572 41.0289C22.1987 40.5384 22.1261 40.0445 21.9459 39.5915C21.8054 39.2304 21.6082 38.8979 21.3627 38.6085ZM43.5809 38.6085C43.0439 38.0769 42.3399 37.7817 41.6091 37.7817C40.8783 37.7817 40.1744 38.0769 39.6374 38.6085C39.3919 38.898 39.1946 39.2306 39.0542 39.5917C38.8374 40.1333 38.7772 40.7322 38.8811 41.311C38.985 41.8897 39.2484 42.4218 39.6372 42.8383C39.9071 43.1016 40.2172 43.3132 40.5539 43.4638C40.8863 43.6211 41.2456 43.7024 41.6089 43.7024C41.9722 43.7024 42.3315 43.6211 42.6639 43.4638C43.0003 43.3125 43.3103 43.101 43.5807 42.8383C43.9694 42.4218 44.2328 41.8898 44.3368 41.3111C44.4408 40.7324 44.3805 40.1336 44.1639 39.592C44.0235 39.2308 43.8263 38.8981 43.5809 38.6085Z" stroke="#490905" stroke-width="1.44" stroke-linecap="round"/>
</svg>
