<svg width="60" height="60" viewBox="0 0 60 60" fill="none" xmlns="http://www.w3.org/2000/svg">
<g clip-path="url(#clip0_1539_1990)">
<path d="M24.6394 51.3819C17.0001 49.4565 10.9157 43.517 8.78125 35.9573" stroke="#490905" stroke-width="1.44"/>
<path d="M8.95703 23.4466C11.2356 16.1739 17.2009 10.4947 24.6393 8.61987" stroke="#490905" stroke-width="1.44"/>
<path d="M37.7451 9.36719C44.4475 11.8979 49.6144 17.6096 51.384 24.6386" stroke="#490905" stroke-width="1.44"/>
<path d="M51.5257 34.7659C49.7656 42.6884 43.7148 49.0373 35.959 51.2268" stroke="#490905" stroke-width="1.44"/>
<path d="M31.0528 14.8249C27.5262 14.8261 24.6427 11.9449 24.6392 8.41712C24.6357 4.88467 27.525 1.9965 31.0575 2C34.5864 2.00351 37.4664 4.88701 37.464 8.41478C37.4629 11.9426 34.5806 14.8237 31.0528 14.8249Z" stroke="#490905" stroke-width="1.44"/>
<path d="M52.4901 34.8495C50.6052 34.8495 48.7202 34.8495 46.8365 34.8495C46.384 34.8495 46.0519 34.5221 46.0882 34.0977C46.0998 33.9655 46.1548 33.8287 46.2215 33.7118C47.1066 32.1519 47.9988 30.5956 48.8875 29.0381C49.8603 27.3344 50.832 25.6307 51.8084 23.9282C51.8762 23.8101 51.9569 23.6885 52.0609 23.6044C52.4059 23.3237 52.8911 23.429 53.1262 23.8324C53.4676 24.417 53.7997 25.0075 54.1353 25.5957C55.6776 28.2944 57.2199 30.9932 58.7634 33.6919C58.8616 33.8638 58.9306 34.0392 58.9002 34.2403C58.8441 34.6028 58.5564 34.8483 58.174 34.8495C57.5263 34.853 56.8785 34.8495 56.2295 34.8495C54.983 34.8495 53.7365 34.8495 52.4901 34.8495Z" stroke="#490905" stroke-width="1.44"/>
<path d="M8.40665 36.2728C8.20787 36.2763 8.04768 36.184 7.89567 36.067C6.40013 34.9211 4.90343 33.7787 3.40673 32.634C3.04892 32.3604 2.69111 32.0879 2.33448 31.8143C2.02227 31.5746 1.93458 31.3138 2.04917 30.942C2.76244 28.6256 3.47688 26.3104 4.1925 23.9952C4.30475 23.6304 4.55849 23.4468 4.94319 23.4468C7.25372 23.4468 9.56309 23.4468 11.8736 23.4468C12.2689 23.4468 12.5167 23.6268 12.6325 24.0022C13.3423 26.2987 14.052 28.5952 14.7606 30.8917C14.8928 31.3197 14.8156 31.5664 14.4601 31.8388C12.6103 33.2537 10.7593 34.6662 8.90945 36.0811C8.75978 36.1957 8.60076 36.2763 8.40782 36.2728H8.40665Z" stroke="#490905" stroke-width="1.44"/>
<path d="M36.0403 52.2998C36.0403 53.9227 36.0403 55.5457 36.0403 57.1676C36.0403 57.7253 35.769 58.0001 35.216 58.0001C31.9606 58.0001 28.7053 58.0001 25.45 58.0001C24.9238 58.0001 24.6396 57.7195 24.6396 57.198C24.6396 53.9333 24.6396 50.6674 24.6396 47.4027C24.6396 46.8812 24.9238 46.6006 25.45 46.6006C28.71 46.6006 31.97 46.6006 35.2312 46.6006C35.7644 46.6006 36.0415 46.88 36.0415 47.4179C36.0415 49.0456 36.0415 50.6733 36.0415 52.3009L36.0403 52.2998Z" stroke="#490905" stroke-width="1.44"/>
<path d="M36.2298 39.3988C35.856 35.1567 33.25 31.34 30.2813 31.531C27.1542 31.7308 24.7621 35.0568 24.6401 39.3988" stroke="#490905" stroke-width="1.44"/>
<path d="M30.6418 20C32.7863 20.0129 34.6223 21.8522 34.626 23.9944C34.6315 26.1348 32.8028 27.9796 30.6565 27.9998C28.4826 28.02 26.5934 26.1275 26.6264 23.9614C26.6576 21.8045 28.501 19.989 30.6418 20Z" stroke="#490905" stroke-width="1.44"/>
</g>
<defs>
<clipPath id="clip0_1539_1990">
<rect width="60" height="60" fill="white"/>
</clipPath>
</defs>
</svg>
