<svg width="60" height="60" viewBox="0 0 60 60" fill="none" xmlns="http://www.w3.org/2000/svg">
<path d="M9 11.5V42.5333C9 46.0803 9 47.854 9.66954 49.2087C10.2585 50.4003 11.1982 51.3693 12.3541 51.9763C13.6681 52.6667 15.3882 52.6667 18.8286 52.6667H42.1714C45.6117 52.6667 47.332 52.6667 48.646 51.9763C49.8018 51.3693 50.7416 50.4003 51.3304 49.2087C52 47.854 52 46.0803 52 42.5333V11.5M9 11.5C9 11.5 9 2 30.5 2C52 2 52 11.5 52 11.5M9 11.5H52M9 33.6667H52M45.8571 59V52.6667M15.1429 59V52.6667M18.2143 43.1667H18.245M42.7857 43.1667H42.8164" stroke="#490905" stroke-width="1.44" stroke-linecap="round" stroke-linejoin="round"/>
</svg>
