<svg width="60" height="60" viewBox="0 0 60 60" fill="none" xmlns="http://www.w3.org/2000/svg">
<path d="M50.5 27C51.4849 27 52.4602 26.806 53.3701 26.4291C54.2801 26.0522 55.1069 25.4997 55.8033 24.8033C56.4997 24.1069 57.0522 23.2801 57.4291 22.3701C57.806 21.4602 58 20.4849 58 19.5C58 18.5151 57.806 17.5398 57.4291 16.6299C57.0522 15.7199 56.4997 14.8931 55.8033 14.1967C55.1069 13.5003 54.2801 12.9478 53.3701 12.5709C52.4602 12.194 51.4849 12 50.5 12C48.5109 12 46.6032 12.7902 45.1967 14.1967C43.7902 15.6032 43 17.5109 43 19.5C43 21.4891 43.7902 23.3968 45.1967 24.8033C46.6032 26.2098 48.5109 27 50.5 27Z" stroke="#490905" stroke-width="1.42154" stroke-linecap="round"/>
<path d="M11.7888 12.2466H2V27.1874H11.7888M11.632 20.3778H2.80402M25.0794 27.1874L20.3082 19.5938M20.3082 19.5938L15.537 27.1874M20.3082 19.5938L15.873 12.2466M20.3082 19.5938L24.721 12.2466M29.3655 27.1874V12.2466H35.3687C38.3703 12.2466 40.0503 14.3074 40.0503 16.749C40.0503 19.1906 38.3255 21.2514 35.3687 21.2514H29.3655" stroke="#490905" stroke-width="1.4" stroke-linecap="round"/>
<path d="M21.8229 47.8249C18.0213 47.8262 14.913 44.7203 14.9092 40.9175C14.9054 37.1096 18.02 33.9962 21.8279 34C25.632 34.0038 28.7366 37.1121 28.7341 40.915C28.7328 44.7178 25.6257 47.8236 21.8229 47.8249Z" stroke="#490905" stroke-width="1.44" stroke-linecap="round"/>
<path d="M48.5573 47.8249C44.7557 47.8262 41.6473 44.7203 41.6436 40.9175C41.6398 37.1096 44.7544 33.9962 48.5623 34C52.3664 34.0038 55.471 37.1121 55.4684 40.915C55.4672 44.7178 52.3601 47.8236 48.5573 47.8249Z" stroke="#490905" stroke-width="1.44" stroke-linecap="round"/>
<path d="M4.25455 37.8182C4.25455 35.7131 5.96764 34 8.07273 34C10.1778 34 11.8909 35.7131 11.8909 37.8182C11.8909 40.6029 10.6869 41.672 8.33618 42.806C6.20436 43.8344 4 44.8971 4 47.3636V48H12.9091" stroke="#490905" stroke-width="1.44" stroke-linecap="round"/>
<path d="M30.9889 37.8182C30.9889 35.7131 32.702 34 34.8071 34C36.9122 34 38.6253 35.7131 38.6253 37.8182C38.6253 40.6029 37.4213 41.672 35.0706 42.806C32.9387 43.8344 30.7344 44.8971 30.7344 47.3636V48H39.6435" stroke="#490905" stroke-width="1.44" stroke-linecap="round"/>
</svg>
