<svg width="60" height="60" viewBox="0 0 60 60" fill="none" xmlns="http://www.w3.org/2000/svg">
<path d="M30.0002 33.5751C31.0245 33.5751 32.0388 33.3733 32.9851 32.9814C33.9315 32.5894 34.7913 32.0148 35.5156 31.2905C36.2399 30.5662 36.8145 29.7064 37.2065 28.76C37.5984 27.8137 37.8002 26.7994 37.8002 25.7751C37.8002 24.7508 37.5984 23.7365 37.2065 22.7902C36.8145 21.8438 36.2399 20.984 35.5156 20.2597C34.7913 19.5354 33.9315 18.9608 32.9851 18.5688C32.0388 18.1769 31.0245 17.9751 30.0002 17.9751C27.9315 17.9751 25.9475 18.7969 24.4848 20.2597C23.022 21.7224 22.2002 23.7064 22.2002 25.7751C22.2002 27.8438 23.022 29.8277 24.4848 31.2905C25.9475 32.7533 27.9315 33.5751 30.0002 33.5751Z" stroke="#490905" stroke-width="1.44"/>
<path d="M9.04976 21.225C13.9748 -0.424994 46.0498 -0.399994 50.9498 21.25C53.8248 33.95 45.9248 44.7 38.9998 51.35C36.5799 53.6838 33.3491 54.988 29.9873 54.988C26.6254 54.988 23.3946 53.6838 20.9748 51.35C14.0748 44.7 6.17476 33.925 9.04976 21.225Z" stroke="#490905" stroke-width="1.44"/>
</svg>
