<svg width="60" height="60" viewBox="0 0 60 60" fill="none" xmlns="http://www.w3.org/2000/svg">
<path d="M26.2249 5.5749L13.7499 10.2749C10.8749 11.3499 8.5249 14.7499 8.5249 17.7999V36.3749C8.5249 39.3249 10.4749 43.1999 12.8499 44.9749L23.5999 52.9999C27.1249 55.6499 32.9249 55.6499 36.4499 52.9999L47.1999 44.9749C49.5749 43.1999 51.5249 39.3249 51.5249 36.3749V17.7999C51.5249 14.7249 49.1749 11.3249 46.2999 10.2499L33.8249 5.5749C31.6999 4.7999 28.2999 4.7999 26.2249 5.5749Z" stroke="#490905" stroke-width="1.44" stroke-linejoin="round"/>
<path d="M30 31.25C31.3261 31.25 32.5979 30.7232 33.5355 29.7855C34.4732 28.8479 35 27.5761 35 26.25C35 24.9239 34.4732 23.6521 33.5355 22.7145C32.5979 21.7768 31.3261 21.25 30 21.25C28.6739 21.25 27.4021 21.7768 26.4645 22.7145C25.5268 23.6521 25 24.9239 25 26.25C25 27.5761 25.5268 28.8479 26.4645 29.7855C27.4021 30.7232 28.6739 31.25 30 31.25ZM30 31.25V38.75" stroke="#490905" stroke-width="1.44" stroke-miterlimit="10" stroke-linecap="round" stroke-linejoin="round"/>
</svg>
