<svg width="34" height="34" viewBox="0 0 34 34" fill="none" xmlns="http://www.w3.org/2000/svg">
<path d="M25.899 1.89031C27.4594 0.329858 29.9895 0.329858 31.5499 1.89031C33.1103 3.45076 33.1103 5.98073 31.5499 7.54118L26.8408 12.2502L30.3506 26.257C30.5105 26.8952 30.3257 27.5707 29.8633 28.0388L29.4074 28.5001C28.5689 29.349 27.1622 29.214 26.5003 28.2211L20.2481 18.8429L12.7137 26.3774V30.3063C12.7137 30.8058 12.5152 31.285 12.162 31.6382L11.632 32.168C10.7538 33.0464 9.28088 32.849 8.66467 31.7708L6.12097 27.3192L1.6695 24.7756C0.591123 24.1593 0.39387 22.6865 1.27211 21.8081L1.80203 21.2783C2.15526 20.9251 2.63438 20.7265 3.13394 20.7265H7.06278L14.5973 13.192L5.21918 6.93998C4.22629 6.27806 4.09131 4.87139 4.94024 4.03272L5.40173 3.57681C5.86977 3.11442 6.54516 2.92975 7.18335 3.08967L21.19 6.59937L25.899 1.89031Z" stroke="#490905" stroke-width="1.44"/>
</svg>
