<svg width="36" height="34" viewBox="0 0 36 34" fill="none" xmlns="http://www.w3.org/2000/svg">
<path fill-rule="evenodd" clip-rule="evenodd" d="M0.75783 11.3219L1.68091 23.6296C2.00005 28.6967 6.17216 32.6605 11.2489 32.7201H24.6693C29.7469 32.6618 33.9205 28.6977 34.2397 23.6296L35.1628 11.3219C35.4006 8.62232 34.5036 5.94559 32.6875 3.93417C30.8711 1.92275 28.2995 0.758222 25.5899 0.720093H10.3283C7.61893 0.758911 5.048 1.92374 3.23232 3.93506C1.41666 5.94641 0.520119 8.62274 0.75783 11.3219Z" stroke="#490905" stroke-width="1.44" stroke-linecap="round" stroke-linejoin="round"/>
<path d="M25.3439 10.5663C25.3439 13.2046 23.9364 15.6425 21.6516 16.9616C19.3668 18.2807 16.5518 18.2807 14.267 16.9616C11.9822 15.6425 10.5747 13.2046 10.5747 10.5663" stroke="#490905" stroke-width="1.44" stroke-linecap="round" stroke-linejoin="round"/>
</svg>
