<svg width="33" height="34" viewBox="0 0 33 34" fill="none" xmlns="http://www.w3.org/2000/svg">
<path d="M28.6712 29.3561C29.8711 28.3996 30.787 27.1336 31.32 25.6947C31.853 24.2558 31.9829 22.6986 31.6956 21.1913L29.1532 7.63197C28.7887 5.68974 27.757 3.93592 26.2364 2.67379C24.7158 1.41165 22.802 0.720546 20.8258 0.719971H11.7389C9.76272 0.720565 7.8489 1.41169 6.32834 2.67384C4.80777 3.93598 3.77606 5.6898 3.41158 7.63204L0.869207 21.1914C0.58189 22.6987 0.711737 24.2559 1.24473 25.6948C1.77773 27.1337 2.69362 28.3997 3.89355 29.3561M28.6712 29.3561L11.191 29.3561C10.4798 29.3532 4.58163 29.5357 3.89355 29.3561M28.6712 29.3561L32.1467 32.72M3.89355 29.3561L0.869207 32.72M2.44488 12.7878C5.48826 15.3546 12.301 17.6691 16.2823 17.6691C20.2636 17.6691 27.0765 15.3546 30.1199 12.7878M10.7061 21.5505C10.4676 21.3157 10.165 21.1566 9.83629 21.0933C9.50763 21.0299 9.16758 21.0652 8.85889 21.1946C8.64861 21.2708 8.45764 21.3922 8.29948 21.5504C8.14132 21.7086 8.01985 21.8995 7.94363 22.1098C7.8337 22.3676 7.7894 22.6486 7.81469 22.9277C7.83998 23.2068 7.93407 23.4753 8.08856 23.7091C8.24304 23.9429 8.45308 24.1348 8.69989 24.2676C8.9467 24.4003 9.22258 24.4698 9.50282 24.4698C9.78307 24.4698 10.0589 24.4003 10.3058 24.2676C10.5526 24.1348 10.7626 23.9429 10.9171 23.7091C11.0716 23.4753 11.1657 23.2068 11.191 22.9277C11.2162 22.6486 11.1719 22.3676 11.062 22.1098C10.9763 21.9044 10.8559 21.7152 10.7061 21.5505ZM24.2654 21.5505C23.9377 21.248 23.5081 21.08 23.0621 21.08C22.6161 21.08 22.1865 21.248 21.8588 21.5505C21.709 21.7152 21.5886 21.9045 21.5028 22.1099C21.3706 22.4181 21.3338 22.7589 21.3972 23.0882C21.4606 23.4175 21.6214 23.7203 21.8586 23.9573C22.0234 24.1071 22.2126 24.2275 22.4181 24.3132C22.6209 24.4027 22.8402 24.4489 23.0619 24.4489C23.2837 24.4489 23.503 24.4027 23.7058 24.3132C23.9111 24.2271 24.1003 24.1067 24.2653 23.9573C24.5025 23.7203 24.6633 23.4176 24.7267 23.0883C24.7902 22.759 24.7534 22.4183 24.6212 22.1101C24.5355 21.9046 24.4152 21.7153 24.2654 21.5505Z" stroke="#490905" stroke-width="1.44" stroke-linecap="round"/>
</svg>
