<svg width="40" height="34" viewBox="0 0 40 34" fill="none" xmlns="http://www.w3.org/2000/svg">
<path d="M36.1085 32.72H3.40929C2.6961 32.72 2.01213 32.4367 1.50783 31.9324C1.00353 31.4281 0.720215 30.7441 0.720215 30.0309V8.78722C0.720215 8.07403 1.00353 7.39006 1.50783 6.88576C2.01213 6.38146 2.6961 6.09814 3.40929 6.09814H36.1085C36.8216 6.09814 37.5056 6.38146 38.0099 6.88576C38.5142 7.39006 38.7975 8.07403 38.7975 8.78722V30.0309C38.7975 30.7441 38.5142 31.4281 38.0099 31.9324C37.5056 32.4367 36.8216 32.72 36.1085 32.72Z" stroke="#490905" stroke-width="1.44"/>
<path d="M14.8804 17.9301H3.40929C2.6961 17.9301 2.01213 17.6468 1.50783 17.1425C1.00353 16.6382 0.720215 15.9542 0.720215 15.241V8.78722C0.720215 8.07403 1.00353 7.39006 1.50783 6.88576C2.01213 6.38146 2.6961 6.09814 3.40929 6.09814H36.1085C36.8216 6.09814 37.5056 6.38146 38.0099 6.88576C38.5142 7.39006 38.7975 8.07403 38.7975 8.78722V15.241C38.7975 15.9542 38.5142 16.6382 38.0099 17.1425C37.5056 17.6468 36.8216 17.9301 36.1085 17.9301H25.8095" stroke="#490905" stroke-width="1.44"/>
<path d="M11.6919 6.09812H27.8263V2.58738C27.8263 2.09212 27.6751 1.61713 27.4059 1.26692C27.1367 0.916715 26.7716 0.719971 26.3909 0.719971H13.1273C12.7466 0.719971 12.3815 0.916715 12.1123 1.26692C11.8431 1.61713 11.6919 2.09212 11.6919 2.58738V6.09812Z" stroke="#490905" stroke-width="1.44"/>
<path d="M22.1256 22.2057H18.4147C17.7015 22.2057 17.0175 21.9224 16.5132 21.4181C16.0089 20.9138 15.7256 20.2298 15.7256 19.5167V16.5856C15.7256 15.8724 16.0089 15.1884 16.5132 14.6841C17.0175 14.1798 17.7015 13.8965 18.4147 13.8965H22.1256C22.8388 13.8965 23.5228 14.1798 24.0271 14.6841C24.5314 15.1884 24.8147 15.8724 24.8147 16.5856V19.5167C24.8147 20.2298 24.5314 20.9138 24.0271 21.4181C23.5228 21.9224 22.8388 22.2057 22.1256 22.2057Z" stroke="#490905" stroke-width="1.44"/>
</svg>
