<svg width="63" height="28" viewBox="0 0 63 28" fill="none" xmlns="http://www.w3.org/2000/svg">
<path d="M22.8672 28L62.3672 16.5V23C62.3672 25.7614 60.1286 28 57.3672 28H22.8672Z" fill="#FD6020"/>
<path fill-rule="evenodd" clip-rule="evenodd" d="M23.252 0.221611C24.0125 0.221611 24.8822 0.328905 25.5342 0.75872V2.90716C24.9909 2.26245 24.1212 1.83294 23.252 1.83294C21.5135 1.94045 20.1013 3.44477 20.21 5.16399V5.37884C20.21 7.09798 21.622 8.38744 23.3604 8.38763C24.2296 8.38763 24.9909 7.95813 25.5342 7.31341V9.46185C24.7736 9.78419 24.0127 9.99991 23.1436 9.99993C20.4272 9.99993 18.2539 7.74292 18.2539 5.05657C18.2539 2.2628 20.4269 0.00674883 23.252 0.221611ZM40.3105 6.66888L42.918 0.221611H44.874L40.8535 9.99993H39.876L35.8555 0.221611H37.8115L40.3105 6.66888ZM14.5596 0.00676697C15.5374 0.00676697 16.5158 0.436291 17.2764 1.08099L16.2988 2.37102C15.8643 1.94126 15.3206 1.61817 14.7773 1.6181C14.1254 1.51064 13.5823 2.04857 13.4736 2.69329C13.4737 3.23038 13.7994 3.4452 14.8857 3.87493C17.0589 4.73456 17.6023 5.37943 17.7109 6.66888V6.99114C17.6023 8.7104 16.1897 9.99996 14.4512 9.89251C13.1473 9.8925 11.8433 9.24735 11.1914 8.06536L12.3867 6.88372C12.7127 7.6359 13.4735 8.17278 14.3428 8.17278H14.4512C15.1031 8.17278 15.7549 7.52848 15.7549 6.7763C15.7549 6.34658 15.5378 6.02441 15.2119 5.8095C14.7774 5.59465 14.3427 5.37988 13.9082 5.27239C12.1698 4.73515 11.626 3.9826 11.626 2.69329V2.58587C11.7346 1.08161 13.0385 -0.100524 14.5596 0.00676697ZM3.25977 0.221611C5.86729 0.329107 7.93161 2.47793 7.82324 5.05657C7.82324 6.45347 7.17151 7.74378 6.08496 8.71087C5.10718 9.46294 3.91186 9.8924 2.7168 9.78509H0V0.221611H3.25977ZM10.4287 9.78509H8.58203V0.221611H10.4287V9.78509ZM50.958 1.83294H47.5889V3.98235H50.8486V5.59466H47.5889V8.17278H50.958V9.78509H45.7422V0.221611H50.958V1.83294ZM54.873 0.221611C57.0459 0.221731 58.2412 1.18895 58.2412 3.01556C58.3498 4.41239 57.3712 5.5946 56.0674 5.8095L59.002 9.78509H56.7197L54.2207 5.91692H54.0029V9.78509H52.1562V0.221611H54.873ZM4.88965 2.58489C4.23772 2.04781 3.2597 1.72551 2.39062 1.83294H1.84766V8.17278H2.39062C3.25973 8.28022 4.23771 7.95794 4.88965 7.42083C5.54157 6.77611 5.86816 5.91623 5.86816 4.94915C5.86815 4.08954 5.54157 3.2296 4.88965 2.58489ZM54.0039 4.62688H54.5469C55.7421 4.62688 56.2861 4.08909 56.2861 3.122C56.286 2.26261 55.7419 1.72552 54.5469 1.72552H54.0039V4.62688Z" fill="black"/>
<path fill-rule="evenodd" clip-rule="evenodd" d="M31.0763 0C28.3599 0 26.0781 2.14908 26.0781 4.94288C26.0781 7.62923 28.2512 9.88576 31.0763 9.99321C33.9013 10.1007 36.0744 7.84413 36.1831 5.05033C36.0744 2.25653 33.9013 0 31.0763 0V0Z" fill="#FD6020"/>
</svg>
