<svg width="45" height="28" viewBox="0 0 45 28" fill="none" xmlns="http://www.w3.org/2000/svg">
<path d="M13.6475 0C21.1847 0 27.2948 6.18098 27.2949 13.8057C27.2949 21.4305 21.1848 27.6123 13.6475 27.6123C6.11017 27.6123 0 21.4305 0 13.8057C0.000163543 6.18101 6.11027 4.37972e-05 13.6475 0Z" fill="#ED0006"/>
<path d="M31.3506 0C38.8878 0 44.9979 6.18098 44.998 13.8057C44.998 21.4305 38.8879 27.6123 31.3506 27.6123C23.8133 27.6123 17.7031 21.4305 17.7031 13.8057C17.7033 6.18101 23.8134 4.37972e-05 31.3506 0Z" fill="#0099DF"/>
<path d="M22.499 3.29724C25.434 5.82952 27.2949 9.59794 27.2949 13.806C27.2949 18.0139 25.4337 21.7816 22.499 24.3138C19.5644 21.7816 17.7032 18.0138 17.7031 13.806C17.7031 9.59799 19.5641 5.82952 22.499 3.29724Z" fill="#6C6BBD"/>
</svg>
