<svg width="45" height="28" viewBox="0 0 45 28" fill="none" xmlns="http://www.w3.org/2000/svg">
<path d="M31.3506 0C38.8878 0 44.9979 6.18098 44.998 13.8057C44.998 21.4305 38.8879 27.6123 31.3506 27.6123C27.9728 27.6123 24.8821 26.3699 22.499 24.3135C20.1159 26.3699 17.0253 27.6123 13.6475 27.6123C6.11017 27.6123 0 21.4305 0 13.8057C0.000163543 6.18101 6.11027 4.37972e-05 13.6475 0C17.0249 0 20.116 1.24091 22.499 3.29688C24.882 1.24088 27.9731 1.96257e-05 31.3506 0Z" fill="#ED0006"/>
<path d="M31.3516 0C38.8888 0 44.9989 6.18098 44.999 13.8057C44.999 21.4305 38.8889 27.6123 31.3516 27.6123C27.9735 27.6123 24.8832 26.3691 22.5 24.3125C25.4343 21.7802 27.2959 18.0132 27.2959 13.8057C27.2958 9.59786 25.4347 5.83006 22.5 3.29785C24.8831 1.24161 27.9739 0 31.3516 0Z" fill="#F9A000"/>
<path d="M22.499 3.29724C25.434 5.82952 27.2949 9.59794 27.2949 13.806C27.2949 18.0139 25.4337 21.7816 22.499 24.3138C19.5644 21.7816 17.7032 18.0138 17.7031 13.806C17.7031 9.59799 19.5641 5.82952 22.499 3.29724Z" fill="#FF5E00"/>
</svg>
