<svg width="30" height="30" viewBox="0 0 30 30" fill="none" xmlns="http://www.w3.org/2000/svg">
<path d="M20.648 6.75H25.3539C25.6659 6.75 25.9651 6.8817 26.1857 7.11612C26.4064 7.35054 26.5303 7.66848 26.5303 8V26.75C26.5303 27.0815 26.4064 27.3995 26.1857 27.6339C25.9651 27.8683 25.6659 28 25.3539 28H4.17739C3.86537 28 3.56613 27.8683 3.3455 27.6339C3.12486 27.3995 3.00092 27.0815 3.00092 26.75V8C3.00092 7.66848 3.12486 7.35054 3.3455 7.11612C3.56613 6.8817 3.86537 6.75 4.17739 6.75L8.88327 6.75M20.648 6.75V3M20.648 6.75L8.88327 6.75M8.88327 6.75V3M26.5303 13H3.00092" stroke="#490905" stroke-width="1.44" stroke-linecap="round"/>
</svg>
