<svg width="32" height="32" viewBox="0 0 32 32" fill="none" xmlns="http://www.w3.org/2000/svg">
<path d="M29.2946 24.4413C29.2946 24.9213 29.188 25.4146 28.9613 25.8946C28.7346 26.3746 28.4413 26.828 28.0546 27.2546C27.4013 27.9746 26.6813 28.4946 25.868 28.828C25.068 29.1613 24.2013 29.3346 23.268 29.3346C21.908 29.3346 20.4546 29.0146 18.9213 28.3613C17.388 27.708 15.8546 26.828 14.3346 25.7213C12.7854 24.5881 11.3236 23.3401 9.9613 21.988C8.61299 20.6306 7.36943 19.1731 6.2413 17.628C5.14797 16.108 4.26797 14.588 3.62797 13.0813C2.98797 11.5613 2.66797 10.108 2.66797 8.7213C2.66797 7.81464 2.82797 6.94797 3.14797 6.14797C3.46797 5.33464 3.97464 4.58797 4.6813 3.9213C5.53464 3.0813 6.46797 2.66797 7.45464 2.66797C7.82797 2.66797 8.2013 2.74797 8.53464 2.90797C8.8813 3.06797 9.18797 3.30797 9.42797 3.65464L12.5213 8.01464C12.7613 8.34797 12.9346 8.65464 13.0546 8.94797C13.1746 9.22797 13.2413 9.50797 13.2413 9.7613C13.2413 10.0813 13.148 10.4013 12.9613 10.708C12.788 11.0146 12.5346 11.3346 12.2146 11.6546L11.2013 12.708C11.0546 12.8546 10.988 13.028 10.988 13.2413C10.988 13.348 11.0013 13.4413 11.028 13.548C11.068 13.6546 11.108 13.7346 11.1346 13.8146C11.3746 14.2546 11.788 14.828 12.3746 15.5213C12.9746 16.2146 13.6146 16.9213 14.308 17.628C15.028 18.3346 15.7213 18.988 16.428 19.588C17.1213 20.1746 17.6946 20.5746 18.148 20.8146C18.2146 20.8413 18.2946 20.8813 18.388 20.9213C18.4946 20.9613 18.6013 20.9746 18.7213 20.9746C18.948 20.9746 19.1213 20.8946 19.268 20.748L20.2813 19.748C20.6146 19.4146 20.9346 19.1613 21.2413 19.0013C21.548 18.8146 21.8546 18.7213 22.188 18.7213C22.4413 18.7213 22.708 18.7746 23.0013 18.8946C23.2946 19.0146 23.6013 19.188 23.9346 19.4146L28.348 22.548C28.6946 22.788 28.9346 23.068 29.0813 23.4013C29.2146 23.7346 29.2946 24.068 29.2946 24.4413Z" stroke="white" stroke-width="1.41" stroke-miterlimit="10"/>
</svg>
