<svg width="30" height="30" viewBox="0 0 30 30" fill="none" xmlns="http://www.w3.org/2000/svg">
<path fill-rule="evenodd" clip-rule="evenodd" d="M4.54187 5.43075C6.11245 3.77628 6.66751 3.31225 7.3368 3.09629C7.79998 2.97493 8.28574 2.96818 8.75211 3.07666C9.36607 3.25513 9.52848 3.39078 11.5416 5.39684C13.3103 7.1584 13.487 7.34937 13.6566 7.69383C13.9809 8.29847 14.0315 9.01274 13.7958 9.65706C13.6173 10.1479 13.3639 10.4727 12.2912 11.5489L11.5916 12.2504C11.408 12.4371 11.3648 12.7205 11.4845 12.9536C13.039 15.6054 15.2443 17.8169 17.8918 19.3787C18.1966 19.5419 18.572 19.4892 18.8199 19.2484L19.4927 18.5863C19.9086 18.1599 20.3491 17.7583 20.8117 17.3834C21.5384 16.9372 22.4438 16.8974 23.2068 17.2781C23.5798 17.4565 23.703 17.5672 25.527 19.3877C27.4081 21.2634 27.4617 21.3223 27.6687 21.7525C28.0583 22.4644 28.0542 23.3268 27.658 24.0352C27.4563 24.4349 27.3332 24.5795 26.2748 25.6611C25.6359 26.3143 25.0344 26.9104 24.938 26.9979C24.0649 27.7207 22.9448 28.0753 21.8147 27.9866C19.7472 27.7981 17.746 27.159 15.9518 26.1144C11.9775 24.0086 8.59398 20.9406 6.11067 17.1906C5.56978 16.4057 5.08891 15.5811 4.67215 14.7241C3.55415 12.8078 2.97681 10.6243 3.00162 8.40594C3.08697 7.24542 3.64351 6.17039 4.54187 5.43075Z" stroke="#490905" stroke-width="1.44" stroke-linecap="round" stroke-linejoin="round"/>
</svg>
