<svg width="17" height="18" viewBox="0 0 17 18" fill="none" xmlns="http://www.w3.org/2000/svg">
<path d="M13.5379 11.2814V13.8586M13.5379 13.8586H16.0704M13.5379 13.8586V16.72M13.5379 13.8586H10.8472M10.113 11.356C9.08082 10.4261 7.74012 9.91254 6.35082 9.91491C3.24094 9.91491 0.72 12.4358 0.72 15.5457M6.57938 0.72C5.6391 0.72 4.73734 1.09352 4.07246 1.7584C3.40758 2.42328 3.03405 3.32505 3.03405 4.26533C3.03405 5.20561 3.40758 6.10738 4.07246 6.77225C4.73734 7.43713 5.6391 7.81066 6.57938 7.81066C7.51966 7.81066 8.42143 7.43713 9.08631 6.77225C9.75119 6.10738 10.1247 5.20561 10.1247 4.26533C10.1247 3.32505 9.75119 2.42328 9.08631 1.7584C8.42143 1.09352 7.51966 0.72 6.57938 0.72Z" stroke="white" stroke-width="1.44" stroke-linecap="round"/>
</svg>
