<svg width="30" height="30" viewBox="0 0 30 30" fill="none" xmlns="http://www.w3.org/2000/svg">
<path d="M25.1563 7.5C26.19 7.5 27.0313 6.65872 27.0313 5.625C27.0313 4.59128 26.19 3.75 25.1563 3.75C24.1225 3.75 23.2812 4.59128 23.2812 5.625C23.2812 6.65872 24.1221 7.5 25.1563 7.5Z" stroke="white" stroke-width="1.44"/>
<path d="M10.3597 12.5665C10.7988 12.7301 11.1185 13.0574 11.1185 13.6601V13.8016C11.1185 15.0216 10.2779 15.4828 9.23609 15.4828C7.95637 15.4828 7.46509 14.7014 7.46509 14.0766M10.3597 12.5665C10.7316 12.3954 10.9324 11.8895 10.9324 11.3465C10.9324 10.3423 10.2182 10 9.27324 10C7.99351 10 7.57696 10.7513 7.57696 11.3315M10.3597 12.5665C9.88804 12.5665 9.68227 12.5665 9.27324 12.5665" stroke="white" stroke-width="1.44" stroke-linecap="round"/>
<path d="M16.6894 11.3987C16.6894 10.7814 16.191 10 14.9339 10C13.8624 10 13.0368 10.4762 13.0368 11.7555V13.7273C13.0368 15.007 13.8403 15.4828 14.8671 15.4828C15.8939 15.4828 16.6898 15.0066 16.6898 13.7273V13.6601C16.6898 12.4697 15.5093 12.2884 14.8867 12.2884C13.9434 12.2884 13.2383 12.9713 13 13.2317" stroke="white" stroke-width="1.44"/>
<path d="M20.4055 15.4828C21.4323 15.4828 22.2358 15.0066 22.2358 13.7268V11.7555C22.2358 10.4758 21.4323 10 20.4055 10C19.3787 10 18.5828 10.4758 18.5828 11.7555V13.7268C18.5828 15.0066 19.3787 15.4828 20.4055 15.4828Z" stroke="white" stroke-width="1.44"/>
<path d="M25.4699 13.6426C27.0021 14.6967 27.8119 15.967 27.8119 17.3141C27.8119 18.8434 26.7895 20.2473 24.8559 21.374C23.1156 22.3883 20.7684 23.1061 18.0684 23.45C18.035 23.4547 18.0016 23.4564 17.9688 23.4564" stroke="white" stroke-width="1.44" stroke-linecap="round"/>
<path d="M4.13926 13.291C1.75156 14.7066 1.25 16.2582 1.25 17.3105C1.25 19.1258 2.71426 20.7793 5.37324 21.9652C7.39414 22.8664 9.95059 23.4348 12.7104 23.6088M10.7812 26.2489L12.8566 24.1735C13.1607 23.87 13.1607 23.3772 12.8566 23.0731L10.7812 20.9977" stroke="white" stroke-width="1.44" stroke-linecap="round"/>
</svg>
