<svg width="30" height="30" viewBox="0 0 30 30" fill="none" xmlns="http://www.w3.org/2000/svg">
<path d="M25.5 12.6681C25.5 20.8348 15 27.8348 15 27.8348C15 27.8348 4.5 20.8348 4.5 12.6681C4.5 9.88332 5.60625 7.2126 7.57538 5.24347C9.54451 3.27434 12.2152 2.16809 15 2.16809C17.7848 2.16809 20.4555 3.27434 22.4246 5.24347C24.3938 7.2126 25.5 9.88332 25.5 12.6681Z" stroke="#490905" stroke-width="1.44" stroke-linecap="round" stroke-linejoin="round"/>
<path d="M15 16.1681C16.933 16.1681 18.5 14.6011 18.5 12.6681C18.5 10.7351 16.933 9.16809 15 9.16809C13.067 9.16809 11.5 10.7351 11.5 12.6681C11.5 14.6011 13.067 16.1681 15 16.1681Z" stroke="#490905" stroke-width="1.44" stroke-linecap="round" stroke-linejoin="round"/>
</svg>
