<svg width="15" height="17" viewBox="0 0 15 17" fill="none" xmlns="http://www.w3.org/2000/svg">
<path d="M7.18822 9.29453C7.49559 9.29453 7.79994 9.23399 8.08391 9.11636C8.36788 8.99874 8.62591 8.82634 8.84325 8.60899C9.06059 8.39165 9.23299 8.13363 9.35062 7.84966C9.46824 7.56569 9.52878 7.26133 9.52878 6.95397C9.52878 6.6466 9.46824 6.34224 9.35062 6.05827C9.23299 5.7743 9.06059 5.51628 8.84325 5.29894C8.62591 5.0816 8.36788 4.90919 8.08391 4.79157C7.79994 4.67394 7.49559 4.6134 7.18822 4.6134C6.56746 4.6134 5.97213 4.86 5.53319 5.29894C5.09425 5.73788 4.84766 6.33321 4.84766 6.95397C4.84766 7.57472 5.09425 8.17005 5.53319 8.60899C5.97213 9.04793 6.56746 9.29453 7.18822 9.29453Z" stroke="white" stroke-width="1.44"/>
<path d="M0.902814 5.58864C2.38067 -0.907919 12.0055 -0.900417 13.4758 5.59614C14.3385 9.40706 11.968 12.6328 9.88998 14.6283C9.16386 15.3286 8.19438 15.72 7.18557 15.72C6.17677 15.72 5.20729 15.3286 4.48117 14.6283C2.41068 12.6328 0.0401064 9.39956 0.902814 5.58864Z" stroke="white" stroke-width="1.44"/>
</svg>
