<svg width="30" height="30" viewBox="0 0 30 30" fill="none" xmlns="http://www.w3.org/2000/svg">
<g clip-path="url(#clip0_2476_5283)">
<path d="M20.4723 8.80893L23.717 7.68036C24.9866 7.25714 26.3973 7.53929 27.5259 8.24464C28.5134 9.09107 29.2188 10.3607 29.2188 11.7714V18.1196C29.2188 19.3893 28.6545 20.6589 27.5259 21.5054C26.8205 22.0696 25.9741 22.3518 25.1277 22.3518C24.5634 22.3518 24.1402 22.2107 23.717 22.0696L20.4723 20.9411M20.4723 8.80893C19.6259 6.55179 17.5098 5 15.1116 5H6.64733C3.54376 5 1.00447 7.53929 1.00447 10.6429V19.1071C1.00447 22.2107 3.54376 24.75 6.64733 24.75H15.1116C17.5098 24.75 19.6259 23.1982 20.4723 20.9411M20.4723 8.80893V20.9411" stroke="#490905" stroke-width="1.62514"/>
</g>
<defs>
<clipPath id="clip0_2476_5283">
<rect width="30" height="30" fill="white"/>
</clipPath>
</defs>
</svg>
