<svg width="240" height="74" viewBox="0 0 240 74" fill="none" xmlns="http://www.w3.org/2000/svg">
<g clip-path="url(#clip0_809_6800)">
<path d="M17.6279 0H222.372C232.101 0 240 7.91051 240 17.6535V56.3477C240 66.0908 232.101 74.0013 222.372 74.0013H17.6279C7.899 74 0 66.0908 0 56.3464V17.6535C0 7.91051 7.899 0 17.6279 0Z" fill="black"/>
<path d="M94.5251 18.9232C97.1813 18.9232 98.7503 20.582 98.7503 23.4028C98.7503 26.2237 97.1864 27.8889 94.5251 27.8889H91.5156V18.9219H94.5251V18.9232ZM92.6323 26.8826H94.4506C96.4796 26.8826 97.6092 25.6394 97.6092 23.4157C97.6092 21.1919 96.4861 19.9295 94.4506 19.9295H92.6323V26.8826Z" fill="white"/>
<path d="M100.285 24.6588C100.285 22.5959 101.489 21.3154 103.275 21.3154C105.062 21.3154 106.26 22.5959 106.26 24.6588C106.26 26.7217 105.056 28.0021 103.275 28.0021C101.494 28.0021 100.285 26.7152 100.285 24.6588ZM105.162 24.6588C105.162 23.1364 104.418 22.2664 103.275 22.2664C102.133 22.2664 101.383 23.1364 101.383 24.6588C101.383 26.1812 102.133 27.0511 103.275 27.0511C104.418 27.0511 105.162 26.1812 105.162 24.6588Z" fill="white"/>
<path d="M114.391 27.8905H113.292L111.834 22.8884H111.809L110.357 27.8905H109.259L107.453 21.4277H108.526L109.816 26.6847H109.841L111.299 21.4277H112.341L113.806 26.6847H113.831L115.121 21.4277H116.189L114.39 27.8905H114.391Z" fill="white"/>
<path d="M117.704 21.4271H118.722V22.4592H118.747C119.106 21.763 119.795 21.3164 120.794 21.3164C122.208 21.3164 123.027 22.2301 123.027 23.6959V27.8898H121.948V23.8876C121.948 22.8439 121.457 22.2726 120.465 22.2726C119.473 22.2726 118.783 22.9932 118.783 24.0871V27.8898H117.703V21.4271H117.704Z" fill="white"/>
<path d="M125.094 18.9238H126.173V27.8909H125.094V18.9238Z" fill="white"/>
<path d="M127.949 24.6588C127.949 22.5959 129.153 21.3154 130.939 21.3154C132.726 21.3154 133.925 22.5959 133.925 24.6588C133.925 26.7217 132.72 28.0021 130.939 28.0021C129.158 28.0021 127.949 26.7152 127.949 24.6588ZM132.826 24.6588C132.826 23.1364 132.082 22.2664 130.939 22.2664C129.797 22.2664 129.047 23.1364 129.047 24.6588C129.047 26.1812 129.797 27.0511 130.939 27.0511C132.082 27.0511 132.826 26.1812 132.826 24.6588Z" fill="white"/>
<path d="M135.388 26.0625C135.388 24.9557 136.239 24.2608 137.727 24.1733L139.576 24.0678V23.5273C139.576 22.7384 139.054 22.2661 138.161 22.2661C137.33 22.2661 136.808 22.6573 136.672 23.2918H135.63C135.704 22.1735 136.66 21.3164 138.185 21.3164C139.711 21.3164 140.655 22.1362 140.655 23.423V27.8911H139.631V26.7793H139.607C139.223 27.5192 138.403 28.0031 137.534 28.0031C136.249 28.0031 135.387 27.2258 135.387 26.0637L135.388 26.0625ZM139.576 25.4345V24.9068L137.851 25.0124C136.983 25.0677 136.487 25.4538 136.487 26.0625C136.487 26.6712 137.002 27.0817 137.777 27.0817C138.795 27.0817 139.576 26.3674 139.576 25.4345Z" fill="white"/>
<path d="M142.345 24.6585C142.345 22.633 143.455 21.3152 145.081 21.3152C146.005 21.3152 146.75 21.7682 147.134 22.4772H147.159V18.9229H148.238V27.8899H147.208V26.796H147.19C146.773 27.5411 146.036 28.0019 145.105 28.0019C143.46 28.0019 142.344 26.6841 142.344 24.6585H142.345ZM143.45 24.6585C143.45 26.1256 144.17 27.0508 145.312 27.0508C146.455 27.0508 147.168 26.1063 147.168 24.6585C147.168 23.2108 146.424 22.2662 145.312 22.2662C144.201 22.2662 143.45 23.1979 143.45 24.6585Z" fill="white"/>
<path d="M153.258 24.6588C153.258 22.5959 154.462 21.3154 156.248 21.3154C158.034 21.3154 159.233 22.5959 159.233 24.6588C159.233 26.7217 158.029 28.0021 156.248 28.0021C154.467 28.0021 153.258 26.7152 153.258 24.6588ZM158.134 24.6588C158.134 23.1364 157.39 22.2664 156.248 22.2664C155.106 22.2664 154.355 23.1364 154.355 24.6588C154.355 26.1812 155.106 27.0511 156.248 27.0511C157.39 27.0511 158.134 26.1812 158.134 24.6588Z" fill="white"/>
<path d="M160.954 21.4271H161.972V22.4592H161.997C162.356 21.763 163.045 21.3164 164.044 21.3164C165.458 21.3164 166.277 22.2301 166.277 23.6959V27.8898H165.198V23.8876C165.198 22.8439 164.707 22.2726 163.715 22.2726C162.723 22.2726 162.033 22.9932 162.033 24.0871V27.8898H160.953V21.4271H160.954Z" fill="white"/>
<path d="M172.955 19.8672V21.4269H174.208V22.3161H172.955V26.1562C172.955 26.7469 173.203 27.0133 173.755 27.0133C173.88 27.0133 174.128 26.994 174.202 26.9824V27.8897C174.073 27.9205 173.774 27.9398 173.52 27.9398C172.335 27.9398 171.875 27.4547 171.875 26.2128V22.3161H170.914V21.4269H171.875V19.8672H172.955Z" fill="white"/>
<path d="M176.044 18.9229H177.124V22.4592H177.148C177.508 21.7386 178.216 21.3165 179.195 21.3165C180.61 21.3165 181.466 22.2739 181.466 23.7152V27.8912H180.386V23.9147C180.386 22.889 179.871 22.2739 178.86 22.2739C177.787 22.2739 177.122 23.0074 177.122 24.1257V27.8912H176.043V18.9241L176.044 18.9229Z" fill="white"/>
<path d="M188.815 26.0383C188.629 27.1695 187.537 28.0021 186.128 28.0021C184.279 28.0021 183.156 26.7152 183.156 24.6832C183.156 22.6512 184.297 21.3154 186.078 21.3154C187.859 21.3154 188.895 22.583 188.895 24.5404V24.9509H184.267V25.0127C184.267 26.2494 184.993 27.0627 186.153 27.0627C186.971 27.0627 187.574 26.6457 187.754 26.037H188.815V26.0383ZM184.274 24.1054H187.78C187.755 23.0244 187.078 22.2536 186.06 22.2536C185.043 22.2536 184.341 23.0309 184.273 24.1054H184.274Z" fill="white"/>
<path d="M97.0758 35.0752H99.8694L105.918 51.7546H103.205L101.681 47.2466H95.2639L93.7283 51.7546H91.0156L97.0758 35.0752ZM95.9565 45.1657H100.977L98.4957 37.8369H98.4494L95.9565 45.1657Z" fill="white"/>
<path d="M108.633 39.5946H111.126V41.6871H111.184C111.911 40.2419 113.25 39.3643 114.981 39.3643C118.074 39.3643 120.059 41.7913 120.059 45.6752V45.6867C120.059 49.559 118.062 51.9976 115.015 51.9976C113.296 51.9976 111.899 51.1187 111.184 49.7096H111.126V55.8017H108.633V39.5959V39.5946ZM117.521 45.6855V45.6739C117.521 43.0847 116.286 41.5018 114.336 41.5018C112.385 41.5018 111.115 43.1426 111.115 45.6739V45.6855C111.115 48.2052 112.454 49.846 114.336 49.846C116.217 49.846 117.521 48.2502 117.521 45.6855Z" fill="white"/>
<path d="M123.172 39.5946H125.665V41.6871H125.723C126.45 40.2419 127.789 39.3643 129.52 39.3643C132.613 39.3643 134.598 41.7913 134.598 45.6752V45.6867C134.598 49.559 132.601 51.9976 129.555 51.9976C127.835 51.9976 126.438 51.1187 125.723 49.7096H125.665V55.8017H123.172V39.5959V39.5946ZM132.059 45.6855V45.6739C132.059 43.0847 130.824 41.5018 128.873 41.5018C126.923 41.5018 125.653 43.1426 125.653 45.6739V45.6855C125.653 48.2052 126.992 49.846 128.873 49.846C130.755 49.846 132.059 48.2502 132.059 45.6855Z" fill="white"/>
<path d="M143.242 47.3145L143.23 47.1407H145.747L145.77 47.2913C146.001 48.8291 147.535 49.7879 149.763 49.7879C151.992 49.7879 153.399 48.7828 153.399 47.2218V47.2102C153.399 45.8693 152.486 45.1409 150.283 44.6557L148.471 44.2748C145.204 43.5812 143.624 42.0781 143.624 39.6047V39.5931C143.635 36.7491 146.14 34.7969 149.661 34.7969C153.182 34.7969 155.513 36.6925 155.686 39.4902L155.698 39.6871H153.182L153.17 39.5249C152.939 37.9755 151.6 37.0399 149.627 37.0399C147.561 37.0515 146.245 38.0334 146.245 39.4902V39.5017C146.245 40.75 147.192 41.5132 149.269 41.9636L151.092 42.3445C154.532 43.0729 156.009 44.4717 156.009 47.0493V47.0609C156.009 50.1006 153.608 52.0309 149.661 52.0309C145.921 52.0309 143.451 50.2511 143.243 47.3145H143.242Z" fill="white"/>
<path d="M159.914 48.5528V41.583H158.172V39.5948H159.914V36.4277H162.465V39.5948H164.738V41.583H162.465V48.4022C162.465 49.6389 163.019 50.0083 164.069 50.0083C164.335 50.0083 164.553 49.9851 164.738 49.9619V51.8923C164.449 51.9386 163.976 51.9965 163.469 51.9965C161.068 51.9965 159.914 50.9799 159.914 48.5515V48.5528Z" fill="white"/>
<path d="M167.145 45.6742V45.651C167.145 41.7672 169.441 39.3633 172.892 39.3633C176.344 39.3633 178.663 41.7556 178.663 45.651V45.6742C178.663 49.5928 176.379 51.9967 172.904 51.9967C169.429 51.9967 167.145 49.5812 167.145 45.6742ZM176.113 45.6742V45.651C176.113 42.9923 174.843 41.4558 172.892 41.4558C170.942 41.4558 169.695 42.9936 169.695 45.651V45.6742C169.695 48.3676 170.965 49.9042 172.916 49.9042C174.866 49.9042 176.113 48.3548 176.113 45.6742Z" fill="white"/>
<path d="M181.773 39.5946H184.266V41.6755H184.324C184.716 40.2535 185.733 39.3643 187.118 39.3643C187.475 39.3643 187.787 39.4222 187.984 39.4569V41.7797C187.787 41.6987 187.349 41.6408 186.865 41.6408C185.261 41.6408 184.268 42.6921 184.268 44.508V51.7557H181.775V39.5959L181.773 39.5946Z" fill="white"/>
<path d="M189.65 45.7195V45.708C189.65 41.9052 191.843 39.3623 195.247 39.3623C198.651 39.3623 200.741 41.8125 200.741 45.4647V46.3089H192.141C192.188 48.6086 193.446 49.9495 195.431 49.9495C196.909 49.9495 197.889 49.1864 198.202 48.274L198.236 48.1814H200.602L200.579 48.3088C200.187 50.2391 198.317 51.9957 195.373 51.9957C191.807 51.9957 189.648 49.557 189.648 45.7195H189.65ZM192.177 44.5407H198.271C198.063 42.4367 196.886 41.4085 195.259 41.4085C193.632 41.4085 192.396 42.5062 192.177 44.5407Z" fill="white"/>
<path d="M68.8043 31.7692C67.2494 32.8514 66.1931 33.9376 65.6341 35.0288C65.0751 36.1201 64.795 37.3028 64.795 38.5742C64.795 39.5806 64.9608 40.5007 65.2923 41.3359C65.6238 42.1711 66.0929 42.9638 66.6994 43.7141C67.3059 44.4643 68.3198 45.2094 69.7423 45.9494C69.1923 47.5631 68.3391 49.2091 67.1838 50.8898C66.0273 52.5691 64.98 53.7608 64.042 54.4635C63.1039 55.1661 62.2083 55.5174 61.355 55.5174C60.6727 55.5174 59.7526 55.2999 58.5974 54.8624L58.0577 54.6629L57.1761 54.2923C56.5503 54.1031 55.859 54.0079 55.1008 54.0079C54.3427 54.0079 53.4522 54.179 52.4845 54.5201L51.8022 54.7762L50.9489 55.1185C50.2666 55.3849 49.5843 55.5174 48.9019 55.5174C47.4614 55.5174 45.9168 54.5072 44.2669 52.4855C42.6182 50.4638 41.3717 48.2902 40.5275 45.9648C39.6832 43.6394 39.2617 41.2909 39.2617 38.9178C39.2617 35.8615 40.1291 33.3186 41.8639 31.2866C43.5986 29.2559 45.9528 28.2405 48.9289 28.2405C50.0096 28.2405 51.0235 28.44 51.9718 28.8389L52.6259 29.095L53.3082 29.3794C53.9148 29.6265 54.3979 29.75 54.7577 29.75C55.2884 29.75 55.8192 29.6458 56.3499 29.4373L57.2597 29.095L57.9137 28.8389C58.9752 28.44 60.1497 28.2405 61.4398 28.2405C64.4917 28.2405 66.9461 29.418 68.8043 31.7717V31.7692ZM61.5812 18.2002C61.6184 18.6184 61.6377 18.9402 61.6377 19.1679C61.6377 20.3454 61.2959 21.5603 60.6136 22.8124C59.9312 24.0646 59.0394 25.0387 57.9407 25.7311C56.8407 26.4247 55.6277 26.7709 54.3016 26.7709C54.245 26.3153 54.2167 25.9833 54.2167 25.7748C54.2167 24.7685 54.5149 23.7107 55.1124 22.6001C55.7099 21.4895 56.5195 20.5449 57.5437 19.7663C58.5678 18.9878 59.723 18.4949 61.0119 18.2851C61.1263 18.2671 61.3152 18.2375 61.5812 18.2002Z" fill="white"/>
</g>
<defs>
<clipPath id="clip0_809_6800">
<rect width="240" height="74" fill="white"/>
</clipPath>
</defs>
</svg>
