<svg width="194" height="65" viewBox="0 0 194 65" fill="none" xmlns="http://www.w3.org/2000/svg">
<rect width="194" height="65" rx="11" fill="black"/>
<g clip-path="url(#clip0_1539_350)">
<g clip-path="url(#clip1_1539_350)">
<g clip-path="url(#clip2_1539_350)">
<mask id="mask0_1539_350" style="mask-type:luminance" maskUnits="userSpaceOnUse" x="0" y="-1" width="194" height="61">
<path d="M193.377 -0.00683594H0V59.6162H193.377V-0.00683594Z" fill="white"/>
</mask>
<g mask="url(#mask0_1539_350)">
<path d="M14.2035 -0.00683594H179.174C187.012 -0.00683594 193.377 6.36679 193.377 14.2169V45.3934C193.377 53.2436 187.012 59.6172 179.174 59.6172H14.2035C6.36453 59.6162 0 53.2436 0 45.3925V14.2169C0 6.36679 6.36453 -0.00683594 14.2035 -0.00683594Z" fill="black"/>
<path d="M76.1621 15.2403C78.3023 15.2403 79.5666 16.5768 79.5666 18.8496C79.5666 21.1224 78.3064 22.4642 76.1621 22.4642H73.7373V15.2393H76.1621V15.2403ZM74.637 21.6534H76.1021C77.737 21.6534 78.6471 20.6517 78.6471 18.86C78.6471 17.0683 77.7422 16.0511 76.1021 16.0511H74.637V21.6534Z" fill="white"/>
<path d="M80.8044 19.8608C80.8044 18.1987 81.7746 17.167 83.2138 17.167C84.6529 17.167 85.619 18.1987 85.619 19.8608C85.619 21.5229 84.6489 22.5546 83.2138 22.5546C81.7787 22.5546 80.8044 21.5178 80.8044 19.8608ZM84.7337 19.8608C84.7337 18.6342 84.1342 17.9333 83.2138 17.9333C82.2934 17.9333 81.6887 18.6342 81.6887 19.8608C81.6887 21.0874 82.2934 21.7884 83.2138 21.7884C84.1342 21.7884 84.7337 21.0874 84.7337 19.8608Z" fill="white"/>
<path d="M92.1687 22.4649H91.2832L90.1077 18.4346H90.0881L88.9183 22.4649H88.033L86.5784 17.2578H87.4429L88.4824 21.4934H88.5021L89.6769 17.2578H90.517L91.697 21.4934H91.7166L92.7569 17.2578H93.6166L92.1687 22.4649Z" fill="white"/>
<path d="M94.8384 17.2571H95.6589V18.0887H95.6785C95.9686 17.5278 96.523 17.168 97.3275 17.168C98.4675 17.168 99.1278 17.9041 99.1278 19.0851V22.4643H98.2574V19.2396C98.2574 18.3987 97.8623 17.9384 97.0632 17.9384C96.2632 17.9384 95.7079 18.519 95.7079 19.4003V22.4643H94.8375L94.8384 17.2571Z" fill="white"/>
<path d="M100.793 15.2402H101.662V22.4651H100.793V15.2402Z" fill="white"/>
<path d="M103.094 19.8608C103.094 18.1987 104.064 17.167 105.503 17.167C106.942 17.167 107.909 18.1987 107.909 19.8608C107.909 21.5229 106.939 22.5546 105.503 22.5546C104.068 22.5546 103.094 21.5178 103.094 19.8608ZM107.023 19.8608C107.023 18.6342 106.423 17.9333 105.503 17.9333C104.583 17.9333 103.978 18.6342 103.978 19.8608C103.978 21.0874 104.583 21.7884 105.503 21.7884C106.423 21.7884 107.023 21.0874 107.023 19.8608Z" fill="white"/>
<path d="M109.088 20.9919C109.088 20.1002 109.773 19.5403 110.972 19.4698L112.462 19.3848V18.9493C112.462 18.3137 112.042 17.9332 111.322 17.9332C110.652 17.9332 110.232 18.2484 110.123 18.7596H109.282C109.342 17.8585 110.113 17.168 111.342 17.168C112.571 17.168 113.332 17.8285 113.332 18.8653V22.4653H112.507V21.5695H112.487C112.177 22.1657 111.517 22.5556 110.817 22.5556C109.782 22.5556 109.087 21.9292 109.087 20.993L109.088 20.9919ZM112.462 20.4859V20.0608L111.073 20.1459C110.373 20.1905 109.973 20.5015 109.973 20.9919C109.973 21.4823 110.389 21.8131 111.012 21.8131C111.833 21.8131 112.462 21.2377 112.462 20.4859Z" fill="white"/>
<path d="M114.691 19.8606C114.691 18.2285 115.586 17.1668 116.896 17.1668C117.64 17.1668 118.24 17.5318 118.55 18.1031H118.57V15.2393H119.44V22.4642H118.61V21.5828H118.594C118.259 22.1831 117.665 22.5543 116.915 22.5543C115.59 22.5543 114.69 21.4926 114.69 19.8606H114.691ZM115.582 19.8606C115.582 21.0426 116.161 21.7881 117.083 21.7881C118.003 21.7881 118.578 21.027 118.578 19.8606C118.578 18.6941 117.978 17.933 117.083 17.933C116.186 17.933 115.582 18.6837 115.582 19.8606Z" fill="white"/>
<path d="M123.485 19.8608C123.485 18.1987 124.455 17.167 125.894 17.167C127.333 17.167 128.3 18.1987 128.3 19.8608C128.3 21.5229 127.33 22.5546 125.894 22.5546C124.46 22.5546 123.485 21.5178 123.485 19.8608ZM127.414 19.8608C127.414 18.6342 126.815 17.9333 125.894 17.9333C124.974 17.9333 124.369 18.6342 124.369 19.8608C124.369 21.0874 124.974 21.7884 125.894 21.7884C126.815 21.7884 127.414 21.0874 127.414 19.8608Z" fill="white"/>
<path d="M129.688 17.2571H130.508V18.0887H130.527C130.817 17.5278 131.373 17.168 132.177 17.168C133.317 17.168 133.977 17.9041 133.977 19.0851V22.4643H133.106V19.2396C133.106 18.3987 132.711 17.9384 131.912 17.9384C131.113 17.9384 130.557 18.519 130.557 19.4003V22.4643H129.686V17.2571H129.688Z" fill="white"/>
<path d="M139.358 16V17.2567H140.367V17.9732H139.358V21.0672C139.358 21.5431 139.557 21.7577 140.002 21.7577C140.103 21.7577 140.303 21.7422 140.363 21.7329V22.4638C140.258 22.4888 140.018 22.5042 139.813 22.5042C138.859 22.5042 138.487 22.1134 138.487 21.1128V17.9732H137.713V17.2567H138.487V16H139.358Z" fill="white"/>
<path d="M141.844 15.2393H142.714V18.0886H142.733C143.023 17.5079 143.594 17.1678 144.383 17.1678C145.523 17.1678 146.213 17.9392 146.213 19.1005V22.4651H145.342V19.2612C145.342 18.4348 144.928 17.9392 144.113 17.9392C143.248 17.9392 142.713 18.5302 142.713 19.4313V22.4651H141.843V15.2402L141.844 15.2393Z" fill="white"/>
<path d="M152.135 20.9723C151.985 21.8838 151.105 22.5546 149.97 22.5546C148.48 22.5546 147.575 21.5178 147.575 19.8805C147.575 18.2432 148.495 17.167 149.93 17.167C151.365 17.167 152.199 18.1883 152.199 19.7654V20.0961H148.47V20.146C148.47 21.1424 149.055 21.7976 149.99 21.7976C150.649 21.7976 151.135 21.4617 151.28 20.9713H152.135V20.9723ZM148.476 19.415H151.3C151.281 18.5439 150.735 17.9229 149.916 17.9229C149.095 17.9229 148.531 18.5492 148.476 19.415Z" fill="white"/>
<path d="M78.2169 28.2539H80.4678L85.3414 41.6928H83.1557L81.9277 38.0606H76.757L75.5197 41.6928H73.334L78.2169 28.2539ZM77.3151 36.384H81.3603L79.361 30.479H79.3238L77.3151 36.384Z" fill="white"/>
<path d="M87.5273 31.8955H89.5363V33.5815H89.5826C90.1681 32.4171 91.2476 31.71 92.6421 31.71C95.1347 31.71 96.7339 33.6654 96.7339 36.7947V36.8041C96.7339 39.924 95.1249 41.8889 92.6697 41.8889C91.285 41.8889 90.1592 41.1807 89.5826 40.0453H89.5363V44.9538H87.5273V31.8966V31.8955ZM94.6889 36.803V36.7937C94.6889 34.7075 93.694 33.4322 92.1224 33.4322C90.5508 33.4322 89.5274 34.7542 89.5274 36.7937V36.803C89.5274 38.8332 90.6069 40.1552 92.1224 40.1552C93.6379 40.1552 94.6889 38.8695 94.6889 36.803Z" fill="white"/>
<path d="M99.2426 31.8946H101.251V33.5806H101.297C101.884 32.4161 102.962 31.709 104.357 31.709C106.849 31.709 108.449 33.6645 108.449 36.7937V36.8031C108.449 39.923 106.84 41.8879 104.385 41.8879C103 41.8879 101.874 41.1797 101.297 40.0444H101.251V44.9529H99.2426V31.8956V31.8946ZM106.403 36.8021V36.7928C106.403 34.7066 105.408 33.4312 103.836 33.4312C102.265 33.4312 101.241 34.7532 101.241 36.7928V36.8021C101.241 38.8323 102.321 40.1543 103.836 40.1543C105.352 40.1543 106.403 38.8686 106.403 36.8021Z" fill="white"/>
<path d="M115.416 38.1149L115.407 37.9749H117.434L117.453 38.0963C117.639 39.3353 118.875 40.1078 120.671 40.1078C122.466 40.1078 123.599 39.298 123.599 38.0403V38.031C123.599 36.9505 122.864 36.3636 121.089 35.9728L119.629 35.6659C116.997 35.107 115.724 33.8959 115.724 31.9031V31.8937C115.733 29.6022 117.751 28.0293 120.588 28.0293C123.425 28.0293 125.303 29.5566 125.442 31.8108L125.452 31.9695H123.425L123.415 31.8387C123.229 30.5904 122.15 29.8366 120.56 29.8366C118.896 29.8459 117.835 30.637 117.835 31.8108V31.8201C117.835 32.8259 118.599 33.4407 120.272 33.8036L121.741 34.1106C124.512 34.6974 125.702 35.8244 125.702 37.9013V37.9107C125.702 40.3598 123.768 41.9151 120.588 41.9151C117.575 41.9151 115.585 40.4811 115.417 38.1149H115.416Z" fill="white"/>
<path d="M128.849 39.1131V33.4974H127.445V31.8955H128.849V29.3438H130.904V31.8955H132.735V33.4974H130.904V38.9918C130.904 39.9882 131.351 40.2858 132.196 40.2858C132.41 40.2858 132.587 40.2671 132.735 40.2485V41.8038C132.503 41.8411 132.121 41.8878 131.713 41.8878C129.778 41.8878 128.849 41.0686 128.849 39.1121V39.1131Z" fill="white"/>
<path d="M134.675 36.7938V36.7751C134.675 33.6459 136.525 31.709 139.306 31.709C142.087 31.709 143.956 33.6365 143.956 36.7751V36.7938C143.956 39.951 142.116 41.8879 139.316 41.8879C136.516 41.8879 134.675 39.9417 134.675 36.7938ZM141.901 36.7938V36.7751C141.901 34.633 140.878 33.3949 139.306 33.3949C137.735 33.3949 136.73 34.634 136.73 36.7751V36.7938C136.73 38.964 137.753 40.202 139.325 40.202C140.897 40.202 141.901 38.9536 141.901 36.7938Z" fill="white"/>
<path d="M146.459 31.8955H148.468V33.5722H148.515C148.83 32.4264 149.65 31.71 150.766 31.71C151.053 31.71 151.305 31.7566 151.463 31.7846V33.6561C151.305 33.5908 150.952 33.5442 150.562 33.5442C149.27 33.5442 148.469 34.3913 148.469 35.8543V41.6939H146.46V31.8966L146.459 31.8955Z" fill="white"/>
<path d="M152.808 36.8301V36.8208C152.808 33.7568 154.575 31.708 157.318 31.708C160.061 31.708 161.744 33.6822 161.744 36.6248V37.305H154.816C154.853 39.1579 155.867 40.2383 157.467 40.2383C158.657 40.2383 159.447 39.6235 159.698 38.8883L159.726 38.8137H161.632L161.614 38.9164C161.299 40.4716 159.792 41.887 157.419 41.887C154.547 41.887 152.807 39.922 152.807 36.8301H152.808ZM154.845 35.8803H159.755C159.586 34.1851 158.639 33.3566 157.328 33.3566C156.017 33.3566 155.02 34.241 154.845 35.8803Z" fill="white"/>
<path d="M55.437 25.59C54.1841 26.462 53.333 27.3371 52.8827 28.2164C52.4323 29.0956 52.2066 30.0485 52.2066 31.0729C52.2066 31.8838 52.3402 32.6252 52.6072 33.298C52.8744 33.971 53.2523 34.6097 53.741 35.2142C54.2297 35.8187 55.0466 36.419 56.1928 37.0153C55.7497 38.3154 55.0621 39.6417 54.1314 40.9958C53.1995 42.3489 52.3556 43.3091 51.5998 43.8751C50.844 44.4413 50.1223 44.7244 49.4348 44.7244C48.885 44.7244 48.1437 44.5492 47.2129 44.1966L46.7781 44.0359L46.0677 43.7373C45.5635 43.5848 45.0064 43.5081 44.3956 43.5081C43.7847 43.5081 43.0672 43.646 42.2876 43.9208L41.7377 44.1272L41.0503 44.4029C40.5005 44.6176 39.9507 44.7244 39.4009 44.7244C38.2402 44.7244 36.9957 43.9104 35.6662 42.2815C34.3379 40.6526 33.3335 38.9013 32.6533 37.0277C31.973 35.154 31.6334 33.2617 31.6334 31.3498C31.6334 28.8872 32.3323 26.8384 33.73 25.2011C35.1278 23.565 37.0247 22.7469 39.4226 22.7469C40.2934 22.7469 41.1103 22.9077 41.8744 23.229L42.4014 23.4354L42.9512 23.6645C43.4399 23.8636 43.8293 23.9632 44.1191 23.9632C44.5468 23.9632 44.9744 23.8792 45.402 23.7112L46.135 23.4354L46.662 23.229C47.5173 22.9077 48.4636 22.7469 49.5031 22.7469C51.9622 22.7469 53.9398 23.6957 55.437 25.5921V25.59ZM49.617 14.6572C49.6471 14.9942 49.6626 15.2535 49.6626 15.437C49.6626 16.3857 49.3872 17.3645 48.8374 18.3734C48.2876 19.3823 47.5691 20.1672 46.6838 20.725C45.7975 21.2838 44.8201 21.5628 43.7516 21.5628C43.706 21.1957 43.6832 20.9282 43.6832 20.7602C43.6832 19.9494 43.9235 19.0972 44.4049 18.2023C44.8864 17.3075 45.5387 16.5464 46.3639 15.9191C47.1891 15.2918 48.1199 14.8947 49.1584 14.7257C49.2505 14.7112 49.4028 14.6873 49.617 14.6572Z" fill="white"/>
</g>
</g>
</g>
</g>
<defs>
<clipPath id="clip0_1539_350">
<rect width="194" height="59.61" fill="white"/>
</clipPath>
<clipPath id="clip1_1539_350">
<rect width="194" height="59.61" fill="white"/>
</clipPath>
<clipPath id="clip2_1539_350">
<rect width="194" height="59.6239" fill="white" transform="translate(0 -0.00683594)"/>
</clipPath>
</defs>
</svg>
