<svg width="218" height="67" viewBox="0 0 218 67" fill="none" xmlns="http://www.w3.org/2000/svg">
<g clip-path="url(#clip0_1234_692)">
<path d="M15.9606 0H201.34C210.148 0 217.3 7.16212 217.3 15.9834V51.0168C217.3 59.8381 210.148 67.0002 201.34 67.0002H15.9606C7.15189 66.9991 0 59.8381 0 51.0157V15.9834C0 7.16212 7.15189 0 15.9606 0Z" fill="black"/>
<path d="M85.5842 17.1329C87.9891 17.1329 89.4098 18.6347 89.4098 21.1887C89.4098 23.7427 87.9938 25.2504 85.5842 25.2504H82.8594V17.1317H85.5842V17.1329ZM83.8704 24.3393H85.5168C87.3539 24.3393 88.3766 23.2137 88.3766 21.2004C88.3766 19.187 87.3597 18.044 85.5168 18.044H83.8704V24.3393Z" fill="white"/>
<path d="M90.8008 22.3259C90.8008 20.4581 91.891 19.2988 93.5082 19.2988C95.1254 19.2988 96.211 20.4581 96.211 22.3259C96.211 24.1936 95.1208 25.3529 93.5082 25.3529C91.8956 25.3529 90.8008 24.1878 90.8008 22.3259ZM95.2162 22.3259C95.2162 20.9475 94.5425 20.1599 93.5082 20.1599C92.4739 20.1599 91.7944 20.9475 91.7944 22.3259C91.7944 23.7042 92.4739 24.4919 93.5082 24.4919C94.5425 24.4919 95.2162 23.7042 95.2162 22.3259Z" fill="white"/>
<path d="M103.571 25.2518H102.576L101.255 20.7229H101.233L99.9185 25.2518H98.9237L97.2891 19.4005H98.2606L99.4287 24.1601H99.4508L100.771 19.4005H101.715L103.041 24.1601H103.063L104.232 19.4005H105.198L103.57 25.2518H103.571Z" fill="white"/>
<path d="M106.571 19.3999H107.493V20.3343H107.515C107.841 19.704 108.464 19.2997 109.368 19.2997C110.649 19.2997 111.391 20.1269 111.391 21.454V25.2512H110.413V21.6276C110.413 20.6827 109.969 20.1654 109.071 20.1654C108.172 20.1654 107.548 20.8179 107.548 21.8082V25.2512H106.57V19.3999H106.571Z" fill="white"/>
<path d="M113.262 17.1335H114.239V25.2522H113.262V17.1335Z" fill="white"/>
<path d="M115.848 22.3259C115.848 20.4581 116.938 19.2988 118.555 19.2988C120.172 19.2988 121.258 20.4581 121.258 22.3259C121.258 24.1936 120.168 25.3529 118.555 25.3529C116.942 25.3529 115.848 24.1878 115.848 22.3259ZM120.263 22.3259C120.263 20.9475 119.589 20.1599 118.555 20.1599C117.521 20.1599 116.841 20.9475 116.841 22.3259C116.841 23.7042 117.521 24.4919 118.555 24.4919C119.589 24.4919 120.263 23.7042 120.263 22.3259Z" fill="white"/>
<path d="M122.583 23.5967C122.583 22.5947 123.353 21.9655 124.701 21.8863L126.375 21.7908V21.3014C126.375 20.5872 125.903 20.1596 125.094 20.1596C124.341 20.1596 123.869 20.5138 123.746 21.0882H122.802C122.869 20.0757 123.735 19.2997 125.116 19.2997C126.497 19.2997 127.352 20.0419 127.352 21.207V25.2524H126.425V24.2457H126.403C126.055 24.9157 125.313 25.3538 124.526 25.3538C123.363 25.3538 122.582 24.65 122.582 23.5979L122.583 23.5967ZM126.375 23.0281V22.5504L124.814 22.646C124.027 22.6961 123.578 23.0456 123.578 23.5967C123.578 24.1478 124.045 24.5195 124.746 24.5195C125.668 24.5195 126.375 23.8729 126.375 23.0281Z" fill="white"/>
<path d="M128.88 22.3256C128.88 20.4917 129.885 19.2986 131.357 19.2986C132.194 19.2986 132.868 19.7087 133.216 20.3507H133.238V17.1326H134.216V25.2513H133.283V24.2609H133.266C132.889 24.9355 132.222 25.3526 131.379 25.3526C129.89 25.3526 128.879 24.1595 128.879 22.3256H128.88ZM129.881 22.3256C129.881 23.6539 130.532 24.4916 131.567 24.4916C132.601 24.4916 133.247 23.6364 133.247 22.3256C133.247 21.0148 132.573 20.1596 131.567 20.1596C130.56 20.1596 129.881 21.0032 129.881 22.3256Z" fill="white"/>
<path d="M138.762 22.3259C138.762 20.4581 139.852 19.2988 141.469 19.2988C143.086 19.2988 144.172 20.4581 144.172 22.3259C144.172 24.1936 143.082 25.3529 141.469 25.3529C139.857 25.3529 138.762 24.1878 138.762 22.3259ZM143.177 22.3259C143.177 20.9475 142.503 20.1599 141.469 20.1599C140.435 20.1599 139.755 20.9475 139.755 22.3259C139.755 23.7042 140.435 24.4919 141.469 24.4919C142.503 24.4919 143.177 23.7042 143.177 22.3259Z" fill="white"/>
<path d="M145.732 19.3999H146.653V20.3343H146.675C147.001 19.704 147.625 19.2997 148.529 19.2997C149.81 19.2997 150.551 20.1269 150.551 21.454V25.2512H149.573V21.6276C149.573 20.6827 149.129 20.1654 148.231 20.1654C147.333 20.1654 146.708 20.8179 146.708 21.8082V25.2512H145.73V19.3999H145.732Z" fill="white"/>
<path d="M156.598 17.9876V19.3998H157.732V20.2049H156.598V23.6817C156.598 24.2165 156.822 24.4576 157.322 24.4576C157.435 24.4576 157.66 24.4402 157.727 24.4297V25.2511C157.61 25.2791 157.34 25.2965 157.11 25.2965C156.037 25.2965 155.62 24.8573 155.62 23.7329V20.2049H154.75V19.3998H155.62V17.9876H156.598Z" fill="white"/>
<path d="M159.392 17.1326H160.369V20.3344H160.391C160.717 19.6819 161.358 19.2997 162.245 19.2997C163.526 19.2997 164.301 20.1666 164.301 21.4715V25.2524H163.323V21.6521C163.323 20.7235 162.857 20.1666 161.941 20.1666C160.969 20.1666 160.368 20.8307 160.368 21.8432V25.2524H159.391V17.1337L159.392 17.1326Z" fill="white"/>
<path d="M170.956 23.5749C170.787 24.5991 169.798 25.3529 168.523 25.3529C166.849 25.3529 165.832 24.1878 165.832 22.348C165.832 20.5082 166.865 19.2988 168.478 19.2988C170.09 19.2988 171.028 20.4465 171.028 22.2187V22.5903H166.837V22.6463C166.837 23.766 167.495 24.5023 168.545 24.5023C169.286 24.5023 169.832 24.1248 169.995 23.5737H170.956V23.5749ZM166.844 21.8249H170.018C169.996 20.8461 169.383 20.1482 168.462 20.1482C167.54 20.1482 166.905 20.852 166.843 21.8249H166.844Z" fill="white"/>
<path d="M87.8932 31.7568H90.4226L95.8991 46.8582H93.443L92.0631 42.7767H86.2527L84.8623 46.8582H82.4062L87.8932 31.7568ZM86.8798 40.8927H91.4255L89.1788 34.2572H89.137L86.8798 40.8927Z" fill="white"/>
<path d="M98.3555 35.8486H100.613V37.7432H100.665C101.323 36.4347 102.536 35.6401 104.103 35.6401C106.904 35.6401 108.701 37.8375 108.701 41.3539V41.3644C108.701 44.8703 106.893 47.0783 104.134 47.0783C102.578 47.0783 101.313 46.2825 100.665 45.0066H100.613V50.5224H98.3555V35.8498V35.8486ZM106.403 41.3632V41.3528C106.403 39.0085 105.285 37.5754 103.519 37.5754C101.753 37.5754 100.603 39.0609 100.603 41.3528V41.3632C100.603 43.6446 101.816 45.1301 103.519 45.1301C105.222 45.1301 106.403 43.6854 106.403 41.3632Z" fill="white"/>
<path d="M111.52 35.8485H113.777V37.743H113.829C114.488 36.4345 115.7 35.6399 117.267 35.6399C120.068 35.6399 121.865 37.8373 121.865 41.3537V41.3642C121.865 44.8701 120.057 47.0781 117.299 47.0781C115.742 47.0781 114.477 46.2823 113.829 45.0065H113.777V50.5222H111.52V35.8496V35.8485ZM119.566 41.3631V41.3526C119.566 39.0083 118.448 37.5752 116.682 37.5752C114.916 37.5752 113.766 39.0607 113.766 41.3526V41.3631C113.766 43.6444 114.979 45.13 116.682 45.13C118.385 45.13 119.566 43.6852 119.566 41.3631Z" fill="white"/>
<path d="M129.694 42.8381L129.684 42.6808H131.962L131.983 42.8172C132.192 44.2095 133.581 45.0775 135.599 45.0775C137.616 45.0775 138.89 44.1676 138.89 42.7543V42.7438C138.89 41.5297 138.064 40.8702 136.069 40.431L134.428 40.0861C131.471 39.4581 130.04 38.0972 130.04 35.8578V35.8473C130.05 33.2723 132.318 31.5048 135.506 31.5048C138.694 31.5048 140.804 33.2211 140.961 35.7541L140.972 35.9324H138.694L138.683 35.7855C138.474 34.3827 137.261 33.5357 135.475 33.5357C133.605 33.5461 132.413 34.4351 132.413 35.7541V35.7646C132.413 36.8948 133.271 37.5857 135.151 37.9935L136.802 38.3384C139.916 38.9978 141.253 40.2643 141.253 42.5981V42.6086C141.253 45.3607 139.08 47.1084 135.506 47.1084C132.12 47.1084 129.884 45.497 129.695 42.8381H129.694Z" fill="white"/>
<path d="M144.789 43.9593V37.6489H143.211V35.8488H144.789V32.9814H147.098V35.8488H149.156V37.6489H147.098V43.823C147.098 44.9427 147.6 45.2771 148.55 45.2771C148.791 45.2771 148.989 45.2561 149.156 45.2352V46.9829C148.895 47.0248 148.466 47.0773 148.007 47.0773C145.833 47.0773 144.789 46.1568 144.789 43.9582V43.9593Z" fill="white"/>
<path d="M151.336 41.3531V41.3321C151.336 37.8157 153.415 35.6392 156.54 35.6392C159.665 35.6392 161.765 37.8052 161.765 41.3321V41.3531C161.765 44.9009 159.697 47.0774 156.551 47.0774C153.405 47.0774 151.336 44.8904 151.336 41.3531ZM159.456 41.3531V41.3321C159.456 38.9249 158.306 37.5337 156.54 37.5337C154.774 37.5337 153.645 38.9261 153.645 41.3321V41.3531C153.645 43.7917 154.795 45.1829 156.561 45.1829C158.327 45.1829 159.456 43.7801 159.456 41.3531Z" fill="white"/>
<path d="M164.578 35.8486H166.835V37.7327H166.888C167.242 36.4452 168.163 35.6401 169.417 35.6401C169.74 35.6401 170.023 35.6925 170.201 35.724V37.827C170.023 37.7536 169.626 37.7012 169.188 37.7012C167.736 37.7012 166.836 38.6531 166.836 40.2971V46.8592H164.579V35.8498L164.578 35.8486Z" fill="white"/>
<path d="M171.712 41.3941V41.3836C171.712 37.9406 173.698 35.6383 176.78 35.6383C179.862 35.6383 181.754 37.8567 181.754 41.1634V41.9277H173.968C174.01 44.0098 175.149 45.2239 176.947 45.2239C178.285 45.2239 179.172 44.533 179.455 43.7069L179.486 43.623H181.628L181.607 43.7384C181.253 45.4861 179.56 47.0765 176.894 47.0765C173.666 47.0765 171.711 44.8685 171.711 41.3941H171.712ZM174.001 40.3268H179.518C179.329 38.4218 178.264 37.4909 176.791 37.4909C175.318 37.4909 174.198 38.4847 174.001 40.3268Z" fill="white"/>
<path d="M62.2952 28.7636C60.8874 29.7435 59.931 30.7268 59.4249 31.7149C58.9188 32.7029 58.6652 33.7737 58.6652 34.9248C58.6652 35.836 58.8153 36.6691 59.1154 37.4252C59.4156 38.1814 59.8403 38.8991 60.3894 39.5784C60.9386 40.2577 61.8566 40.9323 63.1446 41.6023C62.6466 43.0633 61.874 44.5536 60.8281 46.0752C59.7809 47.5957 58.8327 48.6747 57.9834 49.3108C57.134 49.947 56.3231 50.2651 55.5505 50.2651C54.9327 50.2651 54.0997 50.0682 53.0537 49.672L52.5651 49.4914L51.7669 49.1559C51.2003 48.9846 50.5743 48.8984 49.8879 48.8984C49.2014 48.8984 48.3952 49.0533 47.5191 49.3621L46.9012 49.594L46.1287 49.9039C45.5109 50.1451 44.8931 50.2651 44.2753 50.2651C42.971 50.2651 41.5725 49.3504 40.0786 47.52C38.5859 45.6896 37.4573 43.7216 36.6929 41.6162C35.9285 39.5108 35.5469 37.3844 35.5469 35.2359C35.5469 32.4687 36.3322 30.1664 37.9029 28.3266C39.4736 26.4881 41.6051 25.5688 44.2997 25.5688C45.2782 25.5688 46.1962 25.7494 47.0548 26.1105L47.647 26.3424L48.2648 26.5999C48.814 26.8236 49.2515 26.9355 49.5772 26.9355C50.0578 26.9355 50.5383 26.8411 51.0188 26.6523L51.8425 26.3424L52.4347 26.1105C53.3958 25.7494 54.4592 25.5688 55.6273 25.5688C58.3906 25.5688 60.6128 26.6349 62.2952 28.7659V28.7636ZM55.7553 16.4783C55.7891 16.857 55.8065 17.1483 55.8065 17.3545C55.8065 18.4206 55.497 19.5205 54.8792 20.6542C54.2614 21.7879 53.454 22.6699 52.4592 23.2967C51.4632 23.9247 50.3649 24.2382 49.1642 24.2382C49.113 23.8257 49.0874 23.5251 49.0874 23.3363C49.0874 22.4252 49.3574 21.4675 49.8984 20.4619C50.4394 19.4564 51.1724 18.6012 52.0997 17.8963C53.027 17.1914 54.0729 16.7452 55.2399 16.5552C55.3434 16.5389 55.5145 16.5121 55.7553 16.4783Z" fill="white"/>
</g>
<defs>
<clipPath id="clip0_1234_692">
<rect width="217.3" height="66.9991" fill="white"/>
</clipPath>
</defs>
</svg>
