<svg width="213" height="65" viewBox="0 0 213 65" fill="none" xmlns="http://www.w3.org/2000/svg">
<g clip-path="url(#clip0_1539_381)">
<g clip-path="url(#clip1_1539_381)">
<g clip-path="url(#clip2_1539_381)">
<mask id="mask0_1539_381" style="mask-type:luminance" maskUnits="userSpaceOnUse" x="-1" y="-1" width="213" height="67">
<path d="M211.728 -0.00585938H-0.00244141V65.0068H211.728V-0.00585938Z" fill="white"/>
</mask>
<g mask="url(#mask0_1539_381)">
<path d="M15.5254 0H195.878C204.448 0 211.406 6.90849 211.406 15.4174V49.2101C211.406 57.719 204.448 64.6276 195.878 64.6276H15.5254C6.95553 64.6264 -0.00244141 57.719 -0.00244141 49.2091V15.4174C-0.00244141 6.90849 6.95553 0 15.5254 0Z" fill="black"/>
<path d="M83.3111 21.5877C83.3111 22.56 83.022 23.3346 82.4439 23.9111C81.7875 24.5974 80.9315 24.941 79.8796 24.941C78.8275 24.941 78.0147 24.5929 77.3107 23.8964C76.6056 23.2 76.2529 22.3362 76.2529 21.3051C76.2529 20.274 76.6056 19.4102 77.3107 18.7138C78.0147 18.0173 78.8717 17.668 79.8796 17.668C80.3795 17.668 80.8579 17.7652 81.3125 17.9597C81.7671 18.1541 82.1321 18.413 82.4042 18.7375L81.7908 19.3502C81.3284 18.7997 80.6923 18.5238 79.8796 18.5238C79.1449 18.5238 78.509 18.7816 77.9728 19.296C77.4365 19.8115 77.1679 20.4809 77.1679 21.3039C77.1679 22.1271 77.4354 22.7963 77.9728 23.3118C78.509 23.8275 79.1438 24.0841 79.8796 24.0841C80.6595 24.0841 81.3091 23.8252 81.8294 23.3074C82.1672 22.9693 82.3623 22.5002 82.4144 21.8975H79.8796V21.0609H83.2624C83.2953 21.2429 83.3111 21.417 83.3111 21.5866V21.5877Z" fill="white"/>
<path d="M88.6739 18.6818H85.4951V20.8888H88.3621V21.7254H85.4951V23.9323H88.6739V24.7882H84.5984V17.8271H88.6739V18.683V18.6818Z" fill="white"/>
<path d="M92.4579 24.7865H91.56V18.6802H89.6101V17.8242H94.4066V18.6802H92.4567V24.7865H92.4579Z" fill="white"/>
<path d="M97.8761 24.7863V17.8252H98.7727V24.7863H97.8761Z" fill="white"/>
<path d="M102.752 24.7865H101.854V18.6802H99.9044V17.8242H104.701V18.6802H102.751V24.7865H102.752Z" fill="white"/>
<path d="M113.781 23.8873C113.096 24.5905 112.242 24.9421 111.221 24.9421C110.201 24.9421 109.347 24.5905 108.662 23.8873C107.977 23.184 107.635 22.3237 107.635 21.3061C107.635 20.2886 107.977 19.4282 108.662 18.725C109.347 18.0217 110.201 17.6689 111.221 17.6689C112.242 17.6689 113.087 18.0228 113.777 18.7294C114.465 19.436 114.809 20.2942 114.809 21.3061C114.809 22.3179 114.466 23.184 113.781 23.8873ZM109.326 23.3038C109.843 23.8251 110.474 24.0862 111.222 24.0862C111.971 24.0862 112.603 23.8261 113.119 23.3038C113.636 22.7826 113.894 22.1156 113.894 21.3061C113.894 20.4966 113.635 19.8295 113.119 19.3083C112.603 18.7871 111.971 18.5259 111.222 18.5259C110.474 18.5259 109.843 18.786 109.326 19.3083C108.81 19.8295 108.552 20.4966 108.552 21.3061C108.552 22.1156 108.81 22.7826 109.326 23.3038Z" fill="white"/>
<path d="M116.071 24.7863V17.8252H117.162L120.555 23.2408H120.594L120.555 21.8988V17.8252H121.452V24.7863H120.516L116.966 19.1084H116.929L116.966 20.4504V24.7863H116.071Z" fill="white"/>
<path d="M107.412 34.9406C106.033 34.9406 104.782 35.4675 103.882 36.3561C102.994 37.2312 102.445 38.4568 102.445 39.8756C102.445 41.376 103.068 42.6683 104.057 43.5535C104.941 44.3449 106.12 44.8108 107.412 44.8108C108.626 44.8108 109.74 44.3981 110.605 43.6914C111.689 42.8051 112.379 41.4562 112.379 39.8756C112.379 38.7055 112.006 37.6665 111.378 36.848C110.469 35.6653 109.029 34.9418 107.413 34.9418L107.412 34.9406ZM107.412 42.8661C105.912 42.8661 104.619 41.6326 104.619 39.8756C104.619 38.1187 105.913 36.8852 107.412 36.8852C108.91 36.8852 110.204 38.1006 110.204 39.8756C110.204 41.6507 108.91 42.8661 107.412 42.8661ZM96.5773 34.9406C95.5514 34.9406 94.5957 35.2323 93.8033 35.7479C92.4814 36.6071 91.6108 38.0882 91.6108 39.8756C91.6108 41.2968 92.1686 42.5303 93.0675 43.4088C93.9677 44.2873 95.209 44.8108 96.5773 44.8108C97.7124 44.8108 98.7594 44.4512 99.5978 43.8271C100.78 42.9464 101.544 41.54 101.544 39.8768C101.544 38.9282 101.299 38.0667 100.872 37.3375C100.01 35.8688 98.4072 34.9418 96.5773 34.9418V34.9406ZM96.5773 42.8661C95.0776 42.8661 93.7852 41.6326 93.7852 39.8756C93.7852 38.1187 95.0786 36.8852 96.5773 36.8852C98.0763 36.8852 99.3698 38.1006 99.3698 39.8756C99.3698 41.6507 98.0763 42.8661 96.5773 42.8661ZM83.6877 36.4556V38.5495H88.7109C88.5613 39.7276 88.1679 40.5868 87.567 41.1849C86.8359 41.9141 85.6931 42.718 83.6877 42.718C80.5951 42.718 78.177 40.2318 78.177 37.1475C78.177 34.0633 80.5951 31.5771 83.6877 31.5771C85.3564 31.5771 86.574 32.2317 87.4741 33.0729L88.9546 31.5963C87.6985 30.4002 86.031 29.4844 83.6877 29.4844C82.2491 29.4844 80.8875 29.8812 79.7176 30.5709C77.4435 31.9118 75.8904 34.3584 75.8904 37.1475C75.8904 39.9368 77.5422 42.5382 79.9342 43.8486C81.0542 44.4625 82.3363 44.8118 83.6866 44.8118C85.9732 44.8118 87.6975 44.0645 89.0465 42.6626C90.4329 41.2799 90.8648 39.3353 90.8648 37.7649C90.8648 37.2787 90.8275 36.8298 90.7527 36.4567H83.6866L83.6877 36.4556ZM136.399 38.0814C135.986 36.9791 134.732 34.9418 132.164 34.9418C131.068 34.9418 130.05 35.3126 129.247 35.9684C128.184 36.8366 127.497 38.2046 127.497 39.8768C127.497 42.6433 129.596 44.8118 132.408 44.8118C134.675 44.8118 135.987 43.4291 136.531 42.6253L134.843 41.5038C134.282 42.3256 133.513 42.8684 132.408 42.8684C131.303 42.8684 130.515 42.3642 130.009 41.3726L136.625 38.6433L136.401 38.0825L136.399 38.0814ZM129.652 39.7264C129.595 37.8203 131.132 36.848 132.238 36.848C133.101 36.848 133.83 37.2776 134.074 37.8949L131.764 38.8513L129.652 39.7264ZM124.273 44.5111H126.447V30.0067H124.273V44.5111ZM120.711 36.0441H120.637C120.15 35.4653 119.212 34.9418 118.031 34.9418C116.851 34.9418 115.788 35.4053 114.936 36.1797C113.945 37.0797 113.289 38.398 113.289 39.896C113.289 41.6247 114.175 43.1138 115.443 43.9866C116.204 44.51 117.104 44.813 118.03 44.813C119.212 44.813 120.149 44.2895 120.636 43.6914H120.71V44.4015C120.71 46.2896 119.698 47.2992 118.068 47.2992C116.737 47.2992 115.913 46.3461 115.575 45.5422L113.682 46.3268C114.225 47.635 115.669 49.2427 118.068 49.2427C120.617 49.2427 122.772 47.7469 122.772 44.1019V35.2414H120.71V36.0452L120.711 36.0441ZM118.219 42.8661C116.719 42.8661 115.464 41.6134 115.464 39.8938C115.464 38.1741 116.72 36.8841 118.219 36.8841C119.718 36.8841 120.862 38.1549 120.862 39.8938C120.862 41.6326 119.699 42.8661 118.219 42.8661ZM146.583 30.0067H141.382V44.5111H143.552V39.0153H146.585C147.967 39.0153 149.337 38.441 150.252 37.4268C150.928 36.6772 151.356 35.6868 151.356 34.511C151.356 33.3352 150.94 32.3731 150.281 31.6269C149.366 30.5923 147.982 30.0055 146.585 30.0055L146.583 30.0067ZM146.64 36.9972H143.552V32.0248H146.64C148.263 32.0248 149.185 33.3646 149.185 34.511C149.185 35.6574 148.263 36.9972 146.64 36.9972ZM160.056 34.9146C158.484 34.9146 156.857 35.6054 156.181 37.1351L158.109 37.9379C158.521 37.1351 159.288 36.874 160.093 36.874C161.215 36.874 162.356 37.5456 162.376 38.7395V38.8887C161.983 38.6648 161.142 38.329 160.112 38.329C159.218 38.329 158.319 38.5393 157.582 38.9486C156.608 39.4913 155.921 40.3822 155.921 41.5942C155.921 42.6467 156.422 43.4959 157.185 44.0532C157.829 44.5236 158.658 44.7848 159.533 44.7848C160.992 44.7848 161.797 44.1313 162.302 43.3669H162.377V44.4863H164.473V38.926C164.473 37.3974 163.794 36.2702 162.721 35.6054C161.987 35.151 161.069 34.9135 160.058 34.9135L160.056 34.9146ZM159.794 42.8639C159.082 42.8639 158.091 42.5088 158.091 41.6326C158.091 40.5133 159.325 40.0837 160.391 40.0837C161.346 40.0837 161.796 40.2895 162.375 40.5688C162.206 41.9119 161.046 42.8639 159.792 42.8639H159.794ZM172.104 35.2312L171.074 37.8349L169.616 41.5196H169.542L166.96 35.2312H164.62L166.489 39.4709L168.494 44.0204L166.286 48.9091H168.55L172.784 39.2052L174.519 35.23H172.104V35.2312ZM152.551 44.5111H154.723V30.0067H152.551V44.5111Z" fill="white"/>
<path d="M59.4334 27.4381L42.1452 17.3215C41.2609 16.8038 40.2156 17.0999 39.676 17.8269L54.3183 32.5145L59.4346 27.437L59.4334 27.4381Z" fill="url(#paint0_linear_1539_381)"/>
<path d="M39.3115 46.007C39.3115 46.4163 39.4374 46.7815 39.646 47.0788L54.3189 32.5167L39.6766 17.8291C39.4499 18.1344 39.3115 18.5143 39.3115 18.9428V46.007Z" fill="url(#paint1_linear_1539_381)"/>
<path d="M59.347 37.5606L65.2726 34.093C66.5117 33.3672 66.5117 31.5808 65.2726 30.8549L59.4342 27.4395L54.3181 32.5169L59.347 37.5616V37.5606Z" fill="url(#paint2_linear_1539_381)"/>
<path d="M39.6455 47.0777C40.176 47.8352 41.2451 48.1529 42.1464 47.625L59.3473 37.5604L54.3184 32.5156L39.6455 47.0777Z" fill="url(#paint3_linear_1539_381)"/>
</g>
</g>
</g>
</g>
<defs>
<linearGradient id="paint0_linear_1539_381" x1="16.2514" y1="-3.30959" x2="51.8328" y2="26.0027" gradientUnits="userSpaceOnUse">
<stop stop-color="#32A071"/>
<stop offset="0.07" stop-color="#2DA771"/>
<stop offset="0.48" stop-color="#15CF74"/>
<stop offset="0.8" stop-color="#06E775"/>
<stop offset="1" stop-color="#00F076"/>
</linearGradient>
<linearGradient id="paint1_linear_1539_381" x1="64.5478" y1="32.3075" x2="37.9217" y2="32.4644" gradientUnits="userSpaceOnUse">
<stop stop-color="#00A1FF"/>
<stop offset="0.26" stop-color="#00BEFF"/>
<stop offset="0.51" stop-color="#00D2FF"/>
<stop offset="0.76" stop-color="#00DFFF"/>
<stop offset="1" stop-color="#00E3FF"/>
</linearGradient>
<linearGradient id="paint2_linear_1539_381" x1="68.2768" y1="33.1953" x2="44.243" y2="31.305" gradientUnits="userSpaceOnUse">
<stop stop-color="#FFE000"/>
<stop offset="0.41" stop-color="#FFBD00"/>
<stop offset="0.78" stop-color="#FFA500"/>
<stop offset="1" stop-color="#FF9C00"/>
</linearGradient>
<linearGradient id="paint3_linear_1539_381" x1="65.1471" y1="29.5343" x2="18.9614" y2="60.2771" gradientUnits="userSpaceOnUse">
<stop stop-color="#FF3A44"/>
<stop offset="1" stop-color="#C31162"/>
</linearGradient>
<clipPath id="clip0_1539_381">
<rect width="212.504" height="65" fill="white"/>
</clipPath>
<clipPath id="clip1_1539_381">
<rect width="212.504" height="65" fill="white" transform="translate(-0.000488281)"/>
</clipPath>
<clipPath id="clip2_1539_381">
<rect width="212.504" height="65.0127" fill="white" transform="translate(-0.000976562 -0.00585938)"/>
</clipPath>
</defs>
</svg>
