<svg width="241" height="74" viewBox="0 0 241 74" fill="none" xmlns="http://www.w3.org/2000/svg">
<g clip-path="url(#clip0_809_6785)">
<path d="M17.7013 0H223.299C233.068 0 241 7.91051 241 17.6535V56.3477C241 66.0908 233.068 74.0013 223.299 74.0013H17.7013C7.93191 74 0 66.0908 0 56.3464V17.6535C0 7.91051 7.93191 0 17.7013 0Z" fill="black"/>
<path d="M94.8307 24.5798C94.8307 25.6865 94.5017 26.5681 93.8436 27.2244C93.0965 28.0055 92.1222 28.3967 90.9248 28.3967C89.7273 28.3967 88.8021 28.0004 88.0008 27.2076C87.1982 26.4149 86.7969 25.4317 86.7969 24.2581C86.7969 23.0844 87.1982 22.1013 88.0008 21.3085C88.8021 20.5158 89.7776 20.1182 90.9248 20.1182C91.4938 20.1182 92.0384 20.2288 92.5558 20.4502C93.0732 20.6715 93.4887 20.9662 93.7984 21.3356L93.1003 22.0331C92.5739 21.4063 91.85 21.0923 90.9248 21.0923C90.0886 21.0923 89.3647 21.3857 88.7544 21.9713C88.144 22.5581 87.8382 23.3199 87.8382 24.2568C87.8382 25.1937 88.1427 25.9555 88.7544 26.5423C89.3647 27.1291 90.0873 27.4213 90.9248 27.4213C91.8125 27.4213 92.5519 27.1266 93.1442 26.5372C93.5287 26.1524 93.7507 25.6183 93.81 24.9324H90.9248V23.9801H94.7752C94.8127 24.1873 94.8307 24.3855 94.8307 24.5785V24.5798Z" fill="white"/>
<path d="M100.936 21.2717H97.3176V23.7837H100.581V24.736H97.3176V27.248H100.936V28.2222H96.2969V20.2988H100.936V21.273V21.2717Z" fill="white"/>
<path d="M105.241 28.2206H104.219V21.2701H102V20.2959H107.46V21.2701H105.24V28.2206H105.241Z" fill="white"/>
<path d="M111.41 28.2203V20.2969H112.431V28.2203H111.41Z" fill="white"/>
<path d="M116.96 28.2206H115.938V21.2701H113.719V20.2959H119.178V21.2701H116.959V28.2206H116.96Z" fill="white"/>
<path d="M129.512 27.197C128.731 27.9975 127.76 28.3977 126.598 28.3977C125.437 28.3977 124.465 27.9975 123.686 27.197C122.905 26.3966 122.516 25.4173 122.516 24.2591C122.516 23.1009 122.905 22.1215 123.686 21.3211C124.465 20.5206 125.437 20.1191 126.598 20.1191C127.76 20.1191 128.722 20.5219 129.507 21.3262C130.29 22.1305 130.682 23.1073 130.682 24.2591C130.682 25.4108 130.291 26.3966 129.512 27.197ZM124.441 26.533C125.029 27.1263 125.748 27.4235 126.6 27.4235C127.451 27.4235 128.171 27.1275 128.758 26.533C129.347 25.9397 129.641 25.1805 129.641 24.2591C129.641 23.3377 129.346 22.5784 128.758 21.9851C128.171 21.3919 127.451 21.0946 126.6 21.0946C125.748 21.0946 125.029 21.3906 124.441 21.9851C123.854 22.5784 123.56 23.3377 123.56 24.2591C123.56 25.1805 123.854 25.9397 124.441 26.533Z" fill="white"/>
<path d="M132.118 28.2203V20.2969H133.361L137.222 26.4611H137.266L137.222 24.9335V20.2969H138.244V28.2203H137.178L133.138 21.7575H133.094L133.138 23.285V28.2203H132.117H132.118Z" fill="white"/>
<path d="M122.262 39.7779C120.692 39.7779 119.269 40.3776 118.243 41.3891C117.233 42.3851 116.608 43.7801 116.608 45.3952C116.608 47.1029 117.317 48.5738 118.443 49.5814C119.45 50.4823 120.792 51.0125 122.262 51.0125C123.644 51.0125 124.912 50.5427 125.897 49.7384C127.13 48.7295 127.916 47.1943 127.916 45.3952C127.916 44.0633 127.49 42.8806 126.775 41.9489C125.742 40.6028 124.103 39.7792 122.263 39.7792L122.262 39.7779ZM122.262 48.799C120.554 48.799 119.083 47.395 119.083 45.3952C119.083 43.3954 120.556 41.9914 122.262 41.9914C123.967 41.9914 125.44 43.3748 125.44 45.3952C125.44 47.4156 123.967 48.799 122.262 48.799ZM109.929 39.7779C108.762 39.7779 107.674 40.1099 106.772 40.6967C105.267 41.6748 104.276 43.3606 104.276 45.3952C104.276 47.0128 104.911 48.4168 105.935 49.4167C106.959 50.4166 108.372 51.0125 109.929 51.0125C111.221 51.0125 112.413 50.6032 113.367 49.8929C114.713 48.8904 115.583 47.2895 115.583 45.3965C115.583 44.3168 115.304 43.3362 114.817 42.5061C113.837 40.8344 112.012 39.7792 109.929 39.7792V39.7779ZM109.929 48.799C108.222 48.799 106.751 47.395 106.751 45.3952C106.751 43.3954 108.224 41.9914 109.929 41.9914C111.635 41.9914 113.108 43.3748 113.108 45.3952C113.108 47.4156 111.635 48.799 109.929 48.799ZM95.258 41.5023V43.8857H100.976C100.805 45.2266 100.358 46.2046 99.6736 46.8854C98.8413 47.7154 97.5406 48.6304 95.258 48.6304C91.7378 48.6304 88.9855 45.8006 88.9855 42.2899C88.9855 38.7793 91.7378 35.9494 95.258 35.9494C97.1574 35.9494 98.5433 36.6945 99.5678 37.652L101.253 35.9713C99.8233 34.6098 97.9252 33.5674 95.258 33.5674C93.6205 33.5674 92.0708 34.0191 90.7391 34.8041C88.1506 36.3303 86.3828 39.1152 86.3828 42.2899C86.3828 45.4647 88.2629 48.4258 90.9856 49.9173C92.2604 50.6161 93.7199 51.0137 95.2567 51.0137C97.8594 51.0137 99.822 50.1631 101.358 48.5674C102.936 46.9935 103.427 44.78 103.427 42.9926C103.427 42.4392 103.385 41.9283 103.3 41.5036H95.2567L95.258 41.5023ZM155.256 43.3529C154.787 42.0982 153.358 39.7792 150.436 39.7792C149.188 39.7792 148.029 40.2013 147.115 40.9477C145.905 41.936 145.123 43.4932 145.123 45.3965C145.123 48.5455 147.513 51.0137 150.713 51.0137C153.294 51.0137 154.788 49.4399 155.406 48.5249L153.486 47.2483C152.846 48.1839 151.971 48.8016 150.713 48.8016C149.455 48.8016 148.558 48.2276 147.983 47.099L155.513 43.9925L155.258 43.3542L155.256 43.3529ZM147.576 45.2253C147.512 43.0556 149.261 41.9489 150.519 41.9489C151.501 41.9489 152.332 42.4379 152.61 43.1406L149.98 44.2293L147.576 45.2253ZM141.453 50.6714H143.928V34.1619H141.453V50.6714ZM137.4 41.0339H137.315C136.76 40.375 135.693 39.7792 134.35 39.7792C133.006 39.7792 131.796 40.3068 130.826 41.1883C129.698 42.2127 128.952 43.7132 128.952 45.4183C128.952 47.386 129.96 49.0808 131.404 50.0743C132.27 50.6701 133.293 51.015 134.348 51.015C135.693 51.015 136.759 50.4192 137.314 49.7384H137.399V50.5466C137.399 52.6957 136.247 53.8449 134.391 53.8449C132.876 53.8449 131.938 52.76 131.554 51.8451L129.399 52.7382C130.017 54.2271 131.659 56.0571 134.391 56.0571C137.293 56.0571 139.746 54.3545 139.746 50.2056V40.1202H137.399V41.0352L137.4 41.0339ZM134.563 48.799C132.856 48.799 131.427 47.3731 131.427 45.4158C131.427 43.4584 132.857 41.9901 134.563 41.9901C136.269 41.9901 137.571 43.4365 137.571 45.4158C137.571 47.395 136.248 48.799 134.563 48.799ZM166.848 34.1619H160.928V50.6714H163.399V44.4159H166.849C168.423 44.4159 169.983 43.7621 171.025 42.6078C171.794 41.7546 172.28 40.6273 172.28 39.2889C172.28 37.9505 171.808 36.8554 171.057 36.006C170.016 34.8285 168.44 34.1606 166.849 34.1606L166.848 34.1619ZM166.912 42.1188H163.399V36.459H166.912C168.76 36.459 169.809 37.984 169.809 39.2889C169.809 40.5938 168.76 42.1188 166.912 42.1188ZM182.183 39.7483C180.394 39.7483 178.541 40.5346 177.773 42.2758L179.967 43.1895C180.435 42.2758 181.309 41.9785 182.225 41.9785C183.503 41.9785 184.802 42.7429 184.824 44.1019V44.2717C184.376 44.0169 183.419 43.6347 182.247 43.6347C181.23 43.6347 180.206 43.8741 179.368 44.3399C178.259 44.9576 177.477 45.9717 177.477 47.3513C177.477 48.5494 178.047 49.5158 178.915 50.1502C179.648 50.6856 180.593 50.9829 181.588 50.9829C183.248 50.9829 184.165 50.239 184.74 49.3691H184.825V50.6431H187.211V44.3142C187.211 42.5743 186.438 41.2913 185.217 40.5346C184.381 40.0173 183.336 39.747 182.185 39.747L182.183 39.7483ZM181.884 48.7964C181.075 48.7964 179.946 48.3923 179.946 47.395C179.946 46.121 181.352 45.632 182.566 45.632C183.652 45.632 184.163 45.8662 184.823 46.184C184.63 47.7129 183.31 48.7964 181.883 48.7964H181.884ZM195.898 40.1086L194.725 43.0723L193.066 47.2663H192.98L190.041 40.1086H187.379L189.505 44.9345L191.788 50.1129L189.274 55.6774H191.851L196.671 44.6321L198.645 40.1074H195.898V40.1086ZM173.642 50.6714H176.113V34.1619H173.642V50.6714Z" fill="white"/>
<path d="M67.6526 31.2389L47.9745 19.7238C46.968 19.1345 45.7783 19.4716 45.1641 20.2991L61.8305 37.0171L67.6539 31.2376L67.6526 31.2389Z" fill="url(#paint0_linear_809_6785)"/>
<path d="M44.75 52.3739C44.75 52.8398 44.8932 53.2554 45.1307 53.5939L61.8319 37.0188L45.1655 20.3008C44.9074 20.6482 44.75 21.0806 44.75 21.5684V52.3739Z" fill="url(#paint1_linear_809_6785)"/>
<path d="M67.5522 42.7595L74.297 38.8126C75.7074 37.9864 75.7074 35.9531 74.297 35.1269L67.6516 31.2393L61.8281 37.0187L67.5522 42.7608V42.7595Z" fill="url(#paint2_linear_809_6785)"/>
<path d="M45.1289 53.5927C45.7328 54.4549 46.9496 54.8165 47.9755 54.2156L67.5543 42.7597L61.8302 37.0176L45.1289 53.5927Z" fill="url(#paint3_linear_809_6785)"/>
</g>
<defs>
<linearGradient id="paint0_linear_809_6785" x1="18.5011" y1="-3.75931" x2="59.0013" y2="29.6051" gradientUnits="userSpaceOnUse">
<stop stop-color="#32A071"/>
<stop offset="0.07" stop-color="#2DA771"/>
<stop offset="0.48" stop-color="#15CF74"/>
<stop offset="0.8" stop-color="#06E775"/>
<stop offset="1" stop-color="#00F076"/>
</linearGradient>
<linearGradient id="paint1_linear_809_6785" x1="73.4749" y1="36.7807" x2="43.168" y2="36.9592" gradientUnits="userSpaceOnUse">
<stop stop-color="#00A1FF"/>
<stop offset="0.26" stop-color="#00BEFF"/>
<stop offset="0.51" stop-color="#00D2FF"/>
<stop offset="0.76" stop-color="#00DFFF"/>
<stop offset="1" stop-color="#00E3FF"/>
</linearGradient>
<linearGradient id="paint2_linear_809_6785" x1="77.7165" y1="37.7908" x2="50.3602" y2="35.6392" gradientUnits="userSpaceOnUse">
<stop stop-color="#FFE000"/>
<stop offset="0.41" stop-color="#FFBD00"/>
<stop offset="0.78" stop-color="#FFA500"/>
<stop offset="1" stop-color="#FF9C00"/>
</linearGradient>
<linearGradient id="paint3_linear_809_6785" x1="74.1558" y1="33.624" x2="21.5855" y2="68.6168" gradientUnits="userSpaceOnUse">
<stop stop-color="#FF3A44"/>
<stop offset="1" stop-color="#C31162"/>
</linearGradient>
<clipPath id="clip0_809_6785">
<rect width="241" height="74" fill="white"/>
</clipPath>
</defs>
</svg>
