<svg width="219" height="67" viewBox="0 0 219 67" fill="none" xmlns="http://www.w3.org/2000/svg">
<g clip-path="url(#clip0_1234_677)">
<path d="M16.0269 0H202.176C211.021 0 218.203 7.16222 218.203 15.9836V51.0175C218.203 59.8389 211.021 67.0012 202.176 67.0012H16.0269C7.18159 67 0 59.8389 0 51.0164V15.9836C0 7.16222 7.18159 0 16.0269 0Z" fill="black"/>
<path d="M85.8598 22.2547C85.8598 23.2567 85.5619 24.0549 84.9661 24.6491C84.2896 25.3563 83.4075 25.7105 82.3234 25.7105C81.2392 25.7105 80.4015 25.3517 79.676 24.6339C78.9493 23.9162 78.5859 23.026 78.5859 21.9634C78.5859 20.9008 78.9493 20.0106 79.676 19.2929C80.4015 18.5751 81.2847 18.2151 82.3234 18.2151C82.8386 18.2151 83.3316 18.3153 83.8001 18.5157C84.2686 18.7161 84.6448 18.9829 84.9252 19.3173L84.2931 19.9488C83.8165 19.3814 83.161 19.0971 82.3234 19.0971C81.5663 19.0971 80.9109 19.3628 80.3583 19.8929C79.8056 20.4242 79.5288 21.114 79.5288 21.9622C79.5288 22.8105 79.8045 23.5002 80.3583 24.0315C80.9109 24.5629 81.5651 24.8274 82.3234 24.8274C83.1272 24.8274 83.7966 24.5605 84.3328 24.0269C84.681 23.6785 84.882 23.195 84.9357 22.5739H82.3234V21.7117H85.8096C85.8435 21.8993 85.8598 22.0787 85.8598 22.2535V22.2547Z" fill="white"/>
<path d="M91.3876 19.2595H88.1116V21.5339H91.0663V22.3961H88.1116V24.6705H91.3876V25.5525H87.1875V18.3787H91.3876V19.2607V19.2595Z" fill="white"/>
<path d="M95.2864 25.5511H94.3611V19.2581H92.3516V18.376H97.2947V19.2581H95.2852V25.5511H95.2864Z" fill="white"/>
<path d="M100.871 25.5508V18.3769H101.795V25.5508H100.871Z" fill="white"/>
<path d="M105.896 25.5511H104.97V19.2581H102.961V18.376H107.904V19.2581H105.895V25.5511H105.896Z" fill="white"/>
<path d="M117.26 24.6244C116.554 25.3491 115.674 25.7115 114.622 25.7115C113.571 25.7115 112.691 25.3491 111.985 24.6244C111.279 23.8996 110.926 23.013 110.926 21.9643C110.926 20.9157 111.279 20.029 111.985 19.3043C112.691 18.5795 113.571 18.216 114.622 18.216C115.674 18.216 116.545 18.5807 117.256 19.3089C117.965 20.0371 118.32 20.9215 118.32 21.9643C118.32 23.0071 117.966 23.8996 117.26 24.6244ZM112.669 24.0231C113.202 24.5603 113.852 24.8294 114.623 24.8294C115.395 24.8294 116.046 24.5614 116.578 24.0231C117.111 23.486 117.377 22.7986 117.377 21.9643C117.377 21.1301 117.11 20.4426 116.578 19.9055C116.046 19.3683 115.395 19.0992 114.623 19.0992C113.852 19.0992 113.202 19.3672 112.669 19.9055C112.137 20.4426 111.871 21.1301 111.871 21.9643C111.871 22.7986 112.137 23.486 112.669 24.0231Z" fill="white"/>
<path d="M119.622 25.5508V18.3769H120.747L124.243 23.958H124.283L124.243 22.575V18.3769H125.168V25.5508H124.203L120.545 19.6993H120.506L120.545 21.0824V25.5508H119.621H119.622Z" fill="white"/>
<path d="M110.696 36.0151C109.275 36.0151 107.986 36.5581 107.058 37.4739C106.143 38.3757 105.577 39.6388 105.577 41.101C105.577 42.6472 106.219 43.979 107.239 44.8913C108.15 45.7069 109.365 46.187 110.696 46.187C111.947 46.187 113.095 45.7617 113.987 45.0334C115.104 44.12 115.815 42.7299 115.815 41.101C115.815 39.8951 115.43 38.8243 114.783 37.9808C113.847 36.762 112.363 36.0163 110.697 36.0163L110.696 36.0151ZM110.696 44.1829C109.15 44.1829 107.818 42.9117 107.818 41.101C107.818 39.2904 109.151 38.0192 110.696 38.0192C112.24 38.0192 113.573 39.2717 113.573 41.101C113.573 42.9303 112.24 44.1829 110.696 44.1829ZM99.5302 36.0151C98.4729 36.0151 97.488 36.3157 96.6714 36.8471C95.3091 37.7326 94.4119 39.2589 94.4119 41.101C94.4119 42.5656 94.9867 43.8368 95.9131 44.7422C96.8408 45.6475 98.1201 46.187 99.5302 46.187C100.7 46.187 101.779 45.8164 102.643 45.1733C103.861 44.2656 104.649 42.8162 104.649 41.1022C104.649 40.1246 104.396 39.2368 103.956 38.4853C103.068 36.9717 101.416 36.0163 99.5302 36.0163V36.0151ZM99.5302 44.1829C97.9846 44.1829 96.6527 42.9117 96.6527 41.101C96.6527 39.2904 97.9857 38.0192 99.5302 38.0192C101.075 38.0192 102.408 39.2717 102.408 41.101C102.408 42.9303 101.075 44.1829 99.5302 44.1829ZM86.2466 37.5764V39.7343H91.4233C91.2691 40.9484 90.8637 41.8339 90.2445 42.4503C89.491 43.2018 88.3133 44.0302 86.2466 44.0302C83.0594 44.0302 80.5674 41.4681 80.5674 38.2895C80.5674 35.111 83.0594 32.5488 86.2466 32.5488C87.9663 32.5488 89.2211 33.2234 90.1487 34.0903L91.6745 32.5686C90.38 31.3359 88.6615 30.3921 86.2466 30.3921C84.764 30.3921 83.3608 30.8011 82.1551 31.5118C79.8115 32.8937 78.2109 35.4151 78.2109 38.2895C78.2109 41.164 79.9132 43.845 82.3783 45.1954C83.5326 45.8281 84.8539 46.1881 86.2454 46.1881C88.6019 46.1881 90.3789 45.4179 91.7692 43.9732C93.198 42.5482 93.6431 40.5441 93.6431 38.9257C93.6431 38.4247 93.6046 37.9621 93.5275 37.5776H86.2454L86.2466 37.5764ZM140.569 39.2519C140.144 38.1159 138.851 36.0163 136.205 36.0163C135.075 36.0163 134.026 36.3985 133.199 37.0743C132.103 37.9691 131.395 39.3789 131.395 41.1022C131.395 43.9533 133.558 46.1881 136.456 46.1881C138.792 46.1881 140.145 44.7631 140.705 43.9347L138.966 42.7789C138.387 43.6259 137.595 44.1852 136.456 44.1852C135.317 44.1852 134.505 43.6656 133.984 42.6437L140.802 39.831L140.571 39.2531L140.569 39.2519ZM133.616 40.9472C133.557 38.9828 135.141 37.9808 136.281 37.9808C137.17 37.9808 137.922 38.4235 138.173 39.0597L135.792 40.0454L133.616 40.9472ZM128.072 45.8782H130.313V30.9304H128.072V45.8782ZM124.402 37.1523H124.325C123.823 36.5558 122.857 36.0163 121.64 36.0163C120.424 36.0163 119.328 36.494 118.45 37.2921C117.429 38.2196 116.753 39.5782 116.753 41.122C116.753 42.9035 117.666 44.4381 118.973 45.3376C119.757 45.877 120.684 46.1893 121.639 46.1893C122.857 46.1893 123.822 45.6498 124.324 45.0334H124.401V45.7652C124.401 47.711 123.358 48.7515 121.678 48.7515C120.306 48.7515 119.457 47.7692 119.109 46.9408L117.158 47.7494C117.717 49.0975 119.205 50.7544 121.678 50.7544C124.305 50.7544 126.526 49.2129 126.526 45.4564V36.3251H124.401V37.1535L124.402 37.1523ZM121.833 44.1829C120.288 44.1829 118.994 42.8919 118.994 41.1197C118.994 39.3475 120.289 38.018 121.833 38.018C123.378 38.018 124.557 39.3277 124.557 41.1197C124.557 42.9117 123.359 44.1829 121.833 44.1829ZM151.064 30.9304H145.704V45.8782H147.941V40.2144H151.066C152.491 40.2144 153.903 39.6225 154.846 38.5773C155.542 37.8048 155.983 36.7841 155.983 35.5724C155.983 34.3606 155.555 33.3691 154.875 32.6001C153.933 31.5339 152.506 30.9292 151.066 30.9292L151.064 30.9304ZM151.123 38.1346H147.941V33.0102H151.123C152.796 33.0102 153.746 34.3909 153.746 35.5724C153.746 36.7538 152.796 38.1346 151.123 38.1346ZM164.949 35.9883C163.329 35.9883 161.652 36.7002 160.956 38.2767L162.943 39.104C163.367 38.2767 164.158 38.0076 164.987 38.0076C166.144 38.0076 167.32 38.6997 167.34 39.9301V40.0839C166.935 39.8532 166.068 39.5071 165.007 39.5071C164.086 39.5071 163.159 39.7238 162.4 40.1456C161.396 40.7049 160.688 41.623 160.688 42.8721C160.688 43.9568 161.204 44.8319 161.99 45.4063C162.654 45.891 163.509 46.1602 164.41 46.1602C165.914 46.1602 166.743 45.4867 167.264 44.699H167.341V45.8526H169.501V40.1223C169.501 38.547 168.802 37.3854 167.696 36.7002C166.939 36.2319 165.993 35.9872 164.951 35.9872L164.949 35.9883ZM164.679 44.1806C163.946 44.1806 162.924 43.8147 162.924 42.9117C162.924 41.7582 164.196 41.3154 165.295 41.3154C166.279 41.3154 166.742 41.5275 167.339 41.8153C167.165 43.1995 165.97 44.1806 164.677 44.1806H164.679ZM177.366 36.3146L176.304 38.9979L174.802 42.7952H174.725L172.064 36.3146H169.653L171.579 40.6839L173.645 45.3725L171.37 50.4106H173.703L178.066 40.4101L179.854 36.3134H177.366V36.3146ZM157.215 45.8782H159.453V30.9304H157.215V45.8782Z" fill="white"/>
<path d="M61.2519 28.2839L43.4352 17.8581C42.5239 17.3245 41.4467 17.6297 40.8906 18.3789L55.9805 33.5155L61.2531 28.2828L61.2519 28.2839Z" fill="url(#paint0_linear_1234_677)"/>
<path d="M40.5156 47.4196C40.5156 47.8414 40.6453 48.2178 40.8603 48.5242L55.9817 33.517L40.8918 18.3804C40.6582 18.695 40.5156 19.0865 40.5156 19.5281V47.4196Z" fill="url(#paint1_linear_1234_677)"/>
<path d="M61.1631 38.7147L67.2698 35.1411C68.5468 34.3931 68.5468 32.5521 67.2698 31.8041L61.253 28.2842L55.9805 33.5169L61.1631 38.7158V38.7147Z" fill="url(#paint2_linear_1234_677)"/>
<path d="M40.8594 48.5231C41.4061 49.3038 42.5079 49.6312 43.4367 49.0871L61.1634 38.7149L55.9808 33.5159L40.8594 48.5231Z" fill="url(#paint3_linear_1234_677)"/>
</g>
<defs>
<linearGradient id="paint0_linear_1234_677" x1="16.7499" y1="-3.40368" x2="53.419" y2="26.8046" gradientUnits="userSpaceOnUse">
<stop stop-color="#32A071"/>
<stop offset="0.07" stop-color="#2DA771"/>
<stop offset="0.48" stop-color="#15CF74"/>
<stop offset="0.8" stop-color="#06E775"/>
<stop offset="1" stop-color="#00F076"/>
</linearGradient>
<linearGradient id="paint1_linear_1234_677" x1="66.5233" y1="33.3014" x2="39.0833" y2="33.4631" gradientUnits="userSpaceOnUse">
<stop stop-color="#00A1FF"/>
<stop offset="0.26" stop-color="#00BEFF"/>
<stop offset="0.51" stop-color="#00D2FF"/>
<stop offset="0.76" stop-color="#00DFFF"/>
<stop offset="1" stop-color="#00E3FF"/>
</linearGradient>
<linearGradient id="paint2_linear_1234_677" x1="70.3659" y1="34.216" x2="45.5974" y2="32.2679" gradientUnits="userSpaceOnUse">
<stop stop-color="#FFE000"/>
<stop offset="0.41" stop-color="#FFBD00"/>
<stop offset="0.78" stop-color="#FFA500"/>
<stop offset="1" stop-color="#FF9C00"/>
</linearGradient>
<linearGradient id="paint3_linear_1234_677" x1="67.1405" y1="30.4434" x2="19.543" y2="62.126" gradientUnits="userSpaceOnUse">
<stop stop-color="#FF3A44"/>
<stop offset="1" stop-color="#C31162"/>
</linearGradient>
<clipPath id="clip0_1234_677">
<rect width="218.203" height="67" fill="white"/>
</clipPath>
</defs>
</svg>
