<svg width="222" height="63" viewBox="0 0 222 63" fill="none" xmlns="http://www.w3.org/2000/svg">
<g clip-path="url(#clip0_3021_609)">
<mask id="mask0_3021_609" style="mask-type:luminance" maskUnits="userSpaceOnUse" x="0" y="0" width="222" height="63">
<path d="M221.311 0H0V62.0606H221.311V0Z" fill="white"/>
</mask>
<g mask="url(#mask0_3021_609)">
<path d="M30.0269 61.8052V51.5536H32.0953C33.5175 51.5536 34.5517 51.6556 35.2181 51.8698C35.8843 52.084 36.4511 52.4207 36.9385 52.8796C37.4158 53.3387 37.7937 53.91 38.0522 54.5731C38.3108 55.236 38.44 56.0215 38.44 56.9089C38.44 57.7964 38.2412 58.6328 37.8335 59.4183C37.4257 60.2037 36.8788 60.7954 36.1926 61.1932C35.4965 61.591 34.5019 61.795 33.2092 61.795H30.0269V61.8052ZM30.9915 60.8361H32.145C33.3484 60.8361 34.2235 60.775 34.7706 60.6526C35.3174 60.5301 35.7849 60.2854 36.1926 59.9181C36.6003 59.551 36.9086 59.1021 37.1274 58.5819C37.3362 58.0617 37.4457 57.4598 37.4457 56.7866C37.4457 56.1133 37.3263 55.4911 37.0777 54.9198C36.8291 54.3485 36.4811 53.8794 36.0235 53.502C35.5661 53.1347 35.0291 52.8798 34.4125 52.7572C33.7959 52.6247 32.8909 52.5634 31.6876 52.5634H30.9815V60.8464L30.9915 60.8361Z" fill="white"/>
<path d="M45.6748 51.5536H51.4129V52.5736H46.6793V55.7665H51.3732V56.7662H46.6793V60.7954H51.3732V61.8052H45.6748V51.5536Z" fill="white"/>
<path d="M57.6592 51.5536H58.7433L62.0549 59.7344L65.4261 51.5536H66.5101L62.1542 62.0603H61.9454L57.6592 51.5536Z" fill="white"/>
<path d="M73.4824 51.5536H79.2107V52.5736H74.4869V55.7665H79.1709V56.7662H74.4869V60.7954H79.1709V61.8052H73.4824V51.5536Z" fill="white"/>
<path d="M86.2114 51.5536H87.2258V60.8157H91.0743V61.8052H86.2114V51.5536Z" fill="white"/>
<path d="M97.5026 56.7255C97.5026 55.736 97.7314 54.818 98.1987 53.9816C98.6661 53.1451 99.3027 52.4923 100.108 52.0128C100.914 51.5334 101.799 51.2988 102.744 51.2988C103.688 51.2988 104.583 51.5334 105.399 52.0027C106.224 52.4718 106.861 53.1247 107.328 53.9611C107.795 54.7976 108.034 55.6953 108.034 56.6746C108.034 57.6538 107.805 58.5515 107.338 59.3879C106.871 60.2243 106.234 60.8772 105.429 61.3464C104.613 61.8257 103.738 62.0605 102.783 62.0605C101.829 62.0605 100.954 61.8257 100.128 61.3566C99.3126 60.8873 98.6661 60.2344 98.1987 59.4082C97.7314 58.582 97.4927 57.6844 97.4927 56.7255M106.98 56.6847C106.98 55.4606 106.562 54.4202 105.737 53.5734C104.911 52.7269 103.907 52.2985 102.734 52.2985C101.56 52.2985 100.536 52.7269 99.7302 53.5734C98.9248 54.4303 98.5269 55.4606 98.5269 56.6847C98.5269 57.9088 98.9347 58.939 99.7701 59.7857C100.595 60.6323 101.59 61.0608 102.763 61.0608C103.937 61.0608 104.931 60.6426 105.747 59.8162C106.572 58.99 106.98 57.9393 106.98 56.6746" fill="white"/>
<path d="M115.312 51.5537H117.301C118.475 51.5537 119.25 51.6048 119.608 51.6966C119.966 51.7884 120.304 51.9619 120.603 52.1965C120.901 52.431 121.14 52.7268 121.309 53.0839C121.478 53.4408 121.557 53.8387 121.557 54.2774C121.557 54.9812 121.368 55.5525 121.001 56.0012C120.633 56.4501 120.165 56.7358 119.598 56.848C119.041 56.9703 118.176 57.0213 117.013 57.0213H116.307V61.785H115.302V51.5334L115.312 51.5537ZM116.317 52.5534V56.0523H117.997C119.012 56.0727 119.678 55.8992 120.016 55.5423C120.354 55.1852 120.513 54.767 120.513 54.2774C120.513 53.1247 119.698 52.5534 118.077 52.5534H116.307H116.317Z" fill="white"/>
<path d="M128.389 61.8052L129.811 51.5536H129.96L134.027 59.959L138.055 51.5536H138.214L139.646 61.8052H138.662L137.687 54.4711L134.147 61.8052H133.898L130.328 54.4098L129.353 61.8052H128.389Z" fill="white"/>
<path d="M146.929 51.5536H152.658V52.5736H147.924V55.7665H152.618V56.7662H147.924V60.7954H152.618V61.8052H146.929V51.5536Z" fill="white"/>
<path d="M159.664 61.8052V51.5536H159.893L166.526 59.4081V51.5536H167.521V61.8052H167.292L160.699 54.0527V61.8052H159.664Z" fill="white"/>
<path d="M174.255 52.5532V51.5536H179.734V52.5532H177.507V61.8052H176.492V52.5532H174.255Z" fill="white"/>
<path d="M185.425 59.8877L186.271 59.3777C186.868 60.4997 187.553 61.0608 188.339 61.0608C188.846 61.0608 189.284 60.8975 189.652 60.561C190.01 60.2243 190.199 59.8163 190.199 59.3164C190.199 58.9288 190.05 58.531 189.742 58.1331C189.433 57.7353 188.925 57.2559 188.22 56.7153C187.513 56.1645 187.037 55.7564 186.788 55.4913C186.539 55.2158 186.359 54.9302 186.24 54.6242C186.121 54.3182 186.072 54.002 186.072 53.6858C186.072 53.0227 186.3 52.4514 186.758 51.9925C187.216 51.5334 187.793 51.2988 188.488 51.2988C189.035 51.2988 189.513 51.4416 189.92 51.717C190.328 52.0027 190.726 52.4107 191.103 52.9614L190.299 53.6041C190.039 53.2471 189.771 52.941 189.493 52.7065C189.213 52.4718 188.876 52.3494 188.469 52.3494C188.061 52.3494 187.733 52.4718 187.484 52.7167C187.225 52.9614 187.106 53.2776 187.106 53.6551C187.106 54.0325 187.216 54.3691 187.445 54.6445C187.673 54.9302 188.189 55.3689 188.986 55.9809C189.79 56.5929 190.367 57.1538 190.735 57.664C191.103 58.174 191.283 58.7248 191.283 59.2859C191.283 60.0304 191.004 60.6732 190.438 61.2239C189.88 61.7748 189.224 62.0401 188.478 62.0401C187.165 62.0401 186.152 61.3157 185.415 59.8673" fill="white"/>
<path d="M94.2276 3.96791V33.56C94.2276 35.7224 94.5161 37.885 95.083 39.7314H86.3514C86.9182 37.885 87.2067 35.7326 87.2067 33.56V3.96791H81.6176C78.1171 4.04952 74.6464 4.49834 71.2354 5.29399L72.0308 0.132477H109.403L110.199 5.29399C106.788 4.49834 103.307 4.05972 99.8167 3.96791H94.2276Z" fill="white"/>
<path d="M221.287 34.58L220.482 38.0482L220.094 39.7314H183.01L190.18 30.2958L210.109 3.96791H195.799C191.861 4.00872 187.934 4.45754 184.084 5.32459L185.298 0.132477H221.298L198.842 30.4283L196.038 34.2025L194.616 36.0897H194.635L208.519 35.9571C213.073 35.9162 216.803 35.4573 221.278 34.58" fill="white"/>
<path d="M126.589 38.7011C126.709 39.1193 126.838 39.5375 126.957 39.7212H118.156C118.276 39.5273 118.405 39.1193 118.524 38.7011C118.653 38.3033 118.753 37.8953 118.822 37.4873L119.021 34.9371V5.16148L118.822 2.61133C118.753 2.2033 118.653 1.79528 118.524 1.39745C118.405 0.979221 118.276 0.560994 118.156 0.122368H126.957C126.838 0.560994 126.709 0.979221 126.589 1.39745C126.46 1.79528 126.361 2.2033 126.291 2.61133L126.092 5.16148V34.9371L126.291 37.4873C126.361 37.8953 126.46 38.3033 126.589 38.7011Z" fill="white"/>
<path d="M69.7544 30.7241L65.2594 20.0441L63.5289 15.8007L56.846 0.0305252H56.3687H49.835L51.7742 4.96763C52.4802 6.63033 52.5201 8.57865 51.8935 10.2822L45.2902 29.8674L33.5454 0.0509264H30.2238H29.9951H25.9773L28.2448 5.26345C28.9608 6.90575 29.0204 8.85407 28.404 10.5576C28.3542 10.7004 28.3045 10.833 28.2646 10.9452C26.6138 15.5355 24.6746 20.6256 22.447 26.2257L20.3188 31.4383C20.1597 31.9074 19.9807 32.3665 19.7718 32.8154C19.4138 33.6416 19.1454 34.2638 18.9564 34.682C18.5088 35.7735 18.0017 36.814 17.4248 37.8239C16.9574 38.6297 16.5895 39.2621 16.3408 39.7517H24.0979L23.352 38.4664C23.2624 37.9157 23.2525 37.3444 23.3221 36.7833C23.6603 34.9269 24.1873 33.1418 24.8934 31.4485C26.9023 25.8177 28.9112 20.1972 30.9597 14.597C31.3177 13.6076 31.6856 12.6283 32.0437 11.649L42.1277 39.7619H46.046L54.9963 12.2815C55.4736 13.4239 55.951 14.5766 56.4383 15.7191C57.7212 18.769 59.004 21.8293 60.2869 24.8793C61.2217 27.0826 62.1466 29.3063 63.0914 31.5096L63.2405 31.8871L63.35 32.2849C63.4394 32.4583 63.5189 32.642 63.5986 32.8358C63.8869 33.4784 64.1655 34.1822 64.4439 34.9269C64.7522 35.6918 65.0306 36.4671 65.2792 37.2628C65.4582 37.8646 65.2195 38.589 65.0008 39.7517H74.7268C73.7919 38.3951 72.9367 37.0282 72.151 35.5898C71.3853 34.1924 70.5598 32.5705 69.7344 30.7447" fill="white"/>
<path d="M8.08512 2.58055C8.15473 2.17252 8.25419 1.7645 8.38346 1.36667C8.5028 0.948443 8.62214 0.540419 8.75142 0.101791H0C0.119338 0.540419 0.238675 0.948443 0.367957 1.36667C0.49724 1.7645 0.596688 2.16232 0.666302 2.58055L0.865197 5.1103V34.7126L0.666302 37.2423C0.596688 37.6503 0.49724 38.0583 0.367957 38.4561C0.24862 38.8745 0.119338 39.2825 0 39.721H8.74148C8.62214 39.2825 8.5028 38.8745 8.37353 38.4561C8.24423 38.0583 8.14478 37.6503 8.07517 37.2423L7.87628 34.7126V5.1103L8.07517 2.58055H8.08512Z" fill="white"/>
<path d="M164.795 39.6905L176.082 39.6701L175.634 39.1092C174.69 37.9053 173.804 36.6406 173.02 35.3451C170.95 31.9278 169.34 28.1945 167.788 24.5835C167.47 23.8286 167.142 23.0838 166.814 22.3393C165.958 20.3807 165.103 18.412 164.248 16.4535C163.392 14.495 162.548 12.5263 161.683 10.5677C161.225 9.53749 160.777 8.50722 160.33 7.47695C159.912 6.5079 159.485 5.53885 159.067 4.56978L157.227 0.0101013H149.122L149.669 0.601738C150.176 1.15257 150.216 1.29538 150.285 1.51979V1.5606C150.365 1.85641 150.395 2.15223 150.395 2.44805C150.375 2.97848 150.285 3.50892 150.136 4.01895L150.106 4.12095C150.066 4.26376 150.017 4.41677 149.977 4.53918C145.731 14.5562 137.645 33.6314 137.407 34.1107C136.88 35.2022 136.283 36.2631 135.627 37.2424C135.139 37.9768 134.742 38.5481 134.453 38.9663L133.966 39.6803H143.105L141.872 37.9564C141.783 37.4566 141.772 36.9466 141.852 36.457C141.892 36.2631 142.429 34.7738 145.522 27.0417C146.735 26.695 147.968 26.491 149.171 26.4399H157.635C158.848 26.491 160.081 26.695 161.304 27.0417C161.771 28.0414 164.625 34.1209 165.898 37.4566C165.958 38.0584 165.759 38.6603 165.352 39.099L164.805 39.6905H164.795ZM153.169 8.0992L159.465 22.4924H147.362C149.738 16.6065 152.344 10.1495 153.169 8.0992Z" fill="white"/>
</g>
</g>
<defs>
<clipPath id="clip0_3021_609">
<rect width="221.311" height="62.0606" fill="white"/>
</clipPath>
</defs>
</svg>
