<svg width="524" height="704" viewBox="0 0 524 704" fill="none" xmlns="http://www.w3.org/2000/svg">
<g clip-path="url(#clip0_1287_18380)">
<path d="M466.387 703.392H268.412C270.412 693.323 272.054 683.505 274.339 673.829C276.66 664.046 276.089 654.728 272.233 645.409C261.879 620.274 251.846 595.032 241.421 569.897C230.245 542.941 218.963 516.056 207.431 489.243C172.727 408.66 137.917 328.149 103.142 247.638C102.642 246.496 102.07 245.389 101.107 243.39C100.285 245.532 99.714 246.889 99.2499 248.281C60.3689 364.674 21.4881 481.067 -17.3572 597.424C-28.7108 631.449 -40.1718 665.475 -51.4183 699.571C-52.418 702.642 -53.7746 703.713 -57.095 703.677C-81.3376 703.534 -105.616 703.499 -129.858 703.677C-133.322 703.677 -134.786 702.642 -135.928 699.428C-181.236 576.073 -226.615 452.754 -271.958 329.435C-283.276 298.694 -294.522 267.954 -305.84 237.213C-306.304 235.892 -306.947 234.642 -307.804 232.643C-309.125 236.071 -310.196 238.82 -311.231 241.569C-349.363 344.502 -387.315 447.506 -425.696 550.331C-434.729 574.503 -444.405 598.388 -449.903 623.666C-452.367 635.02 -454.081 646.623 -455.366 658.191C-456.151 665.189 -454.152 671.794 -450.046 677.935C-444.655 685.933 -440.049 694.466 -434.801 703.249H-600C-597.608 698.679 -595.466 694.251 -593.074 689.931C-581.791 669.652 -569.188 649.979 -559.37 628.986C-542.446 592.747 -526.951 555.83 -511.349 518.984C-465.149 409.732 -421.626 299.372 -380.567 188.085C-369.749 158.773 -370.642 129.71 -383.281 101.112C-397.455 69.086 -411.772 37.0958 -426.018 5.10558C-426.696 3.57033 -427.267 2.03509 -428.053 0C-421.733 0 -415.914 0 -410.094 0C-366.857 0 -323.62 0.10711 -280.384 0.0357033C-276.956 0.0357033 -275.171 0.892584 -273.779 4.35581C-207.692 168.234 -141.462 332.041 -75.2324 495.884C-74.6611 497.312 -74.0185 498.74 -73.0902 500.882C-72.2333 498.847 -71.4835 497.419 -70.9836 495.919C-35.1732 392.308 0.387329 288.626 36.5548 185.158C46.7303 156.024 47.6228 127.532 36.0906 98.8626C23.416 67.4436 10.6699 36.0247 -2.04053 4.60573C-2.57605 3.32041 -2.96887 1.96368 -3.68292 0H1.67255C44.4809 0 87.2893 0 130.098 0C138.381 0 138.345 0 141.63 7.4977C180.511 96.8275 219.606 186.014 258.201 275.451C291.334 352.178 324.109 429.083 356.742 506.059C385.769 574.538 420.687 639.697 464.352 700C464.995 700.892 465.531 701.892 466.459 703.32L466.387 703.392Z" fill="#490905" fill-opacity="0.02"/>
</g>
<defs>
<clipPath id="clip0_1287_18380">
<rect width="524" height="704" fill="white"/>
</clipPath>
</defs>
</svg>
