<svg width="26" height="26" viewBox="0 0 26 26" fill="none" xmlns="http://www.w3.org/2000/svg">
<g clip-path="url(#clip0_809_7068)">
<path fill-rule="evenodd" clip-rule="evenodd" d="M16.1517 24.4059C15.6815 24.4059 15.3007 24.3584 15.0657 24.3204C13.6976 24.0923 12.4 23.4174 11.3093 22.3719L3.58515 14.5636C0.919532 11.8689 0.919532 7.48712 3.58515 4.79247C4.05058 4.32197 4.66645 4.06534 5.32463 4.06534C5.9828 4.06534 6.59867 4.32197 7.0641 4.79247L8.61082 6.35603C9.07624 6.82653 9.33011 7.4491 9.33011 8.11445C9.33011 8.77979 9.07154 9.40237 8.61082 9.87286C8.24882 10.2388 8.05136 10.7236 8.05136 11.2416C8.05136 11.7596 8.24882 12.2443 8.61082 12.6103L13.251 17.301C13.613 17.6669 14.0925 17.8665 14.6049 17.8665C15.1174 17.8665 15.5969 17.6669 15.9589 17.301C16.4243 16.8305 17.0402 16.5739 17.6984 16.5739C18.3566 16.5739 18.9724 16.8352 19.4378 17.301L20.9846 18.8645C21.45 19.335 21.7039 19.9576 21.7039 20.623C21.7039 21.2883 21.4453 21.9109 20.9846 22.3814C19.6917 23.6883 17.9758 24.4059 16.1517 24.4059Z" stroke="white" stroke-width="2.5" stroke-linecap="round" stroke-linejoin="round"/>
<path d="M14.0039 1.6796C14.4129 1.62257 14.8266 1.59406 15.2544 1.59406C20.313 1.59406 24.4125 5.73821 24.4125 10.8519C24.4125 11.1465 24.3984 11.4364 24.3749 11.7216" stroke="white" stroke-width="2.5" stroke-linecap="round" stroke-linejoin="round"/>
<path d="M14.4219 6.20397C14.6898 6.15644 14.9719 6.12793 15.254 6.12793C17.835 6.12793 19.9271 8.24278 19.9271 10.8519C19.9271 11.1513 19.8989 11.4412 19.8471 11.7216" stroke="white" stroke-width="2.5" stroke-linecap="round" stroke-linejoin="round"/>
</g>
<defs>
<clipPath id="clip0_809_7068">
<rect width="26" height="26" fill="white"/>
</clipPath>
</defs>
</svg>
