<svg width="150" height="47" viewBox="0 0 150 47" fill="none" xmlns="http://www.w3.org/2000/svg">
<mask id="mask0_574_3062" style="mask-type:luminance" maskUnits="userSpaceOnUse" x="0" y="0" width="150" height="47">
<path d="M149.487 0H0V47H149.487V0Z" fill="white"/>
</mask>
<g mask="url(#mask0_574_3062)">
<path d="M0 17.3085C0 11.3386 3.52079 7.08887 9.22259 7.08887C11.952 7.08887 14.0147 7.98055 15.1986 8.84063L13.6532 12.0406C12.5004 11.1173 11.198 10.409 9.28492 10.409C5.98223 10.409 3.79498 12.8374 3.79498 17.1504C3.79498 21.672 6.10063 24.0119 9.43444 24.0119C12.1016 24.0119 13.5286 22.7218 14.2888 21.8554L16.3514 24.3787C15.3233 25.517 13.1048 27.3953 9.16652 27.3953C3.64542 27.3953 0.00623149 23.272 0.00623149 17.3022L0 17.3085Z" fill="white"/>
<path d="M27.7676 17.2768C27.7676 10.9971 31.7121 7.08887 37.0462 7.08887C42.3804 7.08887 46.2938 10.9971 46.2938 17.2768C46.2938 23.5566 42.3493 27.4016 37.0462 27.4016C31.7433 27.4016 27.7676 23.5566 27.7676 17.2768ZM37.0525 24.0814C40.4175 24.0814 42.5736 21.6784 42.5736 17.2768C42.5736 12.8753 40.4175 10.4469 37.0525 10.4469C33.6875 10.4469 31.5003 12.8753 31.5003 17.2768C31.5003 21.6784 33.6813 24.0814 37.0525 24.0814Z" fill="white"/>
<path d="M63.9159 24.0182V10.4469H60.3702C59.2173 10.4469 58.644 10.6303 58.0957 10.9402V7.21533C58.644 7.33548 59.2173 7.39873 59.7657 7.39873H71.5931C72.1663 7.39873 72.7459 7.33548 73.2942 7.21533V10.9402C72.7459 10.6303 72.1726 10.4469 70.9886 10.4469H67.499V24.0182C67.499 25.0364 67.6174 26.0798 67.8916 27.098H63.5233C63.7975 26.0798 63.9159 25.0364 63.9159 24.0182Z" fill="white"/>
<path d="M88.2321 24.0181V10.4785C88.2321 9.4603 88.1142 8.41682 87.8398 7.39868H92.2083C91.934 8.41682 91.8152 9.4603 91.8152 10.4785V24.0181C91.8152 25.0363 91.934 26.0798 92.2083 27.0979H87.8398C88.1142 26.0798 88.2321 25.0363 88.2321 24.0181Z" fill="white"/>
<path d="M108.004 10.4783C108.004 9.46007 107.886 8.41667 107.611 7.39848H116.497C117.07 7.39848 117.65 7.36686 118.199 7.27832L118.504 10.8767C117.956 10.63 117.382 10.5668 116.802 10.5668H111.555V15.0632C111.892 15.0948 112.253 15.1264 112.59 15.1264H115.438C116.011 15.1264 116.59 15.0632 117.139 14.943V18.358C116.59 18.2378 116.018 18.1746 115.438 18.1746H112.59C112.253 18.1746 111.892 18.2062 111.555 18.2378V23.9041H117.376C118.074 23.9041 118.803 23.8409 119.532 23.4425L118.654 27.2875C118.105 27.1673 117.531 27.1041 116.952 27.1041H107.611C107.886 26.0859 108.004 25.0424 108.004 24.0243V10.4783Z" fill="white"/>
<path d="M133.809 24.0181V10.4785C133.809 9.4603 133.69 8.41682 133.416 7.39868H141.698C145.973 7.39868 148.129 10.2318 148.129 13.6152C148.129 16.3851 146.614 18.6301 144.309 19.7115L147.188 24.4229C147.886 25.6245 148.459 26.2379 149.493 27.0979H144.128C144.128 26.1114 143.916 25.5612 143.249 24.4798L140.763 20.4198H137.398V24.0181C137.398 25.0363 137.517 26.0798 137.703 27.0979H133.429C133.703 26.0798 133.821 25.0363 133.821 24.0181H133.809ZM140.726 17.4032C143.15 17.4032 144.546 16.0816 144.546 13.7101C144.546 11.8635 143.667 10.5417 141.268 10.5417H137.292V17.4032H140.726Z" fill="white"/>
<path d="M42.7915 5.116L38.3111 2.64964C37.5135 2.21328 36.5476 2.21328 35.75 2.64964L31.2695 5.116L35.7999 0.518452C36.479 -0.170864 37.5758 -0.170864 38.2488 0.518452L42.7791 5.116H42.7915Z" fill="white"/>
<path d="M25.6986 37.2104H27.2192V46.8862H25.6986V42.51H21.1248V46.8862H19.5918V37.2104H21.1248V41.1314H25.6986V37.2104Z" fill="white"/>
<path d="M47.8767 46.3612C47.1539 45.9374 46.5868 45.3494 46.1755 44.5968C45.7643 43.8442 45.5586 42.9968 45.5586 42.0482C45.5586 41.0996 45.7643 40.2649 46.1755 39.5123C46.5868 38.7597 47.1539 38.1716 47.883 37.7478C48.612 37.3242 49.4221 37.1091 50.3257 37.1091C51.2292 37.1091 52.0456 37.3242 52.7685 37.7478C53.485 38.1716 54.0521 38.7597 54.4634 39.506C54.8746 40.2522 55.0803 41.0996 55.0803 42.0482C55.0803 42.9968 54.8746 43.8442 54.4696 44.5968C54.0646 45.3494 53.4975 45.9374 52.7746 46.3612C52.0518 46.7849 51.2355 46.9999 50.3257 46.9999C49.4159 46.9999 48.5996 46.7849 47.8767 46.3612ZM51.9646 45.1596C52.4507 44.8434 52.8307 44.4197 53.105 43.8758C53.3791 43.332 53.5162 42.7249 53.5162 42.0419C53.5162 41.3589 53.3791 40.7644 53.105 40.2142C52.8307 39.6704 52.4507 39.2403 51.9646 38.9305C51.4785 38.6206 50.9301 38.4688 50.3257 38.4688C49.7212 38.4688 49.1542 38.6206 48.6743 38.9305C48.1882 39.2403 47.8082 39.6641 47.5339 40.2079C47.2598 40.7518 47.1227 41.3589 47.1227 42.0419C47.1227 42.7249 47.2598 43.332 47.5339 43.8758C47.8082 44.4197 48.1882 44.8434 48.6743 45.1596C49.1604 45.4758 49.7088 45.6276 50.3257 45.6276C50.9426 45.6276 51.4785 45.4695 51.9646 45.1596Z" fill="white"/>
<path d="M75.0955 46.5827C74.5347 46.3044 74.0985 45.8997 73.7932 45.3748C73.4816 44.8499 73.332 44.2049 73.332 43.4523V37.2104H74.865V43.4902C74.865 43.9392 74.9522 44.325 75.1329 44.6475C75.3136 44.9701 75.5691 45.2167 75.8932 45.3811C76.2172 45.5455 76.5973 45.6277 77.0336 45.6277C77.6941 45.6277 78.2238 45.438 78.6288 45.0649C79.0276 44.6918 79.2333 44.1669 79.2333 43.4965V37.2168H80.7659V43.4586C80.7659 44.2112 80.6103 44.8499 80.3047 45.3811C79.9935 45.9123 79.5573 46.3107 78.9965 46.589C78.4294 46.8672 77.7813 47.0064 77.0398 47.0064C76.2983 47.0064 75.6626 46.8672 75.1018 46.589L75.0955 46.5827Z" fill="white"/>
<path d="M100.489 46.5952C99.9414 46.3295 99.4986 45.9437 99.1681 45.4378C98.8384 44.9383 98.6515 44.3564 98.6074 43.6924H100.128C100.147 44.0592 100.253 44.388 100.458 44.6726C100.664 44.9572 100.926 45.1849 101.25 45.3557C101.574 45.5264 101.935 45.6086 102.321 45.6086C102.895 45.6086 103.356 45.4821 103.705 45.2228C104.054 44.9699 104.228 44.6347 104.228 44.2236C104.228 43.8632 104.117 43.5723 103.898 43.3509C103.68 43.1296 103.368 42.9588 102.969 42.8386L101.331 42.358C100.59 42.1494 100.01 41.8458 99.5981 41.441C99.181 41.0364 98.9756 40.4482 98.9756 39.6893C98.9756 39.1897 99.112 38.7407 99.3927 38.3486C99.6735 37.9566 100.053 37.6467 100.552 37.4316C101.044 37.2103 101.611 37.1028 102.247 37.1028C102.882 37.1028 103.462 37.2166 103.967 37.4379C104.471 37.6593 104.871 37.9882 105.17 38.4119C105.468 38.8355 105.643 39.3289 105.686 39.898H104.166C104.097 39.4807 103.892 39.1328 103.555 38.8736C103.219 38.6079 102.783 38.4751 102.247 38.4751C101.711 38.4751 101.306 38.5826 101 38.7976C100.695 39.0127 100.552 39.3099 100.552 39.683C100.552 40.0055 100.651 40.2585 100.857 40.4419C101.063 40.6253 101.349 40.7771 101.729 40.8909L103.393 41.3715C103.885 41.517 104.303 41.694 104.652 41.909C104.995 42.1241 105.276 42.415 105.487 42.7881C105.699 43.1612 105.805 43.6291 105.805 44.192C105.805 44.7549 105.661 45.2355 105.375 45.6592C105.089 46.0829 104.684 46.4117 104.16 46.6457C103.636 46.8797 103.026 46.9935 102.328 46.9935C101.63 46.9935 101.044 46.8607 100.496 46.5888L100.489 46.5952Z" fill="white"/>
<path d="M124.119 37.2104H130.308V38.5828H125.652V41.0807H129.41V42.4531H125.652V45.5265H130.457V46.8989H124.119V37.2104Z" fill="white"/>
</g>
</svg>
