<svg width="41" height="24" viewBox="0 0 41 24" fill="none" xmlns="http://www.w3.org/2000/svg">
<path d="M0.720703 11.66C0.720703 8.22315 1.27736 5.54558 2.39068 3.62733C3.504 1.68909 5.45231 0.719971 8.23561 0.719971C10.999 0.719971 12.9374 1.68909 14.0507 3.62733C15.164 5.54558 15.7207 8.22315 15.7207 11.66C15.7207 15.1568 15.164 17.8744 14.0507 19.8126C12.9374 21.7509 10.999 22.72 8.23561 22.72C5.45231 22.72 3.504 21.7509 2.39068 19.8126C1.27736 17.8744 0.720703 15.1568 0.720703 11.66Z" stroke="#490905" stroke-width="1.44"/>
<path d="M21.7207 7.95485C21.7207 6.98984 22.0116 6.2235 22.5935 5.65585C23.1753 5.074 23.9204 4.78308 24.8286 4.78308C25.7369 4.78308 26.4819 5.074 27.0638 5.65585C27.6456 6.2235 27.9365 6.98984 27.9365 7.95485C27.9365 8.93405 27.6456 9.71458 27.0638 10.2964C26.4819 10.8641 25.7369 11.1479 24.8286 11.1479C23.9204 11.1479 23.1753 10.8641 22.5935 10.2964C22.0116 9.71458 21.7207 8.93405 21.7207 7.95485Z" stroke="#490905" stroke-width="1.44"/>
<path d="M25.6719 20.7271L34.9728 5.65588" stroke="#490905" stroke-width="1.44"/>
<path d="M34.5525 15.6208C33.9706 16.1885 33.6797 16.9619 33.6797 17.9411C33.6797 18.9203 33.9706 19.7008 34.5525 20.2827C35.1343 20.8503 35.8793 21.1342 36.7876 21.1342C37.6958 21.1342 38.4338 20.8432 39.0014 20.2614C39.5833 19.6795 39.8742 18.9061 39.8742 17.9411C39.8742 16.9619 39.5833 16.1885 39.0014 15.6208C38.4338 15.039 37.6958 14.748 36.7876 14.748C35.8793 14.748 35.1343 15.039 34.5525 15.6208Z" stroke="#490905" stroke-width="1.44"/>
</svg>
