<svg width="32" height="32" viewBox="0 0 32 32" fill="none" xmlns="http://www.w3.org/2000/svg">
<path d="M29.5766 14.7684L17.6169 2.889C16.7478 2.02572 15.3455 2.02338 14.4735 2.88366L2.42969 14.7669" stroke="#490905" stroke-width="1.44"/>
<path d="M6.24414 11V27.4897C6.24414 28.7267 7.24717 29.7297 8.48414 29.7297H23.5241C24.7611 29.7297 25.7641 28.7267 25.7641 27.4897V11" stroke="#490905" stroke-width="1.44"/>
<path d="M17.5 16.5L18.4035 15.2949C18.8588 14.3982 18.3133 13.5093 17.3078 13.5093H14.6995C13.694 13.5093 13.1485 14.3982 13.6038 15.2947L14.6995 16.5" stroke="#490905" stroke-width="1.44"/>
<path d="M18.563 25.5789H13.4421C11.525 25.5789 9.9707 24.0247 9.9707 22.1075C9.9707 18.8733 12.6144 16.2297 15.8488 16.2297H16.1563C19.3907 16.2297 22.0344 18.8733 22.0344 22.1075C22.0344 24.0247 20.4801 25.5789 18.563 25.5789Z" stroke="#490905" stroke-width="1.44"/>
</svg>
