<svg width="26" height="35" viewBox="0 0 26 35" fill="none" xmlns="http://www.w3.org/2000/svg">
<path d="M5.76564 22.958L4.86259 22.8149C3.54188 22.588 2.03505 21.5322 1.35765 20.3585C0.604796 19.0523 0.506222 17.062 1.13332 15.8268C1.69782 14.7163 1.69782 12.9088 1.13332 11.7971C0.505663 10.5624 0.604796 8.57271 1.35765 7.26765C2.10995 5.9637 3.78222 4.86262 5.16497 4.7609C6.41079 4.67035 7.97904 3.7655 8.66036 2.74381C9.41545 1.60922 11.1871 0.719971 12.6939 0.719971C14.1756 0.719971 15.9855 1.62766 16.7277 2.74269C17.4085 3.76438 18.9762 4.66926 20.2237 4.75981C21.607 4.86097 23.2793 5.96145 24.031 7.2654C24.7844 8.57157 24.8827 10.5613 24.2545 11.7954C23.6911 12.9076 23.6917 14.7151 24.2545 15.8251C24.8822 17.0609 24.7839 19.0506 24.0305 20.3557C23.3531 21.53 21.8462 22.5863 20.5255 22.8132L19.6244 22.9591M5.76564 22.958L6.02272 23.039C7.09192 23.3755 8.15173 24.1149 8.6609 24.879C9.08512 25.5161 9.86539 26.103 10.8021 26.4892L11.1564 26.6356M5.76564 22.958L2.00935 29.4665L5.77519 29.2273C5.78357 29.2268 5.78791 29.2273 5.79238 29.2273C5.86504 29.2273 5.9346 29.2715 5.96813 29.3396L7.64296 32.7194L11.1564 26.6356M19.6244 22.9591L23.3815 29.4676L19.6121 29.2279C19.6071 29.2279 19.6027 29.2279 19.5982 29.2279C19.525 29.2279 19.4562 29.272 19.4222 29.3402L17.7471 32.72L14.2337 26.6356M19.6244 22.9591L19.3678 23.0396L19.3668 23.0401C18.2987 23.3755 17.2386 24.1149 16.7294 24.8795C16.3046 25.5167 15.5243 26.1035 14.5882 26.4898L14.2337 26.6356M14.2337 26.6356L13.5921 26.7949C13.2466 26.867 12.9527 26.9023 12.6934 26.9023C12.434 26.9023 12.1412 26.867 11.7936 26.7955L11.1564 26.6356M8.52445 13.9533L11.2101 16.6389C11.2481 16.6775 11.2989 16.6982 11.3526 16.6982L11.3531 16.697C11.4068 16.697 11.4576 16.6758 11.4956 16.6378L16.8661 11.2672M12.695 22.0688C8.14155 22.0688 4.43767 18.3643 4.43767 13.8114C4.43767 9.2585 8.14211 5.554 12.695 5.554C17.2479 5.554 20.9523 9.2585 20.9523 13.8114C20.9523 18.3643 17.2479 22.0688 12.695 22.0688Z" stroke="#490905" stroke-width="1.44" stroke-linecap="round"/>
</svg>
