<svg width="33" height="32" viewBox="0 0 33 32" fill="none" xmlns="http://www.w3.org/2000/svg">
<path d="M18.9521 21.2753L27.0356 17.0878C27.3227 16.9381 27.6447 16.859 27.9662 16.859C28.1739 16.859 28.3805 16.8909 28.5813 16.9543C29.0991 17.1172 29.5224 17.4706 29.7718 17.9492C30.0211 18.4278 30.0687 18.9766 29.9057 19.495C29.7428 20.0129 29.3892 20.4354 28.9106 20.6852L17.8623 26.4431C17.5437 26.609 17.1978 26.6901 16.8046 26.6901C16.5125 26.6901 16.1855 26.6478 15.7433 26.5531L11.3578 25.6121C11.2356 25.5861 11.074 25.5557 10.912 25.5557L10.9111 25.5562C10.7309 25.5562 10.5715 25.5934 10.4243 25.67L9.8107 25.9901M18.9521 21.2753C18.5756 21.6204 18.0891 21.8103 17.5826 21.8103C17.5536 21.8103 17.5241 21.8099 17.4951 21.8084L13.5082 21.6361M18.9521 21.2753C19.3527 20.9087 19.5857 20.4099 19.6093 19.87C19.6329 19.3305 19.4434 18.8131 19.0758 18.4131C18.7096 18.013 18.2102 17.7793 17.6708 17.7558L11.7452 17.4995C11.7137 17.4981 11.6828 17.4976 11.6529 17.4976C11.3436 17.4976 11.0687 17.5658 10.7874 17.7126L6.62678 19.8808M5.38356 18.503C5.31533 18.503 5.24956 18.5191 5.1887 18.551L3.22811 19.573C3.01998 19.682 2.93987 19.9392 3.04835 20.1463L7.5438 28.7728C7.59583 28.8734 7.68457 28.9476 7.79354 28.9809C7.83478 28.9937 7.87811 29 7.92081 29C7.98806 29 8.05579 28.9838 8.11567 28.9524L10.0767 27.9304C10.1769 27.8784 10.2504 27.7901 10.2848 27.6821C10.3191 27.5746 10.3097 27.4598 10.2582 27.3596L5.76201 18.7311C5.70998 18.6305 5.621 18.5568 5.51203 18.523C5.47079 18.5102 5.42724 18.503 5.38356 18.503ZM14.8946 15.0639C14.2442 15.0639 13.7124 14.5441 13.6942 13.8976V13.8632V13.604C13.6942 10.7668 16.0025 8.45831 18.8402 8.45831C21.6779 8.45831 23.9859 10.7663 23.9859 13.604V13.8632C23.9859 14.5254 23.4473 15.0639 22.7851 15.0639H14.8946ZM18.8392 2C17.5512 2 16.5031 3.04801 16.5031 4.33605C16.5031 5.62408 17.5512 6.67209 18.8392 6.67209C20.1272 6.67209 21.1751 5.62408 21.1751 4.33605C21.1751 3.04801 20.1272 2 18.8392 2Z" stroke="#490905" stroke-width="1.44"/>
</svg>
