<svg width="33" height="32" viewBox="0 0 33 32" fill="none" xmlns="http://www.w3.org/2000/svg">
<path d="M10.558 29C10.0235 29 9.51278 28.8314 9.08049 28.5124L9.06343 28.5006C8.26356 27.9346 7.85979 26.9425 8.03711 25.9712L9.06848 20.1059L4.82227 15.8955L4.81026 15.8837C4.36762 15.4732 4.08574 14.9164 4.01714 14.3137C3.85665 12.9294 4.84131 11.6706 6.21324 11.5085L6.23915 11.5046L12.0767 10.6562L14.6937 5.33073C14.9279 4.92811 15.2631 4.59347 15.6644 4.36079C16.0708 4.12418 16.5312 4 16.9972 4C17.9446 4 18.8275 4.50978 19.3077 5.332L21.9247 10.6575L27.7748 11.5072H27.7875C28.3841 11.5791 28.9357 11.8641 29.3421 12.3112C30.2753 13.3386 30.2077 14.9412 29.1904 15.8837L29.1803 15.8928L24.8975 20.102L25.932 25.9791C25.9656 26.153 25.9794 26.3294 25.9769 26.5059C25.9523 27.8745 24.8306 28.9883 23.4755 28.9883H23.4155C23.0065 28.9857 22.5992 28.8811 22.2394 28.685L17.0022 25.9059L11.7607 28.6876C11.3931 28.8902 10.978 28.9974 10.5599 28.9974L10.558 29Z" stroke="#490905" stroke-width="1.44"/>
</svg>
