<svg width="34" height="34" viewBox="0 0 34 34" fill="none" xmlns="http://www.w3.org/2000/svg">
<path d="M19.1549 16.2185C19.1549 15.6978 19.1319 15.1765 19.1599 14.6571C19.2184 13.5783 20.1453 12.7254 21.2327 12.7217C22.3239 12.718 23.2739 13.5541 23.3186 14.6378C23.3622 15.6922 23.3628 16.7517 23.3186 17.8068C23.2732 18.8892 22.3208 19.7247 21.2296 19.7198C20.1428 19.7142 19.2177 18.8612 19.1599 17.7807C19.1319 17.2618 19.1549 16.7392 19.1549 16.2185ZM21.9413 16.2422C21.9413 15.7756 21.9506 15.309 21.9394 14.8431C21.9295 14.4194 21.6303 14.1208 21.2414 14.1214C20.852 14.1214 20.5503 14.4225 20.5472 14.8456C20.5391 15.7632 20.536 16.6808 20.5528 17.5978C20.5559 17.7626 20.6349 17.948 20.7338 18.0836C20.8999 18.3125 21.206 18.3741 21.471 18.2758C21.7746 18.1639 21.9326 17.9362 21.9394 17.6189C21.9494 17.1604 21.9419 16.7013 21.9419 16.2428L21.9413 16.2422Z" fill="#490905"/>
<path d="M15.5573 19.7189C15.1062 19.7089 14.6297 19.5329 14.2278 19.164C13.905 18.8678 13.8658 18.4492 14.1308 18.1474C14.3914 17.8507 14.8039 17.8258 15.1318 18.1008C15.3283 18.265 15.5386 18.3602 15.7949 18.3005C16.1408 18.2202 16.3679 17.9042 16.3368 17.5589C16.3044 17.2018 16.0276 16.9337 15.6531 16.9219C15.031 16.902 14.5022 16.6824 14.0841 16.2177C13.3351 15.3853 13.3756 14.105 14.1706 13.328C14.9781 12.5392 16.2341 12.5155 17.0621 13.2726C17.3832 13.5663 17.4223 13.9881 17.1567 14.2904C16.8967 14.5865 16.4848 14.612 16.1557 14.3371C15.9592 14.1728 15.7483 14.0783 15.4926 14.1374C15.1461 14.2176 14.9227 14.5293 14.9513 14.8789C14.9812 15.2416 15.2655 15.5035 15.6581 15.5184C16.45 15.5489 17.0634 15.8936 17.4615 16.5779C18.2678 17.9633 17.2513 19.7139 15.5567 19.7176L15.5573 19.7189Z" fill="#490905"/>
<path d="M12.1199 16.2164C12.1199 17.1172 12.1205 18.018 12.1199 18.9188C12.1199 19.3953 11.8437 19.7126 11.43 19.7188C11.0069 19.725 10.7214 19.4022 10.7208 18.9144C10.7208 17.1047 10.7195 15.2957 10.7208 13.486C10.7208 12.9341 11.1911 12.5833 11.6713 12.7705C11.9525 12.88 12.118 13.1314 12.1186 13.4667C12.1211 14.383 12.1193 15.2994 12.1193 16.2158L12.1199 16.2164Z" fill="#490905"/>
<path d="M0.720215 15.72V17.72C0.799382 18.2958 0.858548 18.8733 0.961048 19.445C1.67355 23.4308 3.62771 26.69 6.77271 29.2225C9.31271 31.2675 12.2269 32.4066 15.481 32.6683C15.5619 32.6741 15.6402 32.7025 15.7202 32.72H17.7202C18.3052 32.64 18.8927 32.575 19.4744 32.4766C25.681 31.4291 30.8519 26.5683 32.2752 20.42C32.4619 19.6133 32.5385 18.7808 32.6669 17.96C32.6802 17.8791 32.7027 17.8 32.7202 17.72V15.72C32.6377 15.1241 32.5769 14.525 32.4694 13.9333C31.8094 10.2941 30.0852 7.24164 27.3369 4.7783C25.0519 2.72997 22.381 1.4533 19.3527 0.939137C18.8119 0.846637 18.2644 0.791637 17.7202 0.719971H15.7202C15.1452 0.799971 14.5669 0.859137 13.996 0.963304C9.46355 1.7908 5.92355 4.1483 3.35605 7.9558C1.82605 10.225 0.983548 12.7475 0.771048 15.4783C0.765215 15.56 0.737715 15.64 0.720215 15.72Z" stroke="#490905" stroke-width="1.44"/>
<path d="M31.2202 23.2816C27.1577 23.2749 20.7911 23.2828 16.7286 23.2828L16.7278 23.282C12.6653 23.282 6.28271 23.2742 2.22021 23.2817" stroke="#490905" stroke-width="1.44"/>
<path d="M31.2202 10.1516C23.0952 10.1574 10.3452 10.1583 2.22021 10.1516" stroke="#490905" stroke-width="1.44"/>
<path d="M18.7202 32.72C22.3794 28.72 23.2527 25.0233 23.7202 23.22" stroke="#490905" stroke-width="1.44"/>
<path d="M14.7202 0.719727C11.061 4.71973 10.1877 8.41639 9.72021 10.2197" stroke="#490905" stroke-width="1.44"/>
<path d="M15.2202 32.72C11.561 28.72 9.68771 25.0233 9.22021 23.22" stroke="#490905" stroke-width="1.44"/>
<path d="M18.2202 0.719726C21.8794 4.71973 23.7527 8.41639 24.2202 10.2197" stroke="#490905" stroke-width="1.44"/>
</svg>
