<svg width="32" height="32" viewBox="0 0 32 32" fill="none" xmlns="http://www.w3.org/2000/svg">
<path d="M18.6667 12.7147V9.33333C18.6667 7.91885 19.2286 6.56229 20.2288 5.5621C21.229 4.5619 22.5855 4 24 4H26C26.1768 4 26.3464 4.07024 26.4714 4.19526C26.5964 4.32029 26.6667 4.48986 26.6667 4.66667V6.66667C26.6667 8.08115 26.1048 9.43771 25.1046 10.4379C24.1044 11.4381 22.7478 12 21.3333 12C19.9188 12 18.5623 12.5619 17.5621 13.5621C16.5619 14.5623 16 15.9188 16 17.3333C16 20 17.3333 21.3333 17.3333 24C17.3333 25.4425 16.8655 26.846 16 28" stroke="#490905" stroke-width="1.44" stroke-linecap="round" stroke-linejoin="round"/>
<path d="M8.73479 10.6937C7.50172 10.8049 6.32396 11.2572 5.3335 12.0001C5.3335 13.2382 5.67826 14.4518 6.32916 15.505C6.98005 16.5581 7.91137 17.4092 9.01874 17.9629C10.1261 18.5166 11.3658 18.751 12.5989 18.6398C13.8319 18.5286 15.0097 18.0763 16.0002 17.3334C16.0002 16.0953 15.6554 14.8817 15.0045 13.8285C14.3536 12.7754 13.4223 11.9243 12.3149 11.3706C11.2075 10.8169 9.96787 10.5825 8.73479 10.6937Z" stroke="#490905" stroke-width="1.44" stroke-linecap="round" stroke-linejoin="round"/>
<path d="M6.6665 28H25.3332" stroke="#490905" stroke-width="1.44" stroke-linecap="round" stroke-linejoin="round"/>
</svg>
