<svg width="29" height="34" viewBox="0 0 29 34" fill="none" xmlns="http://www.w3.org/2000/svg">
<path d="M10.6416 29.5175H0.719971V23.7581C0.719971 20.5821 2.87587 17.9985 5.52618 17.9985H13.1989" stroke="#490905" stroke-width="1.44" stroke-linecap="round"/>
<path d="M20.5399 27.4325C19.3965 27.4325 18.4658 26.5024 18.4658 25.3585C18.4658 24.2146 19.396 23.2844 20.5399 23.2844C21.6839 23.2844 22.6141 24.2146 22.6141 25.3585C22.6141 26.5024 21.6839 27.4325 20.5399 27.4325Z" stroke="#490905" stroke-width="1.44" stroke-linecap="round"/>
<path d="M27.1352 27.0776L25.7737 26.0987L25.7973 25.9181C25.8224 25.7263 25.8347 25.5383 25.8347 25.3593C25.8347 25.1814 25.8219 24.9933 25.7973 24.8004L25.7737 24.6199L27.1347 23.641C27.5006 23.3774 27.6067 22.8839 27.3811 22.4934L26.4408 20.8645C26.2855 20.5945 25.9955 20.4268 25.6848 20.4268C25.5605 20.4268 25.4389 20.453 25.3243 20.5045L23.7849 21.1989L23.6413 21.0938C23.3353 20.8699 23.0113 20.6812 22.6775 20.5334L22.5155 20.4616L22.3478 18.7861C22.3033 18.3371 21.9293 17.9985 21.4777 17.9985H19.5966C19.1449 17.9985 18.771 18.3366 18.7265 18.7856L18.5593 20.4605L18.3974 20.5323C18.0609 20.6823 17.7363 20.871 17.4336 21.0928L17.2899 21.1977L15.7506 20.5033C15.6348 20.4514 15.5133 20.4251 15.389 20.4251C15.0793 20.4251 14.7899 20.5934 14.634 20.864L13.6942 22.4928C13.4687 22.8834 13.5747 23.3769 13.9407 23.6405L15.3021 24.6193L15.2786 24.7999C15.2534 24.9917 15.2409 25.1798 15.2409 25.3587C15.2409 25.5361 15.254 25.7242 15.2786 25.9176L15.3016 26.0981L13.9407 27.0771C13.5747 27.3407 13.4687 27.8341 13.6942 28.2247L14.6345 29.8541C14.7904 30.1252 15.0798 30.2935 15.3895 30.2935C15.5138 30.2935 15.6348 30.2672 15.7506 30.2141L17.2899 29.5197L17.4336 29.6248C17.7368 29.8471 18.0609 30.0357 18.3974 30.1852L18.5593 30.257L18.7265 31.9324C18.771 32.3814 19.1449 32.72 19.5966 32.72H21.4777C21.9293 32.72 22.3033 32.382 22.3478 31.933L22.5166 30.257L22.6785 30.1852C23.015 30.0352 23.339 29.8466 23.6423 29.6248L23.7859 29.5197L25.3253 30.2141C25.441 30.2661 25.5626 30.2929 25.6869 30.2929C25.996 30.2929 26.2854 30.1247 26.4419 29.8541L27.3806 28.2263C27.6062 27.8357 27.4452 27.3009 27.0792 27.0373L27.1352 27.0776Z" stroke="#490905" stroke-width="1.44" stroke-linecap="round"/>
<path d="M5.88632 6.47947L5.8844 5.95343C5.8844 3.06697 8.2314 0.719971 11.1159 0.719971H12.1719C15.0564 0.719971 17.4034 3.066 17.4034 5.94959L17.4053 6.47947L17.4159 9.35729C17.4159 12.5356 14.8327 15.1187 11.6564 15.1187C8.48002 15.1187 5.89688 12.5356 5.89688 9.35921L5.88632 6.47947ZM5.88632 6.47947H3.97705M5.88632 6.47947H19.3232M9.72407 1.19993V4.55963M13.5637 4.55963V0.907867" stroke="#490905" stroke-width="1.44" stroke-linecap="round"/>
</svg>
