<svg width="32" height="32" viewBox="0 0 32 32" fill="none" xmlns="http://www.w3.org/2000/svg">
<path d="M26.6667 31H5.33333C4.97971 31 4.64057 30.8672 4.39052 30.6307C4.14048 30.3942 4 30.0735 4 29.7391V3.26087C4 2.92647 4.14048 2.60576 4.39052 2.3693C4.64057 2.13284 4.97971 2 5.33333 2H26.6667C27.0203 2 27.3594 2.13284 27.6095 2.3693C27.8595 2.60576 28 2.92647 28 3.26087V29.7391C28 30.0735 27.8595 30.3942 27.6095 30.6307C27.3594 30.8672 27.0203 31 26.6667 31Z" stroke="#490905" stroke-width="1.44" stroke-linecap="round"/>
<path d="M9 17L10 17" stroke="#490905" stroke-width="1.44" stroke-linecap="round"/>
<path d="M14 17L22 17" stroke="#490905" stroke-width="1.44" stroke-linecap="round"/>
<path d="M9 21L10 21" stroke="#490905" stroke-width="1.44" stroke-linecap="round"/>
<path d="M14 21L22 21" stroke="#490905" stroke-width="1.44" stroke-linecap="round"/>
<path d="M9 25L10 25" stroke="#490905" stroke-width="1.44" stroke-linecap="round"/>
<path d="M14 25L22 25" stroke="#490905" stroke-width="1.44" stroke-linecap="round"/>
</svg>
