<svg width="32" height="32" viewBox="0 0 32 32" fill="none" xmlns="http://www.w3.org/2000/svg">
<g clip-path="url(#clip0_4321_135)">
<path d="M12.5097 21.9442C11.0015 21.9442 9.49426 21.9442 7.98606 21.9442H4.6106L4.65295 21.5554C5.03014 18.0811 6.71518 15.5863 9.66132 14.1391C10.9433 13.5093 12.2556 13.1898 13.5601 13.1898C15.183 13.1898 16.8294 13.6828 18.454 14.6551L19.274 15.1899M25.8534 24.9795V31L25.3395 30.7294C25.3192 30.7184 25.2999 30.7085 25.2824 30.6997C25.2423 30.6788 25.2079 30.6607 25.1733 30.6415C24.9218 30.501 24.6709 30.3604 24.4194 30.2198C23.6947 29.8141 22.9447 29.3946 22.2101 28.9774C22.1415 28.9384 22.0837 28.9197 22.0326 28.9197C21.9838 28.9197 21.929 28.9373 21.8654 28.9735C21.1231 29.3952 20.366 29.8185 19.6336 30.2281C19.3947 30.3615 19.1558 30.4954 18.917 30.6288C18.8736 30.6535 18.8314 30.6744 18.7875 30.6964C18.7677 30.7063 18.7472 30.7162 18.7253 30.7277L18.2154 30.9879V24.9946M13.5676 12.8625C11.9836 12.8625 10.4925 12.2443 9.36857 11.1221C8.24414 9.99931 7.62598 8.51086 7.62763 6.93018C7.63092 3.66614 10.2909 1.00549 13.5566 1H13.5676C16.836 1 19.4968 3.66227 19.499 6.93453C19.5001 8.51247 18.8824 9.99932 17.7602 11.1216C16.6379 12.2438 15.1505 12.862 13.5676 12.8631V12.8625ZM22.0316 26.3853H21.9916C20.4082 26.3743 18.9268 25.7507 17.8205 24.6284C16.6966 23.4881 16.0843 21.9634 16.0975 20.336C16.1233 17.1198 18.8005 14.503 22.0651 14.503H22.1013C23.6622 14.5124 25.1377 15.1416 26.2561 16.2754C27.3739 17.4086 27.9838 18.8932 27.9739 20.4557C27.9525 23.7253 25.2868 26.3853 22.0316 26.3853Z" stroke="#490905" stroke-width="1.44" stroke-linecap="round"/>
<path d="M20 21.5C20 21.5 21.0464 22.3022 21.118 22.3022C21.1922 22.3022 21.2704 22.241 21.3322 22.1343C21.7006 21.497 21.118 22.5 23.5 19" stroke="#490905" stroke-width="1.44" stroke-linecap="round"/>
</g>
<defs>
<clipPath id="clip0_4321_135">
<rect width="32" height="32" fill="white"/>
</clipPath>
</defs>
</svg>
